<svg width="185" height="28" viewBox="0 0 185 28" fill="none" xmlns="http://www.w3.org/2000/svg">
<g clip-path="url(#clip0_21082_302870)">
<g clip-path="url(#clip1_21082_302870)">
<path d="M-0.000473022 28L91.623 28V0L-0.000473022 0V28Z" fill="#0F0F0F"/>
<path d="M91.6243 28L184.801 28V0L91.6243 0V28Z" fill="#525252"/>
<path d="M6.21094 22.4294V5.888H20.5321V22.4294H16.5436V9.27572H10.1994V22.4294H6.21094Z" fill="url(#paint0_linear_21082_302870)"/>
<path d="M22.6318 22.4294L29.5591 5.888H33.431L40.2883 22.4294H35.8567L34.5739 19.1819H28.183L26.9701 22.4294H22.6318ZM29.3259 15.9811H33.4776L31.4251 10.3037L29.3259 15.9811Z" fill="url(#paint1_linear_21082_302870)"/>
<path d="M42.3822 22.4294V5.888H46.3007V12.6167H46.3707L51.6792 5.888H56.6706L50.1492 13.5045L57.0905 22.4294H51.8891L46.3474 14.8129H46.3007V22.4294H42.3822Z" fill="url(#paint2_linear_21082_302870)"/>
<path d="M59.6935 22.4294V5.888H70.7958V9.27572H63.542V12.3831H70.3993V15.5839H63.542V19.0183H71.2157V22.4294H59.6935Z" fill="url(#paint3_linear_21082_302870)"/>
<path d="M77.669 22.4294V9.29909H73.0042V5.888H86.3224V9.29909H81.6575V22.4294H77.669Z" fill="url(#paint4_linear_21082_302870)"/>
<path d="M105.185 22.8733C102.619 22.8733 100.497 22.0634 98.8173 20.4435C97.1379 18.8081 96.2983 16.7053 96.2983 14.1354C96.2983 11.5342 97.1457 9.43927 98.8406 7.85054C100.551 6.24624 102.689 5.44409 105.255 5.44409C106.452 5.44409 107.611 5.66215 108.73 6.09827C109.865 6.51882 110.767 7.1107 111.436 7.87391L108.73 10.5841C108.372 10.0857 107.89 9.71184 107.284 9.46263C106.693 9.19784 106.063 9.06545 105.395 9.06545C104.011 9.06545 102.868 9.5483 101.966 10.514C101.08 11.4641 100.637 12.6712 100.637 14.1354C100.637 15.6306 101.072 16.8533 101.943 17.8034C102.814 18.738 103.941 19.2053 105.325 19.2053C106.864 19.2053 108.03 18.6445 108.823 17.5231L111.599 20.1398C110.029 21.9622 107.89 22.8733 105.185 22.8733Z" fill="url(#paint5_linear_21082_302870)"/>
<path d="M114.334 22.4294V5.888H128.655V22.4294H124.666V9.27572H118.322V22.4294H114.334Z" fill="url(#paint6_linear_21082_302870)"/>
<path d="M140.401 22.8733C137.805 22.8733 135.659 22.0634 133.964 20.4435C132.269 18.8081 131.422 16.6898 131.422 14.0886C131.422 11.4719 132.261 9.37697 133.941 7.80382C135.636 6.23067 137.789 5.44409 140.401 5.44409C143.029 5.44409 145.183 6.23067 146.862 7.80382C148.557 9.37697 149.405 11.4719 149.405 14.0886C149.405 16.6898 148.557 18.8081 146.862 20.4435C145.167 22.0634 143.014 22.8733 140.401 22.8733ZM136.996 17.7801C137.882 18.7458 139.018 19.2286 140.401 19.2286C141.785 19.2286 142.921 18.7458 143.807 17.7801C144.693 16.8144 145.136 15.5839 145.136 14.0886C145.136 12.6245 144.693 11.4174 143.807 10.4673C142.921 9.51715 141.785 9.04209 140.401 9.04209C139.018 9.04209 137.882 9.51715 136.996 10.4673C136.125 11.4174 135.69 12.6245 135.69 14.0886C135.69 15.5839 136.125 16.8144 136.996 17.7801Z" fill="url(#paint7_linear_21082_302870)"/>
<path d="M152.167 22.4294V5.888H158.232C160.191 5.888 161.754 6.29297 162.92 7.10291C164.101 7.89727 164.692 9.19006 164.692 10.9813C164.692 12.1962 164.374 13.2086 163.736 14.0185C163.114 14.8285 162.329 15.397 161.38 15.7241C160.447 16.0356 159.367 16.1913 158.138 16.1913H156.156V22.4294H152.167ZM156.156 13.0139H157.835C159.748 13.0139 160.704 12.3441 160.704 11.0046C160.704 9.743 159.771 9.11218 157.905 9.11218H156.156V13.0139Z" fill="url(#paint8_linear_21082_302870)"/>
<path d="M171.487 22.4294V9.29909H166.822V5.888H180.14V9.29909H175.475V22.4294H171.487Z" fill="url(#paint9_linear_21082_302870)"/>
</g>
</g>
<defs>
<linearGradient id="paint0_linear_21082_302870" x1="83.2431" y1="5.44409" x2="83.2431" y2="22.9539" gradientUnits="userSpaceOnUse">
<stop offset="0.197151" stop-color="#FBE466"/>
<stop offset="1" stop-color="#D49E31"/>
</linearGradient>
<linearGradient id="paint1_linear_21082_302870" x1="83.2431" y1="5.44409" x2="83.2431" y2="22.9539" gradientUnits="userSpaceOnUse">
<stop offset="0.197151" stop-color="#FBE466"/>
<stop offset="1" stop-color="#D49E31"/>
</linearGradient>
<linearGradient id="paint2_linear_21082_302870" x1="83.2431" y1="5.44409" x2="83.2431" y2="22.9539" gradientUnits="userSpaceOnUse">
<stop offset="0.197151" stop-color="#FBE466"/>
<stop offset="1" stop-color="#D49E31"/>
</linearGradient>
<linearGradient id="paint3_linear_21082_302870" x1="83.2431" y1="5.44409" x2="83.2431" y2="22.9539" gradientUnits="userSpaceOnUse">
<stop offset="0.197151" stop-color="#FBE466"/>
<stop offset="1" stop-color="#D49E31"/>
</linearGradient>
<linearGradient id="paint4_linear_21082_302870" x1="83.2431" y1="5.44409" x2="83.2431" y2="22.9539" gradientUnits="userSpaceOnUse">
<stop offset="0.197151" stop-color="#FBE466"/>
<stop offset="1" stop-color="#D49E31"/>
</linearGradient>
<linearGradient id="paint5_linear_21082_302870" x1="83.2431" y1="5.44409" x2="83.2431" y2="22.9539" gradientUnits="userSpaceOnUse">
<stop offset="0.197151" stop-color="#FBE466"/>
<stop offset="1" stop-color="#D49E31"/>
</linearGradient>
<linearGradient id="paint6_linear_21082_302870" x1="83.2431" y1="5.44409" x2="83.2431" y2="22.9539" gradientUnits="userSpaceOnUse">
<stop offset="0.197151" stop-color="#FBE466"/>
<stop offset="1" stop-color="#D49E31"/>
</linearGradient>
<linearGradient id="paint7_linear_21082_302870" x1="83.2431" y1="5.44409" x2="83.2431" y2="22.9539" gradientUnits="userSpaceOnUse">
<stop offset="0.197151" stop-color="#FBE466"/>
<stop offset="1" stop-color="#D49E31"/>
</linearGradient>
<linearGradient id="paint8_linear_21082_302870" x1="83.2431" y1="5.44409" x2="83.2431" y2="22.9539" gradientUnits="userSpaceOnUse">
<stop offset="0.197151" stop-color="#FBE466"/>
<stop offset="1" stop-color="#D49E31"/>
</linearGradient>
<linearGradient id="paint9_linear_21082_302870" x1="83.2431" y1="5.44409" x2="83.2431" y2="22.9539" gradientUnits="userSpaceOnUse">
<stop offset="0.197151" stop-color="#FBE466"/>
<stop offset="1" stop-color="#D49E31"/>
</linearGradient>
<clipPath id="clip0_21082_302870">
<rect width="185" height="28" fill="white"/>
</clipPath>
<clipPath id="clip1_21082_302870">
<rect width="184.8" height="28" fill="white"/>
</clipPath>
</defs>
</svg>
