<svg width="48" height="16" viewBox="0 0 48 16" fill="none" xmlns="http://www.w3.org/2000/svg">
<g clip-path="url(#clip0_21079_137382)">
<g clip-path="url(#clip1_21079_137382)">
<path d="M0 0H48V16H0V0Z" fill="#ED1E4F"/>
<path d="M13.2036 11.3416H11.2395L10.9594 10.1676H9.24354L8.96266 11.3416H7V11.1409L8.88463 4.50071H11.319L13.2036 11.1175V11.3416ZM9.58046 8.7251H10.6239L10.4558 8.00985C10.3939 7.73126 10.3359 7.45182 10.282 7.17161C10.2265 6.88709 10.1872 6.59969 10.1642 6.31076H10.0408C10.0253 6.59981 9.98971 6.88744 9.93441 7.17161C9.87908 7.4621 9.82021 7.74198 9.76063 8.00985L9.58046 8.7251V8.7251ZM19.8435 7.93139C19.8435 8.8184 19.4044 9.26155 18.5248 9.26155H16.4118V11.3409H14.3818V4.5H18.5234C19.4037 4.5 19.8442 4.94315 19.8442 5.83015V7.93139H19.8435V7.93139ZM17.8361 6.00967H16.4111V7.75329H17.8361V6.00967ZM21.3238 11.3416V4.5H26.3613V6.00897H23.3325V7.08256H25.7555V8.59152H23.3325V9.83191H26.4734V11.3416H21.3238V11.3416ZM31.5882 11.3416V8.68128H29.8951V11.3416H27.8863V4.5H29.8951V7.08185H31.5882V4.5H33.6182V11.3409H31.5882V11.3416ZM41 11.3416H39.0366L38.7558 10.1676H37.0399L36.759 11.3416H34.7957V11.1409L36.6803 4.50071H39.114L40.9993 11.1175L41 11.3416V11.3416ZM37.3761 8.7251H38.4202L38.2521 8.00985C38.1899 7.73133 38.132 7.45189 38.0784 7.17161C38.023 6.88705 37.9835 6.59966 37.9599 6.31076H37.8372C37.8214 6.59982 37.7856 6.88746 37.7301 7.17161C37.6741 7.4621 37.6159 7.74198 37.5563 8.00985L37.3761 8.7251Z" fill="white"/>
</g>
</g>
<defs>
<clipPath id="clip0_21079_137382">
<rect width="48" height="16" fill="white"/>
</clipPath>
<clipPath id="clip1_21079_137382">
<rect width="48" height="16" fill="white"/>
</clipPath>
</defs>
</svg>
