<svg width="40" height="16" viewBox="0 0 40 16" fill="none" xmlns="http://www.w3.org/2000/svg">
<g clip-path="url(#clip0_21079_137384)">
<g clip-path="url(#clip1_21079_137384)">
<path d="M0 0H40V16H0V0Z" fill="#DD2331"/>
<path d="M12.6509 10.1222C12.6509 10.567 12.5117 10.8733 12.2313 11.0425C11.953 11.211 11.5621 11.2956 11.0635 11.2956H7V4.5H12.4544V5.85171H8.89366V6.99923H11.053C11.553 6.99923 11.9446 7.08664 12.2278 7.26146C12.511 7.43629 12.6509 7.74327 12.6509 8.18172V10.1222V10.1222ZM10.7579 8.35165H8.89366V9.94391H10.7579V8.35165ZM19.3885 10.1131C19.3885 10.9019 18.9556 11.2956 18.0892 11.2956H15.0368C14.1704 11.2956 13.7376 10.9019 13.7376 10.1131V5.5678C13.7376 4.85593 14.1704 4.5007 15.0368 4.5007H18.0892C18.9556 4.5007 19.3885 4.85663 19.3885 5.5678V10.1131ZM17.4948 5.85171H15.6305V9.94391H17.4948V5.85171V5.85171ZM20.5815 11.2963V4.5H25.2666V5.85171H22.4758V7.14189H24.9317V8.4943H22.4758V9.94391H25.3659V11.2963H20.5815V11.2963ZM28.2952 4.5V9.94391H30.1595V4.5H32.0532V9.94391H33V12.4879H31.2343V11.2963H26.4009V4.5H28.2952V4.5Z" fill="white"/>
</g>
</g>
<defs>
<clipPath id="clip0_21079_137384">
<rect width="40" height="16" fill="white"/>
</clipPath>
<clipPath id="clip1_21079_137384">
<rect width="40" height="16" fill="white"/>
</clipPath>
</defs>
</svg>
