<svg width="77" height="16" viewBox="0 0 77 16" fill="none" xmlns="http://www.w3.org/2000/svg">
<g clip-path="url(#clip0_21079_137379)">
<g clip-path="url(#clip1_21079_137379)">
<path d="M0.0527344 0H61.0626V16H0.0527344V0Z" fill="#46D202"/>
<path d="M10.9269 3.89551V4.59551H12.5403C13.6805 4.59551 14.2558 5.15471 14.2558 6.26271V9.68591C14.2558 10.8059 13.6797 11.3531 12.5403 11.3531H10.9269V12.1043H8.6102V11.3531H6.98395C5.84533 11.3531 5.28125 10.7939 5.28125 9.67311V6.26351C5.28125 5.15551 5.84533 4.59631 6.98395 4.59631H8.6102V3.89551H10.9269V3.89551ZM7.38146 9.73791H8.6102V6.22431H7.38146V9.73791ZM10.9269 9.73791H12.1299V6.22431H10.9269V9.73791V9.73791ZM17.2766 11.7491L18.4418 9.49631H18.0322C17.5325 9.49631 17.3152 9.40751 17.1744 8.97471L15.5489 4.32911V4.15071H17.9557L19.0058 8.27391H19.1209L20.3239 4.15071H22.7049V4.32831L19.6327 11.9395H17.2774V11.7491H17.2766V11.7491ZM28.0295 5.86831V11.9387H25.8279V5.86831H23.7285V4.14991H30.116V5.86831H28.0295V5.86831ZM38.3736 10.1451C38.3736 11.3411 37.9504 11.9387 36.8625 11.9387H31.9081V4.14991H38.1427V5.86831H34.2127V7.01391H36.543C37.7202 7.01391 38.3745 7.39551 38.3745 8.52831V10.1451H38.3736V10.1451ZM36.0682 8.71871H34.2127V10.2203H36.0682V8.71871ZM47.0907 10.4243C47.0907 11.4299 46.5918 11.9387 45.5795 11.9387H42.0462C41.0347 11.9387 40.5487 11.4299 40.5487 10.4243V5.71551C40.5487 4.67231 41.0347 4.14991 42.0462 4.14991H45.5795C46.5918 4.14991 47.0907 4.64591 47.0907 5.66431V10.4243V10.4243ZM44.7612 5.86831H42.8404V10.2203H44.7612V5.86831V5.86831ZM55.8336 4.14991V11.9387H53.5298V5.86831H52.0838V8.03231C52.0838 10.1195 51.6355 11.8371 49.3945 12.0411L48.6912 10.3227C49.9449 10.0683 50.0737 9.49631 50.0737 7.98191V4.15071L55.8336 4.14991V4.14991Z" fill="white"/>
<path d="M64.5842 2.76C64.5842 0.9408 65.5442 0 67.3612 0H73.6674C75.4852 0 76.4452 0.9408 76.4452 2.76V4.6424C76.4452 5.5424 76.3406 6.0232 75.5472 6.8176L70.1389 12.3184H76.4033V16H64.375V13.5736L72.5618 4.9984V3.2H68.4676V5.208H66.9017L64.5842 4.9992V2.76Z" fill="#46D202"/>
</g>
</g>
<defs>
<clipPath id="clip0_21079_137379">
<rect width="77" height="16" fill="white"/>
</clipPath>
<clipPath id="clip1_21079_137379">
<rect width="76.3916" height="16" fill="white" transform="translate(0.0527344)"/>
</clipPath>
</defs>
</svg>
