<svg width="76" height="16" viewBox="0 0 76 16" fill="none" xmlns="http://www.w3.org/2000/svg">
<g clip-path="url(#clip0_21079_137380)">
<g clip-path="url(#clip1_21079_137380)">
<path d="M0 0H60.2583V15.9896H0V0Z" fill="#46D202"/>
<path d="M10.7393 3.89258V4.59178H12.3323C13.4585 4.59178 14.0271 5.15098 14.0271 6.25818V9.67978C14.0271 10.7982 13.4585 11.3454 12.3323 11.3454H10.7393V12.0958H8.45033V11.3454H6.84537C5.71999 11.3454 5.16406 10.7862 5.16406 9.66698V6.25818C5.16406 5.15178 5.72079 4.59178 6.84537 4.59178H8.45113V3.89258H10.7393V3.89258ZM7.23747 9.73018H8.45113V6.21978H7.23747V9.73018V9.73018ZM10.7393 9.73018H11.9275V6.21978H10.7393V9.73018ZM17.0104 11.7398L18.1612 9.48938H17.7564C17.2633 9.48938 17.0478 9.40058 16.9094 8.96778L15.3036 4.32538V4.14698H17.6808L18.7179 8.26778H18.8317L20.0199 4.14698H22.3716V4.32538L19.3375 11.931H17.0112V11.7398H17.0104ZM27.6311 5.86378V11.9302H25.4567V5.86378H23.3833V4.14698H29.6926V5.86378H27.6311ZM37.847 10.1374C37.847 11.3326 37.4295 11.9302 36.355 11.9302H31.4622V4.14698H37.6195V5.86378H33.7376V7.00858H36.0392C37.202 7.00858 37.847 7.39018 37.847 8.52218V10.1374V10.1374ZM35.5708 8.71258H33.7376V10.2126H35.5708V8.71258ZM46.4572 10.4166C46.4572 11.4214 45.9641 11.9302 44.9643 11.9302H41.4753C40.4763 11.9302 39.996 11.4214 39.996 10.4166V5.71178C39.996 4.66858 40.4763 4.14698 41.4753 4.14698H44.9643C45.9641 4.14698 46.4572 4.64298 46.4572 5.66058V10.4166V10.4166ZM44.1563 5.86378H42.2602V10.2134H44.1563V5.86378ZM55.092 4.14698V11.9302H52.8166V5.86378H51.3874V8.02538C51.3874 10.1118 50.9444 11.8286 48.7326 12.0326L48.0375 10.3158C49.2758 10.0614 49.4022 9.48938 49.4022 7.97578V4.14698H55.092Z" fill="white"/>
<path d="M64.064 0H75.2828V3.0784L71.1384 6.4504V6.5336H72.8118C74.6346 6.5336 75.5548 7.392 75.5548 9.2144V13.2352C75.5548 15.0568 74.6354 16 72.8126 16H66.3673C64.5444 16 63.625 15.0568 63.625 13.2352V11.3504L66.1772 11.1408H67.4966V12.816H71.6824V9.2144H65.696V7.4336L70.0297 3.768V3.6848H64.064V0Z" fill="#46D202"/>
</g>
</g>
<defs>
<clipPath id="clip0_21079_137380">
<rect width="76" height="16" fill="white"/>
</clipPath>
<clipPath id="clip1_21079_137380">
<rect width="75.5554" height="16" fill="white"/>
</clipPath>
</defs>
</svg>
