<svg width="72" height="16" viewBox="0 0 72 16" fill="none" xmlns="http://www.w3.org/2000/svg">
<g clip-path="url(#clip0_21079_137378)">
<g clip-path="url(#clip1_21079_137378)">
<path d="M0 0H62.7426V16H0V0Z" fill="#50D200"/>
<path d="M11.1833 3.89551V4.59551H12.8426C14.0145 4.59551 14.6062 5.15471 14.6062 6.26191V9.68511C14.6062 10.8051 14.0136 11.3523 12.8426 11.3523H11.1833V12.1035H8.80068V11.3523H7.12812C5.95626 11.3523 5.37695 10.7931 5.37695 9.67231V6.26271C5.37695 5.15551 5.95626 4.59631 7.12812 4.59631H8.80068V3.89551H11.1833ZM7.53695 9.73711H8.79985V6.22431H7.53695V9.73711ZM11.1833 9.73711H12.4214V6.22431H11.1833V9.73711ZM17.713 11.7475L18.9113 9.49551H18.4901C17.9769 9.49551 17.7527 9.40671 17.6078 8.97391L15.9361 4.32831V4.14991H18.4114L19.4906 8.27391H19.6089L20.847 4.14991H23.295V4.32751L20.1353 11.9387H17.713V11.7475V11.7475ZM28.772 5.86751V11.9379H26.5077V5.86751H24.3494V4.14991H30.9187V5.86831H28.772V5.86751V5.86751ZM39.4089 10.1443C39.4089 11.3403 38.9745 11.9387 37.8556 11.9387H32.7609V4.14991H39.1714V5.86831H35.1303V7.01391H37.5262C38.7386 7.01391 39.4089 7.39631 39.4089 8.52831V10.1443ZM37.0396 8.71791H35.1303V10.2195H37.0396V8.71791ZM48.375 10.4235C48.375 11.4291 47.8611 11.9387 46.82 11.9387H43.186C42.1466 11.9387 41.6459 11.4291 41.6459 10.4235V5.71471C41.6459 4.67151 42.1466 4.14911 43.186 4.14911H46.82C47.8611 4.14911 48.375 4.64591 48.375 5.66431V10.4235ZM45.9783 5.86751H44.0029V10.2195H45.9783V5.86751V5.86751ZM57.3651 4.14991V11.9387H54.9957V5.86751H53.5085V8.03151C53.5085 10.1179 53.0476 11.8371 50.7427 12.0403L50.0186 10.3219C51.3105 10.0683 51.4412 9.49551 51.4412 7.98111V4.14991H57.3651V4.14991Z" fill="white"/>
<path d="M72.0001 0V16H68.0757V4.2304H66.207V0H72.0001Z" fill="#50D200"/>
</g>
</g>
<defs>
<clipPath id="clip0_21079_137378">
<rect width="72" height="16" fill="white"/>
</clipPath>
<clipPath id="clip1_21079_137378">
<rect width="72" height="16" fill="white"/>
</clipPath>
</defs>
</svg>
