<svg width="40" height="16" viewBox="0 0 40 16" fill="none" xmlns="http://www.w3.org/2000/svg">
<g clip-path="url(#clip0_21079_137381)">
<g clip-path="url(#clip1_21079_137381)">
<path d="M0 0H40V16H0V0Z" fill="#EF5023"/>
<path d="M9.01313 4.5V6.4342C9.00927 6.81301 8.99599 7.19167 8.97331 7.56982C8.96236 7.76179 8.94362 7.95324 8.91713 8.14368C8.89082 8.33141 8.86237 8.50421 8.83322 8.66136H8.93491L10.5989 4.50071H12.7357V11.3827H10.7233V9.43718C10.7233 9.10011 10.7383 8.72536 10.7681 8.31293C10.7973 7.90049 10.8456 7.5364 10.9139 7.2221H10.8015L9.13686 11.3835H7V4.5H9.01313V4.5ZM19.4713 4.5V6.0182H16.5586V11.382H14.5455V4.5H19.4713ZM26.2524 7.95169C26.2524 8.84483 25.8115 9.29069 24.9304 9.29069H22.8121V11.382H20.7762V4.5H24.9283C25.8115 4.5 26.2531 4.94586 26.2531 5.83758V7.95169H26.2524ZM24.2392 6.0182H22.8113V7.77178H24.2392V6.0182ZM33 11.3827H31.0317L30.7501 10.2016H29.0299L28.7483 11.3827H26.78V11.1808L28.6694 4.50071H31.1099L32.9993 11.158L33 11.3827V11.3827ZM29.3677 8.75025H30.4137L30.2452 8.03133C30.1847 7.76111 30.1272 7.48023 30.071 7.18725C30.0148 6.8957 29.975 6.60628 29.9529 6.32113H29.8292C29.8136 6.61195 29.778 6.90134 29.7225 7.18725C29.6664 7.48023 29.6088 7.76111 29.5483 8.03133L29.3677 8.75025V8.75025Z" fill="white"/>
</g>
</g>
<defs>
<clipPath id="clip0_21079_137381">
<rect width="40" height="16" fill="white"/>
</clipPath>
<clipPath id="clip1_21079_137381">
<rect width="40" height="16" fill="white"/>
</clipPath>
</defs>
</svg>
