<svg width="84" height="16" viewBox="0 0 84 16" fill="none" xmlns="http://www.w3.org/2000/svg">
<g clip-path="url(#clip0_21079_137383)">
<g clip-path="url(#clip1_21079_137383)">
<path d="M0 0H84V16H0V0Z" fill="#3F0134"/>
<path d="M8.9556 5.04145V7.81808H9.14914L10.7487 5.04145H12.8069V5.20699L10.7083 8.42603L13.0408 11.9017V12.0672H10.7386L9.14914 9.21688H8.9556V12.0672H7V5.04073H8.9556V5.04145ZM19.5691 10.8434C19.5691 11.6595 19.1221 12.0658 18.2274 12.0658H15.0751C14.1804 12.0658 13.7334 11.6588 13.7334 10.8434V6.14458C13.7334 5.40868 14.1804 5.04145 15.0751 5.04145H18.2274C19.1221 5.04145 19.5691 5.4094 19.5691 6.14458V10.8434V10.8434ZM17.6135 6.4388H15.6883V10.6684H17.6135V6.4388V6.4388ZM24.6827 12.0665V9.27109H22.7574V12.0665H20.8011V5.04145H22.7574V7.77254H24.6827V5.04145H26.6383V12.0665H24.6827ZM31.905 12.0665V9.27109H29.9797V12.0665H28.0234V5.04145H29.9797V7.77254H31.905V5.04145H33.8606V12.0665H31.905ZM40.7362 10.5586C40.7362 11.0501 40.6373 11.4224 40.4409 11.6812C40.2437 11.9378 39.8942 12.0665 39.3916 12.0665H35.2457V5.04145H37.202V7.57952H39.3916C39.8198 7.57952 40.1506 7.68651 40.3845 7.90121C40.6192 8.11591 40.7362 8.41591 40.7362 8.80266V10.5586ZM38.7799 8.94941H37.2013V10.6684H38.7799V8.94941ZM41.683 12.0665V5.04145H43.6386V12.0665H41.683ZM46.9706 5.04145V7.20217C46.9706 7.33085 46.9648 7.48699 46.9554 7.67061C46.9446 7.85422 46.933 8.0429 46.9193 8.23663C46.9049 8.42965 46.8897 8.61688 46.8738 8.7976L46.8283 9.26242H46.889L48.8301 5.04145H50.9533V12.0665H48.9984V9.91447C49.001 9.56929 49.0148 9.2243 49.0396 8.88001C49.054 8.68772 49.0685 8.49977 49.0851 8.31543C49.1017 8.13109 49.1176 7.97495 49.1306 7.84627H49.0591L47.1338 12.0665H45.0136V5.04145H46.9706V5.04145ZM47.0934 3.54217H48.6417V3H50.1495V3.46916C50.1495 3.72651 50.1257 3.92747 50.078 4.07133C50.0393 4.20388 49.9542 4.31806 49.8383 4.39301C49.7271 4.46313 49.5776 4.50651 49.3898 4.52169C49.2035 4.53687 48.9681 4.54482 48.6828 4.54482H47.0645C46.785 4.54482 46.5539 4.53398 46.3705 4.51301C46.2139 4.50031 46.0624 4.45157 45.9278 4.3706C45.8131 4.29355 45.7302 4.17745 45.6945 4.04386C45.6498 3.9 45.6274 3.70554 45.6274 3.45976V3H47.0941V3.54217H47.0934V3.54217ZM58.1048 5.04217L58.8789 7.32217C58.9591 7.56724 59.0328 7.8188 59.0978 8.07615C59.1628 8.3335 59.2147 8.59374 59.2559 8.85832H59.3166C59.3505 8.59447 59.3996 8.3335 59.4646 8.07615C59.5296 7.8188 59.6011 7.56724 59.6834 7.32217L60.4677 5.04217H62.8826V12.068H61.0389V9.94338C61.0389 9.60724 61.0447 9.26459 61.0584 8.91832C61.0729 8.57206 61.0967 8.23013 61.1306 7.89326H61.0685L59.9867 11.2959H58.5663L57.483 7.89326H57.4224C57.4563 8.23013 57.4801 8.57206 57.4931 8.91832C57.5076 9.26459 57.5141 9.60724 57.5141 9.94338V12.068H55.6899V5.04217H58.1048V5.04217ZM66.0904 5.04217V7.2029C66.0904 7.33157 66.0846 7.48772 66.0752 7.67133C66.0644 7.85495 66.0528 8.04362 66.0391 8.23663C66.0151 8.57888 65.9845 8.92063 65.9474 9.2617H66.0088L67.9499 5.04145H70.0738V12.0672H68.1182V9.91519C68.1206 9.57001 68.1344 9.22501 68.1594 8.88073C68.1836 8.5354 68.214 8.19053 68.2504 7.84627H68.1789L66.2536 12.0672H64.1341V5.04217H66.0904V5.04217ZM77 8.50844C77 9.32386 76.5523 9.73085 75.6561 9.73085H73.4044V12.0672H71.4481V5.04217H75.6553C76.5515 5.04217 76.9993 5.44988 76.9993 6.26458V8.50844H77ZM75.0444 6.43952H73.4044V8.36169H75.0444V6.43952Z" fill="white"/>
</g>
</g>
<defs>
<clipPath id="clip0_21079_137383">
<rect width="84" height="16" fill="white"/>
</clipPath>
<clipPath id="clip1_21079_137383">
<rect width="84" height="16" fill="white"/>
</clipPath>
</defs>
</svg>
