<svg width="102" height="16" viewBox="0 0 102 16" fill="none" xmlns="http://www.w3.org/2000/svg">
<g clip-path="url(#clip0_21079_137377)">
<g clip-path="url(#clip1_21079_137377)">
<path d="M37.7782 16L102.223 16V0L37.7782 0V16Z" fill="#0F0F0F"/>
<path fill-rule="evenodd" clip-rule="evenodd" d="M84.2677 3.125H87.2475H90.8482V5.96391H87.2475V6.57403H89.5445L88.7996 9.45029L87.2475 9.43784V10.0355H90.8482V12.8744H87.2475H84.2677V10.0355V9.42539V6.57403V5.96391V3.125ZM96.1996 5.96391H94.5234V7.99348H96.1996V5.96391ZM94.5358 3.125H96.212H96.7831H99.2043V10.8324H94.5482V12.8744H91.5684V5.96391V3.125H94.5358ZM80.5304 10.0355H78.8542V8.00593H80.5304V10.0355ZM78.8542 12.8744H80.5304H81.1015H83.5227V5.16702H78.8666V3.125H75.8868V10.0355V12.8744H78.8542V12.8744ZM72.075 3.125H75.0549V12.8744H72.075V7.48298L69.9642 10.5585L67.8535 7.48298V12.8869H64.8736V3.125H67.8535L69.9642 6.20049L72.075 3.125ZM53.9102 5.96391H52.234V7.99348H53.9102V5.96391ZM52.234 3.125H53.9102H54.4813H56.9024V10.8324H52.2464V12.8744H49.2665V5.96391V3.125H52.234ZM40.8359 3.125H41.5685H43.8158H45.492H46.7957H48.4719V12.8744H45.492V5.96391H43.8158V12.8744H40.8359V3.125ZM64.1907 10.0355V12.8744H60.59H57.6102V10.0355V9.42539V6.57403V5.96391V3.125H60.59H64.1907V5.96391H60.59V6.57403H62.887L62.1421 9.45029L60.59 9.43784V10.0355H64.1907Z" fill="url(#paint0_linear_21079_137377)"/>
<path d="M37.7778 0H0V16H37.7778V0Z" fill="url(#paint1_linear_21079_137377)"/>
<path fill-rule="evenodd" clip-rule="evenodd" d="M20.8092 5.91484V12.8253H17.8294V10.7833H14.5267L13.2105 12.8253H10.2307V7.42145L8.11992 10.4969L6.00917 7.42145V12.8253H3.0293V3.06348H6.00917L8.11992 6.13896L10.2307 3.06348H13.2105V7.63313L16.1035 3.06348H19.1082H20.8092H22.473H25.4529H27.0794H28.8177H30.0593V7.93196H31.7355V3.06348H34.7153V12.8253H31.7355V10.7833H27.0794V5.91484H25.4529V12.8253H22.473V5.91484H20.8092ZM16.3394 7.93196H17.8294V5.61601L16.3394 7.93196Z" fill="url(#paint2_linear_21079_137377)"/>
</g>
</g>
<defs>
<linearGradient id="paint0_linear_21079_137377" x1="46.0214" y1="-5.89051" x2="93.1832" y2="21.2614" gradientUnits="userSpaceOnUse">
<stop stop-color="#FBE466"/>
<stop offset="1" stop-color="#D49E31"/>
</linearGradient>
<linearGradient id="paint1_linear_21079_137377" x1="1.26687" y1="18.1982" x2="36.5511" y2="-2.11986" gradientUnits="userSpaceOnUse">
<stop stop-color="#D49E31"/>
<stop offset="1" stop-color="#FBE466"/>
</linearGradient>
<linearGradient id="paint2_linear_21079_137377" x1="3.03464" y1="7.9441" x2="34.7289" y2="7.9441" gradientUnits="userSpaceOnUse">
<stop stop-color="#F2F2F2"/>
<stop offset="1" stop-color="#FAFAFA"/>
</linearGradient>
<clipPath id="clip0_21079_137377">
<rect width="102" height="16" fill="white"/>
</clipPath>
<clipPath id="clip1_21079_137377">
<rect width="102.222" height="16" fill="white"/>
</clipPath>
</defs>
</svg>
