<svg width="25" height="25" viewBox="0 0 25 25" fill="none" xmlns="http://www.w3.org/2000/svg">
<g clip-path="url(#clip0_21079_292277)">
<path d="M24.1567 8.26933L0.25 17.805V19.3755H24.1567V8.26933Z" fill="#919191"/>
<path d="M24.1567 7.76347V0.25H0.25V17.2991L24.1567 7.76347Z" fill="#D20515"/>
<path d="M17.3487 8.70678C17.2934 8.50437 17.1238 8.5278 16.9842 8.51936C16.7874 8.50812 16.6393 8.51187 16.3704 8.49032C16.1445 8.47603 15.9198 8.44724 15.6976 8.4041C15.5654 8.3788 15.1738 8.28322 15.1738 8.28322C14.3351 8.08081 13.6163 7.62727 12.7467 7.35739C12.7317 7.36863 12.6905 7.40987 12.6746 7.42017C12.4291 7.30679 12.0533 7.36301 11.9043 7.32647C11.4312 7.11809 10.9313 6.9771 10.419 6.90759L10.3722 6.75017C10.3722 6.75017 8.43805 6.46904 8.01075 6.43343C8.15318 5.56664 8.56175 4.69235 8.76041 4.26317L9.30391 4.30253L9.40886 4.06638C9.45349 3.96185 9.50678 3.86123 9.56817 3.76558C9.63845 3.67187 9.71904 3.67187 9.74246 3.60253C9.77151 3.51444 9.67593 3.23707 9.74246 2.98593C9.78276 2.82007 9.85866 2.73386 9.83617 2.60267C9.75839 2.17724 9.17459 1.82677 8.77821 1.82677C8.007 1.82677 7.78585 2.48272 7.80459 2.97375C6.99308 2.70481 5.24919 2.91284 5.24919 2.91284L5.20514 3.0862C5.20514 3.0862 4.94464 3.03747 4.80314 3.17991C4.29712 3.72154 3.43407 4.84603 3.43407 4.84603C3.34754 4.8523 3.26384 4.87955 3.1902 4.92543C3.11656 4.9713 3.05521 5.03443 3.01145 5.10935C2.89619 5.27052 2.74251 5.30613 2.54291 5.39047C2.47076 5.41577 2.49981 5.55258 2.55509 5.55539C2.68254 5.56945 2.84653 5.4898 2.99365 5.41671C2.89994 5.58632 2.63475 5.7147 2.56259 5.79154C2.54104 5.81403 2.53635 5.8309 2.56259 5.86932C2.66192 6.02487 3.12484 5.92366 3.31225 5.79154C3.45375 5.69221 3.60837 5.55727 3.60837 5.55727C3.60837 5.55727 3.69552 5.26303 3.74612 5.22554C4.04973 4.9566 4.64758 4.46183 5.16579 4.00734C6.09443 4.08325 6.44677 4.10105 6.49737 4.10105L6.00916 4.29597C5.69149 4.89382 5.36913 6.94695 5.46846 7.18965C5.48908 7.18965 5.56217 7.12687 5.60809 7.13062C5.53406 7.39862 5.60809 8.1614 5.60809 8.1614C5.67275 8.86889 5.90327 9.80972 5.99791 10.0131L6.1797 10.0524C6.20875 10.297 6.46082 10.9604 6.61076 11.2762C6.06913 11.3025 5.34945 12.0531 4.73661 12.605C4.62058 12.7101 4.47236 12.7728 4.31614 12.7828C4.15992 12.7929 4.0049 12.7497 3.87637 12.6603C3.82762 12.6253 3.76912 12.6065 3.7091 12.6065C3.64909 12.6065 3.59058 12.6253 3.54183 12.6603C3.531 12.6701 3.52068 12.6804 3.51091 12.6912C3.50529 12.6912 3.50248 12.6968 3.49779 12.6968H3.48467L3.4753 12.6922C3.4575 12.6809 3.42939 12.6922 3.41252 12.7212L3.3741 12.7812C3.3563 12.8084 3.3563 12.8402 3.3741 12.8515L3.39472 12.8655C3.37504 12.9049 3.35723 12.9452 3.34224 12.9808L3.32537 12.9752C3.30569 12.9686 3.28133 12.9873 3.27008 13.0183L3.24666 13.0857C3.23541 13.1167 3.24197 13.1466 3.26165 13.1541L3.27758 13.1598C3.17638 13.4071 2.95897 13.5243 2.84653 13.7876L2.8231 13.7792C2.80248 13.7726 2.77906 13.7913 2.76781 13.8232L2.74438 13.8897C2.7391 13.9012 2.73771 13.9141 2.74042 13.9265C2.74312 13.9388 2.74978 13.9499 2.75938 13.9581L2.78374 13.9666C2.76497 14.0348 2.7515 14.1043 2.74345 14.1746H2.71627C2.69566 14.1746 2.67785 14.199 2.67692 14.2318V14.303C2.67692 14.3358 2.69097 14.363 2.71159 14.3639H2.73501V14.6085C2.74251 14.7593 2.99927 14.8324 3.0733 14.6919C3.70676 13.4793 5.66337 13.2188 7.24235 12.457C7.22826 12.4265 7.21606 12.3952 7.2058 12.3632C7.27608 12.3295 7.41196 12.2583 7.53096 12.188C7.64997 12.1177 7.74743 12.0521 7.77086 12.0343C7.84945 11.9783 7.91551 11.9065 7.96483 11.8235C8.01417 11.728 8.03927 11.6218 8.03792 11.5143C8.03792 11.3484 8.02761 11.0879 8.01637 10.8386C8.00419 10.5575 7.97983 10.253 7.95452 10.0234C8.00066 10.0159 8.0461 10.0046 8.0904 9.98964L7.9564 8.84734L7.55908 8.65243L10.1548 8.66461C10.1617 8.62 10.1737 8.5763 10.1904 8.53436C10.9288 8.56247 11.1321 8.5531 11.8106 8.57278C12.1226 8.57278 12.2604 8.80892 12.5143 8.8717C13.3202 9.0713 13.7466 8.80236 15.0041 9.04412C15.0226 9.04711 15.04 9.0548 15.0546 9.06646C15.0692 9.07811 15.0805 9.09334 15.0875 9.11066C15.1213 9.2203 15.1241 9.42458 15.1672 9.51454C15.2703 9.70664 15.4118 9.68508 15.542 9.63355L15.5589 9.66915C15.5673 9.6879 15.5982 9.69164 15.6282 9.67759L15.6929 9.6476C15.7229 9.63355 15.7397 9.60731 15.7313 9.58856L15.7144 9.55202L15.8082 9.50704L15.825 9.54359C15.8335 9.56139 15.8644 9.56608 15.8944 9.55296L15.959 9.52297C15.9881 9.50892 16.0059 9.48268 15.9965 9.46487L15.9806 9.42833C16.2664 9.2962 16.5428 9.1725 16.7911 9.0535L16.8024 9.07786C16.8108 9.0966 16.8417 9.10035 16.8717 9.08723L16.9364 9.05724C16.9664 9.04319 16.9832 9.01695 16.9748 8.99821L16.9617 8.97103L17.0413 8.93168L17.0545 8.95698C17.0638 8.97478 17.0948 8.97853 17.1238 8.96354L17.1875 8.93168C17.2166 8.91668 17.2334 8.88951 17.2241 8.8717L17.21 8.84359L17.2522 8.82016C17.3215 8.76956 17.3562 8.74239 17.3459 8.70397" fill="white"/>
<path d="M16.6999 8.20776C17.2925 8.20776 17.7729 7.72738 17.7729 7.13481C17.7729 6.54223 17.2925 6.06186 16.6999 6.06186C16.1073 6.06186 15.627 6.54223 15.627 7.13481C15.627 7.72738 16.1073 8.20776 16.6999 8.20776Z" fill="white"/>
<path d="M24.1567 7.76339L0.25 17.2991V17.8023L17.0302 11.1097V12.0299C17.8376 11.6562 18.7165 11.4621 19.6062 11.4611C20.5433 11.4611 20.9031 11.7225 20.9031 12.3982C20.9031 12.9773 20.6886 13.2012 19.9042 13.4289L18.9615 13.6998C17.1698 14.217 16.6938 14.9667 16.6938 16.2852V17.9091H22.5739V16.4566H18.5708V16.1212C18.5708 15.6077 18.6729 15.3462 19.476 15.1222L20.4262 14.8514C22.2272 14.3379 22.6845 13.7972 22.6845 12.2567C22.6845 10.7798 21.7765 9.99925 19.9951 9.92897L24.1548 8.27035L24.1567 7.76339Z" fill="white"/>
<path d="M22.817 22.0677L22.4469 23.2217H23.1871L22.817 22.0677ZM23.3178 23.6898H22.3162L22.1421 24.2232H21.4998L22.4143 21.6649H23.2307L24.1452 24.2232H23.5028L23.3178 23.6898ZM21.2276 22.7427V24.1361C20.9881 24.2232 20.6725 24.2667 20.3459 24.2667C19.4532 24.2667 19.0395 23.8748 19.0395 22.9386C19.0395 22.0133 19.4532 21.6105 20.3459 21.6105C20.6615 21.6105 20.9664 21.6649 21.195 21.752V22.2419C20.9446 22.1548 20.6725 22.1113 20.4003 22.1113C19.8669 22.1113 19.6927 22.329 19.6927 22.9386C19.6927 23.57 19.8669 23.7769 20.3785 23.7769C20.4983 23.7769 20.6072 23.7659 20.716 23.7551V23.1781H20.237V22.7318L21.2276 22.7427ZM17.94 21.6649H18.5823V24.2232H17.94V21.6649ZM15.8063 21.6649H16.4486V23.7333H17.5481V24.2232H15.8063V21.6649ZM13.4658 24.1252V23.6244C13.7706 23.7224 14.0536 23.766 14.3258 23.766C14.6197 23.766 14.7504 23.6898 14.7504 23.4938C14.7504 23.3197 14.6959 23.2761 14.4564 23.2217L14.0319 23.1346C13.5856 23.0475 13.444 22.8624 13.444 22.427C13.444 21.8609 13.7706 21.6214 14.4347 21.6214C14.7395 21.6214 15.0225 21.6758 15.2511 21.7629V22.2637C14.979 22.1657 14.7177 22.1331 14.4782 22.1331C14.1625 22.1331 14.0536 22.2201 14.0536 22.4161C14.0536 22.5794 14.1299 22.6229 14.3367 22.6665L14.7504 22.7535C15.2294 22.8624 15.3709 23.0148 15.3709 23.472C15.3709 24.0272 15.0334 24.2667 14.3476 24.2667C14.021 24.2776 13.738 24.2232 13.4658 24.1252ZM11.2668 21.6649H13.063V22.1548H11.9091V22.6883H12.8671V23.1672H11.9091V23.7333H13.0848V24.2232H11.2668V21.6649ZM9.65565 23.7442C10.0258 23.7442 10.1564 23.5482 10.1564 22.9495C10.1564 22.3508 10.0367 22.1657 9.65565 22.1657H9.16578V23.7442H9.65565ZM8.53436 21.6649H9.67747C10.5701 21.6649 10.8096 22.035 10.8096 22.9386C10.8096 23.8204 10.5592 24.2232 9.67747 24.2232H8.53436V21.6649ZM8.00091 21.6649V24.2232H7.22803L6.13941 22.3726V24.2232H5.54072V21.6649H6.31359L7.40221 23.5156V21.6649H8.00091ZM2.7865 23.3958V21.665H3.42883V23.3741C3.42883 23.6571 3.55943 23.766 3.90779 23.766C4.25615 23.766 4.37589 23.6571 4.37589 23.3741V21.665H5.01817V23.3959C5.01817 23.9946 4.66986 24.2777 3.90779 24.2777C3.14572 24.2777 2.7865 23.9945 2.7865 23.3958ZM1.74142 23.472C1.74142 23.2325 1.64344 23.1346 1.42573 23.1346H0.848749V23.7986H1.42573C1.66521 23.7986 1.74142 23.7006 1.74142 23.472ZM0.859657 22.7318H1.39306C1.61077 22.7318 1.70874 22.6338 1.70874 22.4161C1.70874 22.1875 1.62168 22.0895 1.39306 22.0895H0.859607L0.859657 22.7318ZM2.36188 23.5265C2.36188 23.9837 2.15508 24.2232 1.5781 24.2232H0.25V21.6649H1.5237C2.1224 21.6649 2.32926 21.9044 2.32926 22.329C2.32926 22.6665 2.20952 22.808 1.85025 22.8951L1.785 22.9169L1.83939 22.9277C2.24219 23.0257 2.36188 23.1672 2.36188 23.5265Z" fill="#171717"/>
</g>
<defs>
<clipPath id="clip0_21079_292277">
<rect width="24" height="24" fill="white" transform="translate(0.25 0.25)"/>
</clipPath>
</defs>
</svg>
