<svg width="25" height="25" viewBox="0 0 25 25" fill="none" xmlns="http://www.w3.org/2000/svg">
<g clip-path="url(#clip0_21079_292267)">
<path d="M0.131836 19.389H24.0314V0.275936H0.131836V19.389Z" fill="#D10214"/>
<path d="M21.3743 7.0619C20.6421 7.0619 20.041 7.6629 20.041 8.38415C20.041 9.11635 20.6421 9.7174 21.3743 9.7174C22.1064 9.7174 22.6966 9.11635 22.6966 8.38415C22.6966 7.6629 22.1064 7.0619 21.3743 7.0619ZM19.8334 10.3403C19.8443 10.384 19.8006 10.4168 19.7132 10.4823L19.6586 10.5152L19.6804 10.5479C19.6914 10.5698 19.6695 10.6025 19.6367 10.6244L19.5602 10.6681C19.5274 10.69 19.4837 10.6791 19.4728 10.6572L19.4509 10.6244L19.3526 10.6791L19.3744 10.7119C19.3854 10.7337 19.3635 10.7665 19.3307 10.7884L19.2542 10.8321C19.2105 10.8539 19.1777 10.843 19.1668 10.8211L19.1559 10.7884C18.8499 10.9304 18.5111 11.0834 18.1505 11.2474L18.1724 11.291C18.1833 11.3129 18.1614 11.3456 18.1286 11.3675L18.0521 11.4003C18.0194 11.4222 17.9756 11.4113 17.9647 11.3894L17.9429 11.3457L17.8227 11.4003L17.8445 11.444C17.8554 11.4658 17.8336 11.4987 17.8008 11.5205L17.7243 11.5533C17.6915 11.5752 17.6478 11.5642 17.6369 11.5424L17.615 11.4987C17.4511 11.5642 17.2763 11.5861 17.156 11.3566C17.1014 11.2473 17.1014 10.996 17.0577 10.8539C17.0358 10.7774 16.9484 10.7665 16.9484 10.7665C15.3966 10.4715 14.8612 10.7993 13.8667 10.5589C13.5498 10.4824 13.3859 10.1873 12.9925 10.1873C12.151 10.1655 11.8997 10.1764 10.9817 10.1327C10.938 10.2638 10.938 10.2966 10.938 10.2966L7.72517 10.2747L8.21697 10.5152L8.38087 11.9358C8.38087 11.9358 8.24972 11.9795 8.21697 11.9795C8.24972 12.2636 8.28247 12.6461 8.29347 12.9849C8.30437 13.2909 8.32622 13.6187 8.32622 13.8263C8.32622 13.8918 8.32622 14.0449 8.23882 14.2088C8.18417 14.3181 8.07487 14.4055 7.99837 14.4711C7.96562 14.4929 7.84537 14.5804 7.70337 14.6569C7.55037 14.7443 7.38642 14.8317 7.29902 14.8754C7.30992 14.9191 7.33177 14.9519 7.34272 14.9847C5.38662 15.9245 2.97152 16.2524 2.18472 17.7495C2.09727 17.9243 1.76942 17.8369 1.76942 17.6402V17.3342H1.73662C1.71477 17.3342 1.69292 17.3014 1.69292 17.2577V17.1703C1.69292 17.1265 1.71477 17.0938 1.74757 17.0938H1.78037C1.79127 17.0064 1.81312 16.9189 1.83502 16.8424L1.80222 16.8315C1.78037 16.8206 1.76942 16.7878 1.78037 16.7441L1.81312 16.6567C1.83502 16.613 1.85687 16.5911 1.87872 16.6021L1.91147 16.6129C2.05357 16.2851 2.31582 16.1431 2.44697 15.8371L2.42512 15.8262C2.40327 15.8152 2.39232 15.7825 2.40327 15.7387L2.43602 15.6513C2.45787 15.6185 2.47977 15.5857 2.50162 15.5967L2.52347 15.6076C2.54532 15.5639 2.56717 15.5092 2.58902 15.4655L2.55622 15.4437C2.53437 15.4328 2.53437 15.389 2.55622 15.3563L2.59997 15.2798C2.62182 15.247 2.65462 15.2251 2.67647 15.247L2.68737 15.2579H2.69832C2.70922 15.2579 2.70922 15.2579 2.70922 15.247L2.75297 15.2032C2.88407 15.1049 3.03707 15.1158 3.16822 15.1923C3.28842 15.2688 3.76922 15.542 4.22822 15.1268C4.99322 14.4493 5.87837 13.5203 6.55587 13.4875C6.37012 13.0941 6.06412 12.2746 6.02042 11.9686L5.79092 11.9248C5.67072 11.6735 5.38662 10.5042 5.31012 9.62995C5.31012 9.62995 5.21177 8.69015 5.31012 8.3514C5.25547 8.34045 5.16802 8.4279 5.13527 8.4279C5.01502 8.1219 5.40847 5.5866 5.80187 4.8435L6.40287 4.6031C6.33737 4.59215 5.90022 4.5703 4.75277 4.48285C4.10802 5.05115 3.36492 5.6631 2.99337 5.99095C2.92782 6.03465 2.81852 6.39525 2.81852 6.39525C2.81852 6.39525 2.63272 6.5592 2.45787 6.69035C2.22837 6.85425 1.66017 6.98535 1.52902 6.7887C1.49622 6.74495 1.50717 6.7231 1.52902 6.69035C1.61642 6.6029 1.94427 6.439 2.06452 6.23135C1.88962 6.3188 1.68202 6.41715 1.51807 6.4062C1.45252 6.4062 1.41972 6.23135 1.50717 6.19855C1.74757 6.1002 1.94427 6.05655 2.08632 5.84885C2.22842 5.6631 2.39232 5.53195 2.61087 5.52105C2.61087 5.52105 3.68187 4.12225 4.30472 3.46655C4.47957 3.2808 4.79647 3.34635 4.79647 3.34635L4.85112 3.13875C4.85112 3.13875 7.00392 2.8874 8.00932 3.21525C7.98747 2.60325 8.26067 1.7946 9.21142 1.7946C9.70317 1.7946 10.4244 2.2317 10.5228 2.75625C10.5555 2.92015 10.4572 3.02945 10.4135 3.22615C10.3261 3.54305 10.4463 3.88185 10.4135 3.99115C10.3807 4.07855 10.2823 4.07855 10.1949 4.19875C10.0966 4.3299 9.99822 4.5703 9.99822 4.5703L9.86707 4.86535L9.18957 4.8107C8.94912 5.33525 8.43552 6.42805 8.26067 7.499C8.78517 7.5427 11.1784 7.8924 11.1784 7.8924L11.2331 8.0891C11.2331 8.0891 12.2385 8.2093 13.069 8.60275C13.2548 8.64645 13.7137 8.58085 14.0197 8.72295C14.0416 8.712 14.0962 8.65735 14.1071 8.64645C15.1781 8.9743 16.0742 9.54255 17.1123 9.7939C17.1123 9.7939 17.5932 9.9141 17.7571 9.9469C18.1396 10.0234 18.3909 10.0343 18.5876 10.0562C18.9264 10.078 19.1012 10.078 19.3526 10.089C19.5493 10.1108 19.7569 10.089 19.8334 10.3403Z" fill="white"/>
<path d="M22.7856 22.0004L22.414 23.1588H23.1571L22.7856 22.0004ZM23.2883 23.6287H22.2829L22.108 24.1642H21.4633L22.3813 21.5961H23.2008L24.1188 24.1642H23.474L23.2883 23.6287ZM21.1901 22.678V24.0768C20.9497 24.1642 20.6328 24.2079 20.3049 24.2079C19.4088 24.2079 18.9936 23.8145 18.9936 22.8747C18.9936 21.9458 19.4088 21.5415 20.3049 21.5415C20.6218 21.5415 20.9278 21.5961 21.1573 21.6835V22.1753C20.906 22.0879 20.6328 22.0441 20.3596 22.0441C19.8241 22.0441 19.6492 22.2627 19.6492 22.8747C19.6492 23.5085 19.8241 23.7162 20.3377 23.7162C20.4579 23.7162 20.5672 23.7052 20.6765 23.6943V23.1151H20.1956V22.6671L21.1901 22.678ZM17.8898 21.5961H18.5346V24.1642H17.8898V21.5961ZM15.7479 21.5961H16.3927V23.6724H17.4964V24.1642H15.7479V21.5961ZM13.3984 24.0658V23.5631C13.7044 23.6615 13.9885 23.7052 14.2617 23.7052C14.5568 23.7052 14.6879 23.6287 14.6879 23.432C14.6879 23.2572 14.6333 23.2134 14.3929 23.1588L13.9667 23.0714C13.5187 22.984 13.3766 22.7982 13.3766 22.3611C13.3766 21.7928 13.7044 21.5524 14.371 21.5524C14.677 21.5524 14.9611 21.607 15.1906 21.6944V22.1971C14.9174 22.0988 14.6551 22.066 14.4147 22.066C14.0978 22.066 13.9885 22.1534 13.9885 22.3501C13.9885 22.514 14.065 22.5578 14.2727 22.6015L14.6879 22.6889C15.1688 22.7982 15.3108 22.9512 15.3108 23.4101C15.3108 23.9675 14.9721 24.2079 14.2836 24.2079C13.9558 24.2188 13.6716 24.1642 13.3984 24.0658ZM11.1909 21.5961H12.9941V22.0879H11.8357V22.6234H12.7974V23.1042H11.8357V23.6724H13.0159V24.1642H11.1909V21.5961ZM9.57364 23.6833C9.94519 23.6833 10.0763 23.4866 10.0763 22.8856C10.0763 22.2846 9.95614 22.0988 9.57364 22.0988H9.08189V23.6833H9.57364ZM8.44804 21.5961H9.59554C10.4916 21.5961 10.732 21.9676 10.732 22.8747C10.732 23.7598 10.4806 24.1642 9.59554 24.1642H8.44804V21.5961ZM7.91254 21.5961V24.1642H7.13669L6.04389 22.3064V24.1642H5.44289V21.5961H6.21874L7.31154 23.4539V21.5961H7.91254ZM2.67809 23.3336V21.5961H3.32289V23.3118C3.32289 23.5959 3.45399 23.7052 3.80369 23.7052C4.15339 23.7052 4.27359 23.5959 4.27359 23.3118V21.5961H4.91834V23.3337C4.91834 23.9347 4.56869 24.2189 3.80369 24.2189C3.03869 24.2189 2.67809 23.9346 2.67809 23.3336ZM1.62899 23.4101C1.62899 23.1697 1.53064 23.0714 1.31209 23.0714H0.732886V23.738H1.31209C1.55249 23.738 1.62899 23.6396 1.62899 23.4101ZM0.743836 22.667H1.27929C1.49784 22.667 1.59619 22.5687 1.59619 22.3501C1.59619 22.1206 1.50879 22.0223 1.27929 22.0223H0.743786L0.743836 22.667ZM2.25184 23.4648C2.25184 23.9238 2.04424 24.1642 1.46504 24.1642H0.131836V21.5961H1.41044C2.01144 21.5961 2.21909 21.8365 2.21909 22.2627C2.21909 22.6015 2.09889 22.7435 1.73824 22.831L1.67274 22.8528L1.72734 22.8637C2.13169 22.9621 2.25184 23.1042 2.25184 23.4648Z" fill="#171717"/>
</g>
<defs>
<clipPath id="clip0_21079_292267">
<rect width="24" height="24" fill="white" transform="translate(0.107422 0.25)"/>
</clipPath>
</defs>
</svg>
