<svg width="25" height="25" viewBox="0 0 25 25" fill="none" xmlns="http://www.w3.org/2000/svg">
<g clip-path="url(#clip0_21079_292352)">
<g clip-path="url(#clip1_21079_292352)">
<path d="M15.2093 5.01519V4.54019H13.1193V6.52019H13.6093V5.81519H15.0093V5.38519H13.6093V5.01519H15.2093ZM11.9743 8.02519V7.56519H9.8593V9.54019H12.0043V9.07019H10.3443V8.73519H11.7893V8.32019H10.3443V8.02519H11.9743ZM13.1193 9.53019H13.6093V8.84019H15.0093V8.40519H13.6093V8.04019H15.2093V7.56519H13.1193V9.53019ZM11.0743 5.45519H10.3443V5.00019H11.1043C11.3043 5.00019 11.3893 5.07019 11.3893 5.21019C11.3893 5.37019 11.3193 5.45519 11.0743 5.45519ZM11.4743 5.84519C11.7443 5.73019 11.9043 5.51519 11.9043 5.21019C11.9043 4.78019 11.6443 4.54019 11.1743 4.54019H9.8593V6.51519H10.3443V5.90019H10.9443L11.4443 6.51519H12.0343L11.4743 5.84519ZM16.5493 3.42519V2.72519C13.9693 1.73019 11.1093 1.73019 8.5293 2.72519V3.42019C9.7993 2.88019 11.1593 2.59519 12.5393 2.60519C13.9193 2.60519 15.2793 2.88019 16.5493 3.42519Z" fill="#FF0B32"/>
<path d="M21.488 6.50486C21.413 6.81986 21.318 7.13486 21.203 7.43486C22.203 9.04486 22.728 10.8999 22.728 12.7999C22.728 18.4299 18.168 22.9999 12.538 22.9999C6.90799 22.9999 2.34799 18.4299 2.34799 12.7999C2.34299 10.9049 2.87299 9.04986 3.86799 7.43486C3.75299 7.12986 3.65799 6.82486 3.58299 6.50986C2.17299 8.41986 1.41299 10.7349 1.41799 13.1099C1.41799 19.2549 6.39799 24.2399 12.538 24.2399C18.678 24.2399 23.658 19.2549 23.658 13.1099C23.663 10.7349 22.898 8.41986 21.488 6.50486Z" fill="#FF0B32"/>
<path d="M18.4451 8.415V0.77H19.9651L19.9851 5.685C19.9851 7.67 19.2351 8.675 18.3401 9.38C18.4101 9.06 18.4451 8.735 18.4451 8.415ZM12.8951 12.475V16.425C12.8951 18.48 14.1351 21.035 16.6901 21.365C17.0301 21.2 17.3551 21 17.6751 20.79C16.5151 20.875 13.9351 19.545 13.9351 15.95V13.12C15.9601 12.735 17.5151 11.66 18.1551 10.005C20.5451 8.78 21.0751 6.325 21.0751 4.785V0.25H17.3001V8.18C17.3001 10.69 15.2851 12.3 12.8951 12.475ZM6.72512 9.38C5.83012 8.67 5.08012 7.67 5.08012 5.685L5.10012 0.77H6.62012V8.42C6.62512 8.745 6.65512 9.07 6.72512 9.38ZM7.76512 8.18V0.25H3.99512V4.79C3.99512 6.325 4.52512 8.785 6.91512 10.01C7.55512 11.66 9.11012 12.74 11.1351 13.125V15.955C11.1351 19.55 8.56012 20.875 7.39512 20.795C7.71012 21.005 8.04012 21.195 8.38012 21.37C10.9401 21.04 12.1751 18.48 12.1751 16.43V12.48C9.78512 12.3 7.76512 10.69 7.76512 8.18Z" fill="#FF0B32"/>
</g>
</g>
<defs>
<clipPath id="clip0_21079_292352">
<rect width="24" height="24" fill="white" transform="translate(0.536133 0.25)"/>
</clipPath>
<clipPath id="clip1_21079_292352">
<rect width="24" height="24" fill="white" transform="translate(0.536133 0.25)"/>
</clipPath>
</defs>
</svg>
