<svg width="25" height="25" viewBox="0 0 25 25" fill="none" xmlns="http://www.w3.org/2000/svg">
<path d="M12.748 7.41621C13.166 5.21444 14.0788 2.91163 14.8104 1.08612L12.748 0.25L10.6855 1.08612C11.4171 2.90467 12.3299 5.21444 12.748 7.41621Z" fill="#F4D225"/>
<path d="M10.3687 18.7038C11.4521 16.4323 10.1561 15.6241 9.11449 14.3699C7.47013 12.4503 8.3794 11.2902 8.79746 10.036C8.96817 9.47514 9.04481 9.02224 8.69294 8.08161C8.09721 6.54525 6.20898 2.91163 6.20898 2.91163L9.14236 1.72365C10.5428 4.80334 11.3441 6.89363 11.5915 8.01194C12.0444 10.0082 10.191 11.433 11.6263 13.1819C12.3928 14.0947 13.2324 15.4534 12.3928 17.0977C11.9782 17.9687 10.3687 18.7038 10.3687 18.7038Z" fill="#2EA836"/>
<path d="M15.1207 18.7038C14.0372 16.4323 15.3332 15.6241 16.3749 14.3699C18.0192 12.4503 17.11 11.2902 16.6919 10.036C16.556 9.47514 16.4794 9.02224 16.8278 8.08161C17.4235 6.54525 19.3117 2.91163 19.3117 2.91163L16.3784 1.72365C14.9779 4.80334 14.1766 6.89363 13.9292 8.01194C13.4763 10.0082 15.3297 11.433 13.8944 13.1819C13.128 14.0947 12.2884 15.4534 13.128 17.0977C13.5147 17.9687 15.1207 18.7038 15.1207 18.7038Z" fill="#D90F23"/>
<path d="M2.83712 23.6821C2.79532 23.5602 2.77441 23.3512 2.77441 23.0585C2.77441 22.7659 2.79532 22.5569 2.83712 22.4349C2.89635 22.2503 2.99389 22.1075 3.13325 22.0134C3.2726 21.9158 3.43982 21.8671 3.6384 21.8671C3.82304 21.8671 3.97981 21.9089 4.11568 21.996C4.25155 22.0831 4.35258 22.205 4.41877 22.3618C4.42574 22.3827 4.41877 22.3966 4.40136 22.4036L4.1122 22.5429C4.0913 22.5534 4.07736 22.5499 4.06691 22.5255C3.97633 22.3269 3.83349 22.2259 3.63492 22.2259C3.42937 22.2259 3.29002 22.3269 3.22034 22.5325C3.19247 22.6161 3.17854 22.7938 3.17854 23.0585C3.17854 23.3233 3.19247 23.501 3.22034 23.5846C3.29002 23.7867 3.42937 23.8912 3.63492 23.8912C3.83001 23.8912 3.97633 23.7936 4.06691 23.5916C4.07388 23.5672 4.0913 23.5637 4.1122 23.5741L4.40136 23.7135C4.41877 23.7205 4.42574 23.7344 4.41877 23.7553C4.35258 23.9121 4.24807 24.034 4.11568 24.1211C3.97981 24.2082 3.82304 24.25 3.6384 24.25C3.43982 24.25 3.2726 24.2012 3.13325 24.1037C2.99738 24.0061 2.89635 23.8668 2.83712 23.6821Z" fill="#002D72"/>
<path d="M5.60644 24.2465C5.40438 24.2465 5.23367 24.1977 5.09083 24.1037C4.948 24.0096 4.85045 23.8703 4.79122 23.6891C4.74942 23.5672 4.72852 23.3547 4.72852 23.0551C4.72852 22.7554 4.74942 22.5429 4.79122 22.421C4.85045 22.2398 4.95148 22.104 5.09083 22.0064C5.23367 21.9124 5.40438 21.8636 5.60644 21.8636C5.8085 21.8636 5.98269 21.9124 6.12553 22.0064C6.26836 22.1005 6.36591 22.2398 6.42513 22.421C6.46694 22.5429 6.48784 22.7554 6.48784 23.0551C6.48784 23.3547 6.46694 23.5672 6.42513 23.6891C6.36591 23.8703 6.26488 24.0061 6.12553 24.1037C5.98269 24.2012 5.8085 24.2465 5.60644 24.2465ZM5.60644 23.8877C5.82243 23.8877 5.96875 23.7867 6.03843 23.5846C6.0663 23.501 6.08024 23.3233 6.08024 23.0551C6.08024 22.7868 6.0663 22.6126 6.03843 22.5255C5.96875 22.3235 5.82592 22.2224 5.60644 22.2224C5.39044 22.2224 5.2476 22.3235 5.17793 22.5255C5.15006 22.6126 5.13612 22.7868 5.13612 23.0551C5.13612 23.3233 5.15006 23.501 5.17793 23.5846C5.2476 23.7867 5.39044 23.8877 5.60644 23.8877Z" fill="#002D72"/>
<path d="M7.29311 24.2082H6.95867C6.93428 24.2082 6.92383 24.1977 6.92383 24.1734V21.9333C6.92383 21.9089 6.93428 21.8984 6.95867 21.8984H7.82614C8.0491 21.8984 8.23374 21.9646 8.37309 22.097C8.51593 22.2294 8.58561 22.4036 8.58561 22.6161C8.58561 22.8321 8.51593 23.0063 8.37309 23.1352C8.23026 23.2676 8.0491 23.3338 7.82614 23.3338H7.34537C7.33143 23.3338 7.32447 23.3407 7.32447 23.3547V24.1734C7.32447 24.1977 7.3175 24.2082 7.29311 24.2082ZM7.80175 22.9749C7.9202 22.9749 8.01426 22.9436 8.08045 22.8774C8.14665 22.8112 8.18497 22.7276 8.18497 22.6161C8.18497 22.5116 8.15013 22.4245 8.08045 22.3583C8.01078 22.2921 7.91672 22.2607 7.80175 22.2607H7.34537C7.33143 22.2607 7.32447 22.2677 7.32447 22.2816V22.954C7.32447 22.968 7.33143 22.9749 7.34537 22.9749H7.80175Z" fill="#002D72"/>
<path d="M9.32436 24.2082H8.98992C8.96553 24.2082 8.95508 24.1977 8.95508 24.1734V21.9333C8.95508 21.9089 8.96553 21.8984 8.98992 21.8984H9.8539C10.0769 21.8984 10.2615 21.9646 10.4009 22.097C10.5437 22.2294 10.6134 22.4036 10.6134 22.6161C10.6134 22.8321 10.5437 23.0063 10.4009 23.1352C10.258 23.2676 10.0769 23.3338 9.8539 23.3338H9.37314C9.3592 23.3338 9.35223 23.3407 9.35223 23.3547V24.1734C9.35572 24.1977 9.34527 24.2082 9.32436 24.2082ZM9.833 22.9749C9.95145 22.9749 10.0455 22.9436 10.1117 22.8774C10.1779 22.8112 10.2162 22.7276 10.2162 22.6161C10.2162 22.5116 10.1814 22.4245 10.1117 22.3583C10.042 22.2921 9.94797 22.2607 9.833 22.2607H9.37662C9.36268 22.2607 9.35572 22.2677 9.35572 22.2816V22.954C9.35572 22.968 9.36268 22.9749 9.37662 22.9749H9.833Z" fill="#002D72"/>
<path d="M10.5637 24.1768L11.3546 21.9368C11.3615 21.9124 11.3755 21.9019 11.3999 21.9019H11.7134C11.7378 21.9019 11.7517 21.9124 11.7587 21.9368L12.5391 24.1768C12.546 24.2012 12.5391 24.2117 12.5147 24.2117H12.1802C12.1558 24.2117 12.1419 24.2012 12.1349 24.1768L11.9817 23.7309H11.1107L10.9574 24.1768C10.9504 24.2012 10.9365 24.2117 10.9121 24.2117H10.5812C10.5672 24.2082 10.5568 24.1977 10.5637 24.1768ZM11.2361 23.3721H11.8597L11.5531 22.4767H11.5427L11.2361 23.3721Z" fill="#002D72"/>
<path d="M13.6543 24.1768V21.9368C13.6543 21.9124 13.6647 21.9019 13.6891 21.9019H14.0236C14.048 21.9019 14.0584 21.9124 14.0584 21.9368V24.1768C14.0584 24.2012 14.048 24.2117 14.0236 24.2117H13.6891C13.6647 24.2082 13.6543 24.1977 13.6543 24.1768Z" fill="#002D72"/>
<path d="M15.4105 24.2082H15.0761C15.0517 24.2082 15.0413 24.1977 15.0413 24.1734V22.2782C15.0413 22.2642 15.0343 22.2573 15.0204 22.2573H14.4177C14.3933 22.2573 14.3828 22.2468 14.3828 22.2224V21.9298C14.3828 21.9054 14.3933 21.8949 14.4177 21.8949H16.069C16.0934 21.8949 16.1038 21.9054 16.1038 21.9298V22.2224C16.1038 22.2468 16.0934 22.2573 16.069 22.2573H15.4663C15.4523 22.2573 15.4454 22.2642 15.4454 22.2782V24.1734C15.4419 24.1977 15.4314 24.2082 15.4105 24.2082Z" fill="#002D72"/>
<path d="M16.0335 24.1768L16.8243 21.9368C16.8313 21.9124 16.8452 21.9019 16.8696 21.9019H17.1831C17.2075 21.9019 17.2214 21.9124 17.2284 21.9368L18.0088 24.1768C18.0158 24.2012 18.0088 24.2117 17.9844 24.2117H17.65C17.6256 24.2117 17.6116 24.2012 17.6047 24.1768L17.4514 23.7309H16.5804L16.4271 24.1768C16.4202 24.2012 16.4062 24.2117 16.3818 24.2117H16.0509C16.037 24.2082 16.0265 24.1977 16.0335 24.1768ZM16.7058 23.3721H17.3294L17.0229 22.4767H17.0124L16.7058 23.3721Z" fill="#002D72"/>
<path d="M18.3223 24.1768V21.9368C18.3223 21.9124 18.3327 21.9019 18.3571 21.9019H18.6916C18.7159 21.9019 18.7264 21.9124 18.7264 21.9368V23.8319C18.7264 23.8459 18.7334 23.8528 18.7473 23.8528H19.8064C19.8308 23.8528 19.8412 23.8633 19.8412 23.8877V24.1803C19.8412 24.2047 19.8308 24.2152 19.8064 24.2152H18.3606C18.3327 24.2082 18.3223 24.1977 18.3223 24.1768Z" fill="#002D72"/>
<path d="M20.1729 24.1768V21.9368C20.1729 21.9124 20.1833 21.9019 20.2077 21.9019H20.5421C20.5665 21.9019 20.577 21.9124 20.577 21.9368V24.1768C20.577 24.2012 20.5665 24.2117 20.5421 24.2117H20.2077C20.1833 24.2082 20.1729 24.1977 20.1729 24.1768Z" fill="#002D72"/>
<path d="M20.8904 24.1768L21.6812 21.9368C21.6882 21.9124 21.7021 21.9019 21.7265 21.9019H22.04C22.0644 21.9019 22.0783 21.9124 22.0853 21.9368L22.8657 24.1768C22.8727 24.2012 22.8657 24.2117 22.8413 24.2117H22.5069C22.4825 24.2117 22.4685 24.2012 22.4616 24.1768L22.3083 23.7309H21.4373L21.284 24.1768C21.2771 24.2012 21.2631 24.2117 21.2387 24.2117H20.9078C20.8904 24.2082 20.8834 24.1977 20.8904 24.1768ZM21.5593 23.3721H22.1829L21.8763 22.4767H21.8658L21.5593 23.3721Z" fill="#002D72"/>
</svg>
