<svg width="24" height="24" viewBox="0 0 24 24" fill="none" xmlns="http://www.w3.org/2000/svg">
<g clip-path="url(#clip0_21079_292396)">
<path d="M4.63965 17.805V0H19.3596V17.805C19.3446 17.82 19.3246 17.82 19.3046 17.82H4.76465C4.72465 17.82 4.67965 17.83 4.63965 17.805Z" fill="#FEFEFE"/>
<path d="M19.3596 17.815V24H4.63965V17.815C4.65965 17.805 4.68465 17.81 4.70465 17.81H19.2946C19.3146 17.81 19.3396 17.805 19.3596 17.815Z" fill="#CC1127"/>
<path d="M19.3596 17.815H4.63965V17.805C4.66465 17.805 4.68965 17.8 4.71965 17.8H19.2746C19.3046 17.8 19.3296 17.8 19.3596 17.805V17.815Z" fill="#C41D20"/>
<path d="M6.9898 15.255C7.0048 15.12 7.0048 14.985 7.0398 14.855C7.1148 14.59 7.3398 14.455 7.6298 14.475C7.9298 14.5 8.1148 14.67 8.1398 14.975C8.1548 15.17 8.1598 15.375 8.1348 15.57C8.0898 15.93 7.8048 16.075 7.4848 16.03C7.1948 15.99 7.0298 15.805 7.0098 15.495C7.0048 15.415 7.0098 15.335 7.0098 15.255C6.9998 15.26 6.9948 15.26 6.9898 15.255ZM16.9148 16.02C16.9248 15.985 16.9298 15.955 16.9398 15.93C17.0998 15.475 17.2598 15.025 17.4198 14.57C17.4348 14.525 17.4598 14.505 17.5098 14.505C17.6948 14.51 17.6948 14.505 17.7548 14.68C17.8998 15.1 18.0498 15.52 18.1948 15.945C18.2048 15.965 18.2098 15.99 18.2198 16.02H17.9798C17.9648 16.02 17.9498 15.995 17.9398 15.975C17.9148 15.9 17.8898 15.83 17.8648 15.755C17.8548 15.725 17.8398 15.705 17.8048 15.71C17.6448 15.715 17.4848 15.71 17.3298 15.71C17.2948 15.71 17.2798 15.72 17.2698 15.75C17.2448 15.825 17.2148 15.9 17.1948 15.98C17.1848 16.015 17.1648 16.03 17.1298 16.025C17.0598 16.015 16.9898 16.02 16.9148 16.02ZM10.6148 16.02C10.6398 15.94 10.6648 15.875 10.6848 15.805L11.1198 14.575C11.1398 14.525 11.1598 14.49 11.2198 14.505C11.2348 14.51 11.2548 14.505 11.2748 14.505C11.4248 14.505 11.3898 14.485 11.4348 14.62C11.5898 15.065 11.7448 15.51 11.8998 15.96C11.9048 15.975 11.9098 15.995 11.9148 16.02H11.6748C11.6598 16.02 11.6448 15.995 11.6398 15.98C11.6098 15.905 11.5848 15.83 11.5598 15.755C11.5498 15.72 11.5348 15.705 11.4998 15.71H11.0248C10.9898 15.71 10.9748 15.72 10.9648 15.755C10.9398 15.835 10.9148 15.91 10.8848 15.99C10.8798 16.005 10.8548 16.025 10.8348 16.03C10.7698 16.02 10.6998 16.02 10.6148 16.02ZM8.3798 16.02V14.515C8.3848 14.51 8.3848 14.51 8.3898 14.51C8.6148 14.51 8.8348 14.5 9.0598 14.515C9.3048 14.53 9.4798 14.75 9.4698 14.99C9.4548 15.26 9.2698 15.445 8.9998 15.445H8.6998C8.6548 15.445 8.6398 15.46 8.6398 15.505V15.97C8.6398 16.01 8.6298 16.025 8.5898 16.02C8.5198 16.015 8.4498 16.02 8.3798 16.02ZM15.2398 16.02H15.0048C14.9898 16.02 14.9698 15.995 14.9648 15.98C14.9298 15.89 14.9048 15.805 14.8698 15.71H14.3298C14.3148 15.71 14.2948 15.735 14.2898 15.75C14.2648 15.825 14.2348 15.895 14.2148 15.97C14.2048 16.005 14.1848 16.02 14.1498 16.02C14.0848 16.015 14.0198 16.02 13.9448 16.02C13.9498 15.995 13.9548 15.975 13.9598 15.96C14.1248 15.495 14.2898 15.03 14.4498 14.57C14.4648 14.52 14.4898 14.505 14.5398 14.51C14.7248 14.515 14.7248 14.51 14.7848 14.685C14.9298 15.11 15.0798 15.53 15.2248 15.955C15.2198 15.965 15.2298 15.985 15.2398 16.02ZM9.6398 14.51C9.6498 14.51 9.6598 14.505 9.6648 14.505C9.8748 14.505 10.0848 14.495 10.2898 14.51C10.7348 14.55 10.8048 15.01 10.6398 15.25C10.5448 15.39 10.4048 15.445 10.2398 15.445H9.9498C9.9098 15.445 9.8948 15.455 9.8948 15.5V15.965C9.8948 16.005 9.8848 16.025 9.8398 16.02C9.7848 16.015 9.7248 16.02 9.6698 16.02C9.6398 16.02 9.6248 16.01 9.6248 15.98V14.525C9.6348 14.52 9.6398 14.52 9.6398 14.51ZM6.0548 15.265C6.0598 15.365 6.0648 15.46 6.0748 15.555C6.0948 15.695 6.1798 15.78 6.2998 15.8C6.4348 15.82 6.5498 15.77 6.6148 15.645C6.6398 15.595 6.6598 15.59 6.7048 15.62C6.7398 15.64 6.7798 15.66 6.8198 15.675C6.8698 15.695 6.8698 15.725 6.8448 15.765C6.7348 15.97 6.5098 16.075 6.2698 16.045C5.9698 16.005 5.8248 15.8 5.7948 15.55C5.7698 15.34 5.7648 15.13 5.8048 14.92C5.8548 14.68 6.0148 14.525 6.2398 14.495C6.5098 14.46 6.7248 14.56 6.8398 14.765C6.8648 14.815 6.8648 14.845 6.8048 14.86C6.7998 14.86 6.7998 14.865 6.7948 14.865C6.7498 14.885 6.6998 14.93 6.6548 14.925C6.6198 14.92 6.5948 14.855 6.5648 14.82C6.4798 14.73 6.3798 14.705 6.2648 14.735C6.1498 14.765 6.0898 14.85 6.0748 14.96C6.0598 15.06 6.0598 15.165 6.0548 15.265ZM13.3998 15.38C13.3998 15.19 13.3948 15 13.3998 14.815C13.3998 14.755 13.3798 14.74 13.3248 14.745C13.2248 14.75 13.1198 14.745 13.0198 14.745C12.9798 14.745 12.9648 14.73 12.9698 14.69C12.9748 14.645 12.9748 14.6 12.9698 14.56C12.9648 14.515 12.9848 14.505 13.0248 14.505H14.0448C14.0848 14.505 14.1048 14.52 14.0998 14.56C14.0948 14.62 14.1148 14.695 14.0848 14.725C14.0548 14.755 13.9748 14.74 13.9198 14.74C13.8548 14.74 13.7898 14.745 13.7248 14.74C13.6798 14.74 13.6648 14.755 13.6648 14.8V15.94C13.6648 16.015 13.6648 16.015 13.5848 16.015C13.5398 16.015 13.4948 16.01 13.4498 16.015C13.4048 16.02 13.3948 16 13.3948 15.96C13.3998 15.77 13.3998 15.575 13.3998 15.38ZM15.6348 15.78H16.3148C16.3548 15.78 16.3698 15.79 16.3698 15.83C16.3798 16.02 16.3798 16.02 16.1898 16.02H15.4348C15.3848 16.02 15.3698 16.01 15.3698 15.955V14.57C15.3698 14.515 15.3898 14.5 15.4398 14.505C15.5048 14.51 15.5698 14.505 15.6348 14.505V15.78ZM16.5148 15.26V14.57C16.5148 14.525 16.5248 14.505 16.5748 14.51C16.6248 14.515 16.6798 14.51 16.7298 14.51C16.7648 14.51 16.7798 14.52 16.7798 14.56V15.98C16.7798 16.02 16.7648 16.03 16.7298 16.025C16.6748 16.025 16.6198 16.02 16.5648 16.025C16.5198 16.025 16.5098 16.01 16.5098 15.97C16.5148 15.725 16.5148 15.495 16.5148 15.26ZM12.5598 14.51H12.8198V15.955C12.8198 16.005 12.8098 16.03 12.7548 16.025C12.7048 16.02 12.6498 16.025 12.5998 16.02C12.5848 16.02 12.5598 15.995 12.5548 15.98V14.53C12.5548 14.52 12.5598 14.52 12.5598 14.51Z" fill="#1D1859"/>
<path d="M8.27562 21.03H8.00563C7.99063 20.925 7.97563 20.82 7.95563 20.71C7.91563 20.71 7.87063 20.705 7.83063 20.71C7.81063 20.715 7.78562 20.73 7.77562 20.745C7.73562 20.825 7.70063 20.91 7.65563 20.995C7.64563 21.01 7.62063 21.03 7.60563 21.03C7.53563 21.035 7.47063 21.03 7.39062 21.03C7.41063 20.98 7.43062 20.94 7.45062 20.895C7.55562 20.66 7.66562 20.425 7.77562 20.19C7.78562 20.17 7.80562 20.145 7.82062 20.145C8.00062 20.145 8.18063 20.14 8.35563 20.15C8.51063 20.16 8.56063 20.25 8.50563 20.395C8.46063 20.515 8.38063 20.61 8.25563 20.655C8.21563 20.67 8.22062 20.695 8.22562 20.725C8.24562 20.83 8.26062 20.93 8.27562 21.03ZM13.0106 21.02C13.0056 21.025 13.0056 21.03 13.0006 21.03C12.9156 21.05 12.8306 21.055 12.7506 21.025V21.02C12.7506 21.01 12.7506 21 12.7606 20.995C12.7856 20.895 12.8356 20.805 12.8806 20.715C12.9106 20.665 12.9156 20.6 12.9606 20.56C12.9656 20.56 12.9656 20.555 12.9656 20.55C12.9656 20.535 12.9656 20.52 12.9806 20.51C12.9906 20.435 13.0306 20.37 13.0656 20.305C13.0856 20.27 13.1006 20.235 13.1156 20.195C13.1306 20.155 13.1506 20.135 13.2006 20.135C13.3706 20.14 13.5456 20.125 13.7156 20.14C13.9006 20.16 13.9206 20.25 13.8706 20.415C13.8606 20.455 13.8306 20.495 13.7956 20.525C13.7956 20.545 13.7756 20.555 13.7606 20.565C13.7506 20.57 13.7506 20.595 13.7306 20.59C13.7106 20.64 13.6606 20.64 13.6206 20.655C13.5906 20.68 13.5906 20.715 13.6006 20.745C13.6206 20.815 13.6206 20.89 13.6406 20.965C13.6556 21.015 13.6406 21.03 13.5856 21.03H13.4106C13.3706 21.03 13.3556 21.01 13.3506 20.975C13.3406 20.91 13.3306 20.85 13.3256 20.785C13.3206 20.74 13.2956 20.71 13.2456 20.715C13.2106 20.715 13.1756 20.715 13.1456 20.725V20.73C13.1106 20.84 13.0656 20.935 13.0106 21.02ZM16.1156 20.67C16.0406 20.62 16.0356 20.55 16.0606 20.47C16.0806 20.42 16.1056 20.375 16.1306 20.325C16.1306 20.32 16.1356 20.31 16.1456 20.31C16.1506 20.29 16.1656 20.28 16.1806 20.27C16.2306 20.19 16.3156 20.16 16.4006 20.155C16.6206 20.13 16.8406 20.135 17.0706 20.15C17.0506 20.23 17.0156 20.29 16.9756 20.355C16.9556 20.375 16.9306 20.37 16.9056 20.37H16.4906C16.4456 20.37 16.4106 20.39 16.3756 20.415C16.3556 20.43 16.3456 20.45 16.3556 20.475C16.3656 20.495 16.3856 20.49 16.4006 20.49C16.5056 20.495 16.6106 20.485 16.7106 20.495C16.8256 20.5 16.8856 20.575 16.8656 20.69C16.8506 20.775 16.8156 20.85 16.7456 20.905C16.7106 20.99 16.6256 21 16.5506 21.03C16.5106 21.045 16.4706 21.05 16.4256 21.05H15.9156C15.8956 21.05 15.8706 21.055 15.8506 21.04C15.8456 21.035 15.8406 21.03 15.8406 21.025C15.8506 20.975 15.8706 20.925 15.8906 20.88C15.9056 20.845 15.9356 20.825 15.9756 20.825H16.3956C16.4456 20.825 16.4906 20.805 16.5306 20.78C16.5456 20.77 16.5606 20.755 16.5556 20.735C16.5506 20.71 16.5306 20.71 16.5156 20.71C16.4356 20.705 16.3506 20.705 16.2706 20.71C16.2306 20.71 16.1956 20.705 16.1556 20.695C16.1356 20.695 16.1256 20.685 16.1156 20.67ZM14.8256 21.03V21.025C14.8356 20.97 14.8656 20.925 14.8806 20.875C14.8956 20.83 14.9306 20.815 14.9756 20.82C15.1106 20.83 15.2506 20.825 15.3856 20.825C15.4356 20.825 15.4856 20.815 15.5206 20.775C15.5306 20.765 15.5456 20.755 15.5456 20.735C15.5406 20.71 15.5206 20.71 15.5006 20.71C15.4306 20.705 15.3556 20.705 15.2856 20.71C15.2456 20.715 15.2006 20.715 15.1606 20.7C15.0606 20.67 15.0206 20.625 15.0306 20.52C15.0406 20.42 15.0756 20.33 15.1606 20.27C15.1706 20.24 15.1956 20.235 15.2206 20.22C15.2806 20.155 15.3656 20.14 15.4456 20.14H16.0156C16.0256 20.14 16.0306 20.14 16.0456 20.155C16.0256 20.215 16.0106 20.285 15.9656 20.345C15.9406 20.375 15.9056 20.37 15.8706 20.37C15.7406 20.36 15.6156 20.375 15.4856 20.37C15.4256 20.37 15.3706 20.39 15.3356 20.45C15.3606 20.48 15.3906 20.475 15.4156 20.475H15.6506C15.6856 20.475 15.7206 20.475 15.7506 20.49C15.8206 20.515 15.8556 20.565 15.8506 20.635C15.8356 20.79 15.7606 20.905 15.6206 20.98C15.5356 21.025 15.4456 21.04 15.3556 21.035H14.8906C14.8706 21.045 14.8456 21.055 14.8256 21.03ZM13.9656 21.01C13.9606 21.005 13.9556 21.005 13.9506 21C13.8756 20.96 13.8506 20.89 13.8556 20.815C13.8806 20.55 14.0056 20.34 14.2356 20.21C14.3806 20.125 14.5506 20.12 14.7156 20.145C14.7556 20.15 14.7906 20.155 14.8256 20.175C14.9206 20.225 14.9506 20.31 14.9406 20.405C14.9256 20.53 14.8756 20.64 14.8056 20.745C14.8006 20.755 14.7906 20.755 14.7806 20.765C14.7706 20.785 14.7606 20.8 14.7456 20.815C14.7356 20.845 14.7106 20.86 14.6906 20.88C14.6706 20.92 14.6306 20.94 14.5906 20.96C14.4556 21.055 14.3056 21.08 14.1456 21.065C14.1356 21.065 14.1256 21.06 14.1156 21.06C14.0656 21.055 14.0156 21.04 13.9656 21.01Z" fill="#FDF9F8"/>
<path d="M9.51 20.15V20.165C9.44 20.35 9.44 20.35 9.24 20.35H9.095C9 20.355 8.93 20.395 8.87 20.48H9.365C9.335 20.55 9.31 20.61 9.28 20.665C9.275 20.675 9.25 20.685 9.23 20.685C9.09 20.685 8.95 20.69 8.81 20.685C8.77 20.685 8.755 20.7 8.745 20.74C8.74 20.78 8.745 20.815 8.795 20.82C8.82 20.825 8.845 20.825 8.875 20.825H9.21C9.18 20.89 9.155 20.945 9.13 21.005C9.125 21.015 9.105 21.03 9.09 21.03C8.955 21.03 8.82 21.03 8.685 21.02C8.525 21.005 8.445 20.89 8.485 20.735C8.555 20.475 8.68 20.26 8.955 20.175C9.005 20.16 9.06 20.15 9.115 20.15H9.51ZM17.865 21.295C17.815 21.405 17.77 21.515 17.715 21.625C17.705 21.64 17.675 21.65 17.655 21.655H6.125C6.18 21.535 6.23 21.425 6.28 21.315C6.295 21.3 6.3 21.275 6.325 21.275C6.335 21.275 6.345 21.28 6.355 21.28C6.795 21.285 7.235 21.28 7.675 21.295C7.635 21.335 7.585 21.315 7.545 21.325C7.535 21.33 7.525 21.33 7.515 21.33C7.46 21.32 7.4 21.32 7.345 21.33H7.315C7.26 21.32 7.205 21.32 7.15 21.33H7.12C7.065 21.32 7.01 21.32 6.955 21.33H6.925C6.87 21.32 6.815 21.32 6.76 21.33H6.73C6.675 21.32 6.62 21.32 6.57 21.33H6.54C6.51 21.325 6.48 21.32 6.45 21.33C6.425 21.335 6.405 21.335 6.38 21.33C6.365 21.325 6.35 21.32 6.335 21.325C6.33 21.325 6.32 21.33 6.315 21.33C6.305 21.335 6.305 21.34 6.3 21.35C6.295 21.36 6.29 21.365 6.285 21.375C6.275 21.385 6.275 21.395 6.27 21.41C6.27 21.42 6.27 21.43 6.265 21.44C6.255 21.465 6.24 21.485 6.23 21.51C6.225 21.525 6.215 21.54 6.21 21.555C6.2 21.58 6.2 21.6 6.235 21.6H11.69C12.395 21.6 13.095 21.605 13.8 21.6C13.815 21.6 13.83 21.6 13.85 21.605H17.56C17.605 21.605 17.66 21.615 17.685 21.555C17.69 21.55 17.69 21.54 17.695 21.535C17.7 21.525 17.705 21.515 17.71 21.51C17.735 21.47 17.745 21.425 17.765 21.38C17.785 21.365 17.795 21.345 17.795 21.315C17.795 21.305 17.8 21.295 17.805 21.285C17.82 21.275 17.835 21.28 17.845 21.28C17.85 21.28 17.855 21.28 17.86 21.285C17.87 21.28 17.87 21.29 17.865 21.295Z" fill="#FCF7F7"/>
<path d="M11.5901 21.035L11.5801 21.025C11.5801 21.02 11.5851 21.015 11.5851 21.01C11.5901 21.01 11.5901 21.005 11.5901 21C11.6151 20.95 11.6601 20.91 11.7001 20.865C11.7751 20.78 11.8401 20.69 11.9301 20.625C11.9351 20.6 11.9551 20.585 11.9751 20.575C12.0251 20.495 12.0901 20.43 12.1601 20.37C12.1601 20.365 12.1651 20.36 12.1751 20.355C12.1801 20.33 12.2001 20.315 12.2201 20.305C12.2301 20.28 12.2501 20.265 12.2701 20.245C12.3001 20.175 12.3451 20.125 12.4351 20.135C12.4801 20.14 12.5251 20.135 12.5751 20.135C12.6201 20.135 12.6351 20.155 12.6401 20.195C12.6401 20.255 12.6401 20.315 12.6351 20.375C12.6201 20.565 12.6301 20.75 12.6301 20.94C12.6301 20.97 12.6351 21 12.6101 21.025C12.5301 21.05 12.4501 21.035 12.3701 21.035C12.3451 21.035 12.3401 21.005 12.3401 20.985C12.3401 20.955 12.3451 20.92 12.3451 20.89C12.3451 20.86 12.3351 20.84 12.3101 20.83H12.2601C12.2201 20.845 12.1751 20.845 12.1301 20.84C12.0601 20.83 12.0101 20.86 11.9701 20.91C11.9601 20.925 11.9451 20.935 11.9301 20.945C11.8951 21.025 11.8401 21.06 11.7501 21.05C11.6951 21.045 11.6401 21.055 11.5901 21.035ZM17.0751 21.02L17.0651 21.03C17.0351 21.055 17.0051 21.045 16.9751 21.045C16.9201 21.045 16.8601 21.055 16.8051 21.035C16.8001 21.03 16.7951 21.025 16.7951 21.02C16.8151 20.995 16.8201 20.96 16.8601 20.955C16.9151 20.87 16.9801 20.795 17.0601 20.735L17.0651 20.73C17.0601 20.71 17.0851 20.71 17.0951 20.7C17.1501 20.61 17.2251 20.54 17.3001 20.47C17.3101 20.45 17.3101 20.43 17.3401 20.425C17.3701 20.38 17.3951 20.335 17.4401 20.31C17.4451 20.305 17.4451 20.3 17.4501 20.295C17.4551 20.285 17.4651 20.28 17.4751 20.27C17.4851 20.255 17.4901 20.24 17.5001 20.225C17.5351 20.175 17.5751 20.135 17.6451 20.145C17.7051 20.155 17.7651 20.135 17.8201 20.155C17.8301 20.165 17.8301 20.175 17.8301 20.19V21C17.8301 21.01 17.8301 21.015 17.8251 21.025C17.8251 21.03 17.8201 21.03 17.8251 21.035C17.7351 21.06 17.6501 21.055 17.5601 21.035C17.5451 20.99 17.5551 20.94 17.5551 20.895C17.5551 20.86 17.5451 20.85 17.5101 20.855C17.4351 20.86 17.3601 20.875 17.2851 20.86C17.2451 20.85 17.2301 20.895 17.1951 20.9C17.1901 20.925 17.1701 20.94 17.1501 20.95C17.1251 20.98 17.1001 21 17.0751 21.02Z" fill="#FDF9F8"/>
<path d="M6.96508 20.49H7.48008C7.45008 20.555 7.42508 20.615 7.39508 20.675C7.39008 20.69 7.36008 20.695 7.34008 20.695C7.20008 20.695 7.06008 20.7 6.92008 20.695C6.87508 20.695 6.85508 20.71 6.84008 20.75C6.80008 20.845 6.75508 20.94 6.71008 21.035H6.45508C6.53008 20.875 6.60008 20.715 6.67508 20.56C6.70508 20.495 6.74008 20.43 6.78008 20.37C6.89008 20.21 7.06008 20.16 7.24008 20.155C7.37008 20.15 7.49508 20.155 7.63508 20.155C7.60508 20.22 7.58008 20.28 7.55008 20.335C7.54508 20.345 7.52008 20.35 7.50508 20.35H7.22008C7.12008 20.35 7.03508 20.395 6.96508 20.49ZM10.3801 20.345L10.3701 20.35C10.2801 20.36 10.1951 20.355 10.1051 20.355C10.0001 20.35 9.91508 20.385 9.85008 20.46C9.83508 20.475 9.82008 20.495 9.80008 20.505C9.79008 20.525 9.78508 20.55 9.76508 20.565C9.75008 20.62 9.72508 20.67 9.71008 20.725C9.69508 20.78 9.70508 20.805 9.76508 20.815C9.84008 20.83 9.91508 20.825 9.99508 20.83C10.0501 20.83 10.1001 20.82 10.1551 20.84V20.85C10.1451 20.905 10.1201 20.955 10.1001 21.005C10.0901 21.03 10.0701 21.05 10.0451 21.05C9.89008 21.05 9.73508 21.065 9.58008 21.025C9.56008 21.02 9.54508 21.015 9.53508 21C9.46008 20.975 9.42508 20.925 9.42008 20.845C9.41008 20.7 9.47508 20.575 9.54008 20.45C9.54508 20.435 9.56008 20.43 9.57008 20.425C9.57008 20.415 9.57508 20.415 9.58008 20.41C9.61008 20.345 9.65008 20.295 9.71508 20.27H9.72008C9.77008 20.195 9.85008 20.175 9.92508 20.16C10.0951 20.12 10.2751 20.14 10.4501 20.14C10.4551 20.14 10.4551 20.145 10.4601 20.145C10.4751 20.155 10.4801 20.175 10.4701 20.185C10.4351 20.24 10.4251 20.3 10.3801 20.345Z" fill="#FCF7F7"/>
<path d="M10.9604 21.035H10.9504C10.9304 21.05 10.9104 21.045 10.8854 21.045H10.6504C10.5604 21.05 10.4804 21.025 10.4004 20.99C10.3504 20.97 10.3204 20.925 10.3104 20.875C10.2904 20.79 10.3004 20.7 10.3504 20.62C10.3554 20.6 10.3554 20.58 10.3754 20.57C10.4154 20.455 10.4754 20.355 10.5854 20.285V20.28H10.5904C10.5954 20.26 10.6054 20.245 10.6204 20.24C10.7154 20.185 10.8104 20.135 10.9204 20.13C11.0504 20.13 11.1854 20.135 11.3154 20.125C11.3354 20.125 11.3504 20.125 11.3654 20.145C11.3454 20.2 11.3254 20.26 11.2904 20.31C11.2854 20.33 11.2754 20.345 11.2454 20.345C11.1504 20.335 11.0554 20.345 10.9654 20.34C10.9204 20.34 10.8854 20.365 10.8404 20.36H10.8354C10.8254 20.395 10.7904 20.385 10.7704 20.4C10.7604 20.435 10.7354 20.455 10.7154 20.48C10.6804 20.53 10.6554 20.59 10.6204 20.64C10.6154 20.64 10.6154 20.645 10.6154 20.65C10.6054 20.795 10.6104 20.8 10.7554 20.805H11.0204C11.0504 20.805 11.0704 20.815 11.0554 20.84C11.0254 20.92 11.0104 20.985 10.9604 21.035Z" fill="#FDF9F8"/>
<path d="M11.4849 20.9C11.4799 20.9 11.4799 20.905 11.4799 20.91C11.4749 20.92 11.4749 20.935 11.4749 20.945C11.4549 21.025 11.4299 21.045 11.3449 21.045H11.2149C11.1649 21.045 11.1449 21.03 11.1649 20.985C11.2099 20.88 11.2449 20.77 11.3149 20.675C11.3799 20.495 11.4599 20.32 11.5549 20.155C11.5599 20.15 11.5649 20.15 11.5649 20.145C11.6499 20.13 11.7299 20.115 11.8149 20.145C11.8149 20.15 11.8149 20.15 11.8199 20.155C11.7949 20.265 11.7349 20.365 11.6899 20.47C11.6849 20.48 11.6749 20.485 11.6699 20.49C11.6399 20.585 11.6049 20.675 11.5499 20.755C11.5399 20.79 11.5349 20.83 11.5049 20.855C11.4999 20.865 11.4999 20.87 11.4949 20.88C11.4949 20.885 11.4899 20.895 11.4849 20.9Z" fill="#FCF7F7"/>
<path d="M6.34516 21.28H6.32016C6.31016 21.285 6.30016 21.295 6.28516 21.29L6.31016 21.265C6.32016 21.26 6.32516 21.26 6.33516 21.265H10.2552C10.2902 21.25 10.3302 21.25 10.3652 21.265H12.5352C12.5502 21.255 12.5702 21.255 12.5852 21.265H12.8502C12.8752 21.245 12.9002 21.245 12.9252 21.265H17.8752C17.8752 21.265 17.8802 21.27 17.8752 21.27V21.275C17.8602 21.275 17.8452 21.275 17.8252 21.28C17.8152 21.29 17.8002 21.3 17.7852 21.305C17.7252 21.315 17.6602 21.295 17.6002 21.295H13.8702C13.5602 21.3 13.2502 21.3 12.9402 21.295C12.8602 21.29 12.7802 21.295 12.7002 21.295H10.4102C10.3302 21.295 10.2502 21.285 10.1702 21.3C10.1352 21.305 10.1002 21.305 10.0602 21.3C10.0252 21.285 9.98516 21.295 9.94516 21.29H7.93016C7.41516 21.27 6.89516 21.28 6.38016 21.28H6.34516Z" fill="#9F2023"/>
<path d="M14.8248 21.03C15.0498 21.025 15.2748 21.035 15.4998 21.02C15.6698 21.005 15.8048 20.86 15.8348 20.695C15.8598 20.58 15.8148 20.515 15.6948 20.505C15.5998 20.5 15.5048 20.505 15.4098 20.5C15.3748 20.5 15.3398 20.495 15.3048 20.49C15.3248 20.4 15.3748 20.36 15.4748 20.36H15.8948C15.9348 20.36 15.9548 20.355 15.9698 20.315C15.9898 20.265 16.0148 20.215 16.0448 20.14C15.7998 20.15 15.5698 20.16 15.3398 20.18C15.2998 20.185 15.2598 20.21 15.2198 20.23C15.2348 20.21 15.2448 20.185 15.2598 20.18C15.3348 20.15 15.4148 20.135 15.4998 20.14C15.6548 20.15 15.8098 20.145 15.9648 20.145C16.0748 20.145 16.0698 20.145 16.0298 20.245C16.0198 20.27 16.0148 20.295 16.0098 20.32C15.9998 20.385 15.9598 20.42 15.8998 20.43C15.8848 20.435 15.8598 20.435 15.8548 20.425C15.8248 20.37 15.7748 20.39 15.7348 20.39C15.7148 20.455 15.7298 20.47 15.7948 20.51C15.8398 20.535 15.8698 20.585 15.9048 20.625C15.9098 20.63 15.9098 20.65 15.9048 20.66C15.8698 20.695 15.8448 20.735 15.8848 20.785C15.8848 20.79 15.8798 20.8 15.8748 20.805C15.8248 20.855 15.7698 20.905 15.7198 20.955C15.7048 20.97 15.6898 20.99 15.6698 21.01C15.6198 21.02 15.5648 21.035 15.5048 21.045C15.4698 21.05 15.4298 21.065 15.3948 21.065H14.8748C14.8598 21.055 14.8448 21.04 14.8248 21.03ZM14.7848 20.755C14.8298 20.645 14.8898 20.54 14.9198 20.43C14.9598 20.285 14.8948 20.18 14.7498 20.155C14.4298 20.1 14.1448 20.18 13.9798 20.49C13.9348 20.575 13.8998 20.665 13.8798 20.76C13.8548 20.85 13.8798 20.935 13.9548 21C13.9148 20.98 13.8798 20.96 13.8398 20.945L13.8698 20.9C13.8548 20.895 13.8398 20.89 13.8298 20.88C13.8198 20.87 13.8098 20.85 13.8148 20.845C13.8648 20.79 13.8648 20.725 13.8598 20.66C13.8598 20.645 13.8598 20.625 13.8648 20.615C13.8998 20.555 13.8998 20.555 13.8848 20.51C13.8998 20.505 13.9298 20.505 13.9298 20.5C13.9248 20.43 14.0048 20.42 14.0298 20.37C14.0348 20.36 14.0448 20.355 14.0448 20.345C14.0548 20.27 14.1248 20.255 14.1748 20.225C14.2298 20.19 14.2898 20.155 14.3498 20.135C14.3948 20.12 14.4498 20.12 14.4998 20.12C14.5748 20.12 14.6498 20.125 14.7298 20.13H14.8448C14.8448 20.135 14.8398 20.14 14.8398 20.145C14.8598 20.155 14.8798 20.165 14.8998 20.18C14.9148 20.195 14.9298 20.215 14.9348 20.235C14.9398 20.255 14.9448 20.275 14.9448 20.295C14.9498 20.345 14.9498 20.395 14.9498 20.45C14.9498 20.485 14.9498 20.525 14.9448 20.56C14.9348 20.595 14.9148 20.625 14.8948 20.655C14.8748 20.685 14.8498 20.715 14.8298 20.745C14.8348 20.75 14.8348 20.755 14.8398 20.76C14.8198 20.755 14.8048 20.755 14.7848 20.755ZM17.0498 20.73C16.9848 20.805 16.9198 20.88 16.8498 20.95C16.8548 20.935 16.8598 20.915 16.8648 20.9V20.845C16.8448 20.85 16.8198 20.855 16.8048 20.86C16.7848 20.87 16.7648 20.885 16.7398 20.895C16.7748 20.83 16.8148 20.77 16.8398 20.705C16.8848 20.585 16.8298 20.51 16.7048 20.5C16.6048 20.495 16.5098 20.5 16.4098 20.495C16.3798 20.495 16.3548 20.49 16.3248 20.485C16.3398 20.395 16.3948 20.355 16.4948 20.355H16.9348C16.9498 20.355 16.9648 20.355 16.9748 20.35C16.9548 20.36 16.9398 20.375 16.9198 20.375H16.4798C16.4148 20.375 16.3748 20.415 16.3798 20.47L16.4048 20.445C16.4248 20.455 16.4398 20.47 16.4548 20.47C16.5498 20.47 16.6498 20.47 16.7448 20.46C16.8048 20.455 16.8198 20.51 16.8548 20.535C16.8648 20.54 16.8698 20.55 16.8798 20.555C16.8948 20.61 16.8998 20.67 16.9198 20.725C16.9348 20.765 16.9748 20.76 16.9948 20.73C17.0098 20.705 17.0298 20.715 17.0498 20.73Z" fill="#C8182F"/>
<path d="M15.1603 20.275C15.1253 20.34 15.0803 20.4 15.0503 20.465C15.0003 20.59 15.0553 20.675 15.1853 20.69C15.2803 20.7 15.3753 20.695 15.4703 20.695C15.5003 20.695 15.5303 20.7 15.5603 20.705C15.5503 20.79 15.5103 20.825 15.4153 20.825H14.9753C14.9353 20.825 14.9103 20.835 14.8953 20.875C14.8753 20.925 14.8503 20.97 14.8253 21.02C14.8353 20.98 14.8403 20.945 14.8503 20.905C14.8503 20.9 14.8553 20.895 14.8553 20.89C14.8653 20.81 14.8753 20.8 14.9603 20.8C15.0953 20.8 15.2303 20.81 15.3603 20.81C15.4053 20.81 15.4553 20.82 15.4803 20.76C15.4853 20.75 15.5103 20.75 15.5303 20.745C15.4653 20.7 15.3253 20.71 15.2653 20.75C15.2503 20.76 15.2253 20.755 15.2003 20.75C15.1653 20.75 15.1303 20.735 15.1003 20.74C15.0553 20.755 15.0403 20.745 15.0353 20.705C15.0303 20.63 15.0053 20.555 15.0153 20.485C15.0253 20.415 15.0753 20.35 15.1103 20.285C15.1203 20.28 15.1453 20.28 15.1603 20.275ZM12.6003 21.035C12.6003 21.015 12.6053 20.995 12.6053 20.975C12.6053 20.72 12.6053 20.465 12.6103 20.21C12.6103 20.16 12.5953 20.15 12.5453 20.145C12.4303 20.135 12.3303 20.145 12.2653 20.25C12.2603 20.175 12.3053 20.125 12.3803 20.125C12.4603 20.125 12.5353 20.13 12.6153 20.135C12.6303 20.135 12.6453 20.16 12.6503 20.175C12.6553 20.21 12.6503 20.25 12.6503 20.29C12.6453 20.515 12.6403 20.74 12.6403 20.965C12.6403 21 12.6453 21.03 12.6003 21.035ZM13.7953 20.535C13.8203 20.475 13.8553 20.415 13.8753 20.355C13.9003 20.26 13.8653 20.2 13.7703 20.175C13.7203 20.16 13.6703 20.155 13.6203 20.155H13.2053C13.1653 20.155 13.1453 20.17 13.1303 20.205C13.0853 20.31 13.0353 20.415 12.9853 20.52C12.9803 20.5 12.9803 20.485 12.9753 20.465C12.9603 20.415 12.9553 20.385 13.0153 20.355C13.0603 20.33 13.0803 20.255 13.1003 20.2C13.1153 20.155 13.1303 20.135 13.1903 20.14C13.3303 20.145 13.4753 20.145 13.6153 20.14C13.7053 20.14 13.7953 20.14 13.8703 20.205C13.8853 20.215 13.8953 20.235 13.8953 20.255C13.9003 20.305 13.9153 20.365 13.9003 20.41C13.8803 20.455 13.8303 20.495 13.7953 20.535ZM11.3153 20.675C11.2653 20.79 11.2153 20.91 11.1603 21.035H11.3953C11.4103 21.035 11.4253 21.02 11.4303 21.005C11.4503 20.975 11.4603 20.945 11.4753 20.915C11.5003 21.015 11.4653 21.065 11.3603 21.065H11.2303C11.1453 21.065 11.1203 21.03 11.1353 20.945C11.1403 20.92 11.1453 20.895 11.1453 20.87C11.2353 20.835 11.1953 20.735 11.2503 20.685C11.2703 20.68 11.2953 20.675 11.3153 20.675ZM11.2853 20.32C11.3053 20.265 11.3303 20.21 11.3553 20.145C11.1303 20.16 10.9103 20.105 10.7053 20.21C10.6603 20.23 10.6203 20.26 10.5803 20.29C10.5703 20.215 10.5953 20.185 10.6703 20.18C10.7003 20.18 10.7353 20.165 10.7653 20.155C10.8003 20.145 10.8353 20.13 10.8703 20.125C10.9903 20.12 11.1053 20.125 11.2253 20.125C11.2653 20.125 11.3053 20.115 11.3453 20.115C11.3603 20.115 11.3853 20.125 11.3903 20.135C11.3953 20.145 11.3803 20.165 11.3753 20.18C11.3553 20.22 11.3303 20.265 11.3103 20.305C11.3053 20.315 11.2953 20.32 11.2853 20.32ZM13.1403 20.735C13.1603 20.73 13.1853 20.715 13.2053 20.715C13.2403 20.71 13.2753 20.715 13.3103 20.715C13.3253 20.82 13.3453 20.925 13.3603 21.03H13.6253C13.6103 20.93 13.5953 20.835 13.5803 20.735C13.5753 20.705 13.5653 20.67 13.6153 20.67C13.5903 20.765 13.6203 20.855 13.6403 20.95C13.6453 20.98 13.6503 21.01 13.6603 21.055C13.5653 21.055 13.4753 21.06 13.3803 21.055C13.3453 21.055 13.3253 21.035 13.3253 20.985C13.3303 20.92 13.3203 20.855 13.3053 20.79C13.3003 20.775 13.2653 20.76 13.2403 20.755C13.2103 20.745 13.1753 20.745 13.1403 20.735ZM16.1153 20.67C16.2303 20.68 16.3503 20.69 16.4653 20.695C16.5003 20.7 16.5353 20.7 16.5703 20.705C16.5553 20.795 16.5153 20.825 16.4203 20.825H15.9803C15.9353 20.825 15.9153 20.84 15.9003 20.88C15.8803 20.93 15.8553 20.975 15.8353 21.02C15.8253 20.95 15.8353 20.885 15.8953 20.835C15.9103 20.825 15.9353 20.82 15.9553 20.815C16.0853 20.815 16.2153 20.81 16.3453 20.815C16.4253 20.82 16.4803 20.78 16.5453 20.73C16.5153 20.725 16.4853 20.715 16.4553 20.715C16.3503 20.71 16.2453 20.705 16.1453 20.7C16.1203 20.71 16.1003 20.705 16.1153 20.67ZM10.3503 20.625C10.3403 20.67 10.3253 20.715 10.3203 20.76C10.3003 20.88 10.3553 20.975 10.4753 21.005C10.5403 21.02 10.6153 21.025 10.6853 21.03C10.7753 21.035 10.8653 21.035 10.9553 21.035C10.9353 21.045 10.9203 21.055 10.9003 21.06H10.6553C10.6153 21.06 10.5803 21.075 10.5353 21.09C10.5103 21.035 10.4553 21.005 10.3803 21.02C10.3753 21.02 10.3703 21.02 10.3703 21.015C10.3453 21.005 10.2903 20.89 10.2953 20.865C10.3003 20.805 10.3003 20.745 10.3053 20.68C10.3103 20.67 10.3303 20.65 10.3503 20.625ZM9.53027 20.995C9.69527 21.055 9.87027 21.025 10.0403 21.03C10.0553 21.03 10.0753 21.01 10.0803 20.995C10.1053 20.945 10.1303 20.89 10.1553 20.84C10.1553 20.86 10.1603 20.88 10.1503 20.895C10.1203 20.965 10.1103 21.03 10.1953 21.08C10.1603 21.12 10.1303 21.105 10.1003 21.095C10.0653 21.08 10.0253 21.065 9.99027 21.065C9.87527 21.06 9.75527 21.07 9.64027 21.055C9.61027 21.045 9.53027 21.08 9.53027 20.995ZM16.9703 20.36C17.0003 20.295 17.0253 20.23 17.0603 20.145C16.8203 20.155 16.5853 20.165 16.3603 20.185C16.2953 20.19 16.2353 20.245 16.1753 20.28C16.1753 20.22 16.2303 20.2 16.2703 20.185C16.3403 20.16 16.4203 20.155 16.4953 20.145C16.5903 20.135 16.6853 20.135 16.7803 20.135C16.8753 20.135 16.9703 20.145 17.0653 20.145C17.1003 20.195 17.0603 20.225 17.0403 20.25C17.0153 20.285 17.0253 20.345 16.9703 20.36Z" fill="#C8182F"/>
<path d="M10.9597 21.035C10.9897 20.97 11.0197 20.905 11.0497 20.83H10.7047C10.5847 20.83 10.5547 20.775 10.6147 20.67C10.6197 20.68 10.6247 20.69 10.6247 20.7C10.6397 20.815 10.6397 20.815 10.7597 20.82C10.8347 20.825 10.9147 20.825 10.9897 20.82C11.0197 20.82 11.0447 20.79 11.0747 20.775C11.1247 20.875 11.0747 20.995 10.9597 21.035ZM15.8497 21.035C16.0247 21.035 16.1997 21.03 16.3747 21.035C16.5147 21.035 16.6397 21 16.7447 20.9C16.7497 20.95 16.7147 20.985 16.6647 21C16.6247 21.01 16.5897 21.035 16.5497 21.045C16.4947 21.055 16.4397 21.06 16.3847 21.06H15.9097C15.8897 21.055 15.8697 21.045 15.8497 21.035ZM11.5547 20.155C11.4747 20.33 11.3947 20.5 11.3147 20.675V20.58H11.3347C11.2847 20.495 11.2897 20.5 11.3697 20.44C11.4047 20.415 11.4247 20.37 11.4447 20.33C11.4747 20.275 11.4997 20.22 11.5297 20.17C11.5347 20.16 11.5447 20.16 11.5547 20.155ZM9.56473 20.42C9.51973 20.51 9.46973 20.595 9.43973 20.69C9.38973 20.83 9.41974 20.905 9.52974 20.995C9.50974 21.005 9.49473 21.015 9.47473 21.025C9.43973 20.99 9.38973 20.965 9.39973 20.9C9.40973 20.795 9.38973 20.685 9.44973 20.59C9.47473 20.55 9.48974 20.5 9.50474 20.455C9.51974 20.425 9.53473 20.415 9.56473 20.42ZM11.9297 20.625C11.8147 20.75 11.7047 20.875 11.5897 21C11.5947 20.98 11.6047 20.965 11.6097 20.945C11.6197 20.93 11.6347 20.92 11.6397 20.91C11.6947 20.785 11.8097 20.715 11.9047 20.625H11.9297ZM11.5897 21.035C11.6497 21.035 11.7147 21.03 11.7747 21.035C11.8297 21.04 11.8697 21.025 11.8947 20.98C11.8997 20.97 11.9147 20.96 11.9247 20.95C11.9247 21.015 11.8847 21.045 11.8347 21.07C11.7247 21.13 11.7447 21.16 11.6447 21.065C11.6297 21.055 11.6097 21.045 11.5897 21.035ZM10.4547 20.145C10.3497 20.145 10.2447 20.15 10.1397 20.145C9.98473 20.145 9.83973 20.18 9.71473 20.265C9.71973 20.205 9.76973 20.195 9.81473 20.175C9.82473 20.17 9.84973 20.17 9.85473 20.165C9.87474 20.1 9.91973 20.125 9.95973 20.135C9.96973 20.135 9.97973 20.14 9.98973 20.135C10.0597 20.085 10.1347 20.14 10.2097 20.13C10.2847 20.12 10.3647 20.13 10.4447 20.13C10.4447 20.135 10.4497 20.14 10.4547 20.145Z" fill="#C8182F"/>
<path d="M11.9251 20.95C11.9501 20.915 11.9801 20.88 12.0051 20.85C12.0151 20.84 12.0301 20.835 12.0401 20.835H12.2501L12.0701 20.88C12.0551 20.905 12.0401 20.93 12.0201 20.96C12.0051 20.94 11.9951 20.93 11.9951 20.93C11.9701 20.935 11.9451 20.94 11.9251 20.95ZM17.1801 20.895C17.2001 20.85 17.2301 20.835 17.2801 20.84C17.3701 20.845 17.4601 20.84 17.5501 20.84V21.035C17.5451 21.005 17.5401 20.975 17.5351 20.95C17.5301 20.92 17.5201 20.865 17.5151 20.865C17.4701 20.865 17.4251 20.875 17.3801 20.885C17.3501 20.89 17.3101 20.9 17.2901 20.89C17.2601 20.87 17.2451 20.865 17.2201 20.89C17.2151 20.895 17.1951 20.89 17.1801 20.895ZM10.1551 20.83H9.81008C9.69008 20.83 9.66008 20.78 9.71008 20.675C9.72508 20.635 9.75008 20.6 9.77008 20.565C9.75508 20.63 9.74508 20.695 9.73008 20.76C9.72508 20.765 9.71508 20.765 9.71008 20.77C9.73008 20.775 9.75008 20.785 9.77008 20.79C9.77508 20.79 9.78508 20.785 9.78508 20.785C9.90008 20.855 10.0201 20.805 10.1351 20.815C10.1451 20.815 10.1501 20.825 10.1551 20.83ZM12.3001 20.835C12.3151 20.835 12.3301 20.835 12.3451 20.83V21.03H12.6001C12.5901 21.04 12.5801 21.055 12.5751 21.055C12.4751 21.055 12.3751 21.05 12.2751 21.045C12.3301 21 12.3401 20.91 12.3001 20.835ZM12.9601 20.565C12.8951 20.71 12.8251 20.855 12.7601 21C12.7751 20.925 12.7701 20.835 12.8151 20.785C12.8701 20.72 12.8801 20.64 12.9351 20.58C12.9401 20.57 12.9501 20.57 12.9601 20.565ZM9.80008 20.5C9.85508 20.4 9.94008 20.345 10.0601 20.345H10.3701C10.3151 20.35 10.2551 20.35 10.2001 20.355C10.1301 20.36 10.0551 20.365 9.98508 20.38C9.96008 20.385 9.93508 20.415 9.91008 20.43C9.87508 20.46 9.84008 20.48 9.80008 20.5ZM10.6151 20.66C10.6501 20.565 10.6901 20.48 10.7701 20.415C10.7701 20.435 10.7701 20.455 10.7751 20.475C10.7801 20.515 10.7701 20.535 10.7301 20.55C10.7051 20.56 10.6851 20.595 10.6651 20.615C10.6451 20.63 10.6301 20.645 10.6151 20.66ZM11.6701 20.49C11.7201 20.38 11.7701 20.265 11.8201 20.155C11.8001 20.24 11.8051 20.33 11.7401 20.395C11.7301 20.405 11.7201 20.415 11.7251 20.425C11.7401 20.475 11.7051 20.485 11.6701 20.49ZM17.8151 21.02V20.155C17.8201 20.17 17.8301 20.185 17.8301 20.2V20.985C17.8251 20.995 17.8201 21.01 17.8151 21.02ZM14.1501 21.055C14.2201 21.05 14.2851 21.055 14.3501 21.035C14.4301 21.015 14.5101 20.975 14.5901 20.945C14.5751 20.96 14.5651 20.98 14.5451 20.99C14.4501 21.04 14.3451 21.06 14.2401 21.065C14.2101 21.075 14.1751 21.085 14.1501 21.055ZM16.6901 21.045L16.7551 21.11C16.7351 21.125 16.7151 21.155 16.7001 21.15C16.6701 21.14 16.6451 21.115 16.6151 21.095C16.6351 21.08 16.6601 21.065 16.6901 21.045ZM17.2851 20.47C17.2151 20.545 17.1451 20.62 17.0801 20.7C17.0851 20.665 17.0901 20.635 17.0951 20.6L17.1101 20.615C17.1451 20.585 17.1801 20.555 17.2151 20.52C17.2351 20.49 17.2451 20.46 17.2851 20.47ZM10.5801 20.295L10.3701 20.58C10.3751 20.55 10.3751 20.515 10.3901 20.49C10.4251 20.43 10.4651 20.375 10.5101 20.325C10.5301 20.305 10.5601 20.3 10.5801 20.295ZM10.8351 20.375C10.8751 20.365 10.9101 20.35 10.9501 20.35C11.0401 20.345 11.1351 20.35 11.2251 20.35C11.2451 20.35 11.2651 20.335 11.2851 20.325C11.2901 20.345 11.3001 20.36 11.3051 20.385C11.2901 20.385 11.2801 20.39 11.2701 20.39C11.1451 20.34 11.0201 20.355 10.8901 20.38C10.8751 20.38 10.8551 20.375 10.8351 20.375ZM13.0101 21.02C13.0551 20.925 13.0951 20.835 13.1401 20.74C13.1451 20.815 13.1201 20.88 13.0751 20.94C13.0551 20.97 13.0301 20.995 13.0101 21.02ZM11.5501 20.755C11.5901 20.665 11.6301 20.58 11.6701 20.49C11.6701 20.53 11.6651 20.57 11.6651 20.6C11.6351 20.65 11.6051 20.69 11.5751 20.73C11.5701 20.74 11.5601 20.745 11.5501 20.755ZM12.1601 20.375C12.1001 20.445 12.0401 20.51 11.9751 20.58C11.9851 20.555 11.9851 20.53 12.0001 20.51C12.0351 20.465 12.0801 20.425 12.1201 20.385C12.1301 20.375 12.1451 20.375 12.1601 20.375ZM17.8151 20.155H17.7801C17.6551 20.14 17.5401 20.155 17.4651 20.275C17.4851 20.18 17.5301 20.14 17.6251 20.145C17.6851 20.145 17.7501 20.15 17.8151 20.155ZM10.3801 20.345C10.4051 20.295 10.4251 20.24 10.4501 20.19C10.4551 20.175 10.4551 20.16 10.4551 20.145C10.5051 20.165 10.4801 20.2 10.4751 20.225C10.4701 20.25 10.4551 20.27 10.4551 20.3L10.3801 20.345ZM9.71508 20.27C9.67008 20.315 9.62508 20.36 9.58008 20.41C9.60508 20.355 9.63008 20.295 9.66008 20.235C9.68508 20.255 9.70008 20.26 9.71508 20.27Z" fill="#C8182F"/>
<path d="M17.455 21.06C17.425 21.035 17.405 20.96 17.425 20.94C17.43 20.935 17.45 20.93 17.46 20.935C17.47 20.94 17.485 20.96 17.485 20.97C17.48 20.995 17.465 21.025 17.455 21.06ZM11.82 20.145H11.57C11.57 20.14 11.575 20.125 11.575 20.125C11.655 20.12 11.74 20.095 11.82 20.145ZM17.55 21.035H17.815C17.805 21.045 17.8 21.06 17.79 21.06H17.58C17.57 21.055 17.56 21.04 17.55 21.035ZM16.8 21.035C16.89 21.035 16.975 21.035 17.065 21.03C17.055 21.04 17.05 21.055 17.04 21.055H16.825C16.815 21.055 16.81 21.045 16.8 21.035ZM12.75 21.03C12.835 21.03 12.92 21.035 13 21.035C13 21.04 12.995 21.05 12.995 21.05H12.755C12.755 21.05 12.75 21.035 12.75 21.03ZM17.43 20.31C17.395 20.35 17.36 20.385 17.33 20.425C17.33 20.375 17.38 20.32 17.43 20.31ZM13.615 20.675C13.65 20.655 13.69 20.63 13.725 20.61C13.74 20.64 13.74 20.665 13.695 20.665C13.67 20.665 13.645 20.67 13.615 20.675ZM14.595 20.95C14.63 20.925 14.66 20.895 14.695 20.87C14.69 20.93 14.645 20.945 14.595 20.95ZM13.965 21.01C14.015 21.025 14.07 21.04 14.12 21.055C14.06 21.07 14.01 21.06 13.965 21.01ZM10.36 21.265H10.25C10.285 21.23 10.325 21.23 10.36 21.265ZM12.915 21.265H12.84C12.855 21.255 12.865 21.235 12.88 21.235C12.895 21.23 12.905 21.25 12.915 21.265ZM17.075 21.02L17.135 20.945C17.145 20.995 17.115 21.015 17.075 21.02ZM11.505 20.855C11.52 20.82 11.535 20.79 11.55 20.755C11.55 20.795 11.56 20.84 11.505 20.855ZM16.85 20.95C16.83 20.97 16.81 20.995 16.785 21.015C16.795 20.98 16.8 20.945 16.85 20.95ZM14.695 20.865C14.715 20.845 14.73 20.825 14.75 20.8C14.755 20.845 14.735 20.865 14.695 20.865ZM10.765 20.415C10.785 20.4 10.81 20.385 10.83 20.375C10.84 20.435 10.795 20.41 10.765 20.415Z" fill="#C8182F"/>
<path d="M17.1346 20.95C17.1496 20.935 17.1646 20.915 17.1796 20.9C17.1846 20.93 17.1746 20.95 17.1346 20.95ZM12.2696 20.255C12.2546 20.275 12.2346 20.295 12.2196 20.315C12.2146 20.27 12.2396 20.26 12.2696 20.255ZM11.9746 20.575C11.9596 20.59 11.9446 20.61 11.9296 20.625C11.9196 20.59 11.9346 20.57 11.9746 20.575ZM15.2196 20.225C15.1996 20.24 15.1796 20.255 15.1596 20.275C15.1596 20.23 15.1896 20.23 15.2196 20.225ZM9.76465 20.56C9.77465 20.54 9.78965 20.52 9.79965 20.5C9.78965 20.52 9.77965 20.54 9.76465 20.56ZM10.5296 20.1C10.5196 20.105 10.5096 20.115 10.5096 20.115C10.5046 20.11 10.4996 20.105 10.4946 20.095C10.4996 20.09 10.5046 20.085 10.5096 20.085C10.5196 20.085 10.5246 20.095 10.5296 20.1ZM17.3246 20.425C17.3096 20.44 17.2996 20.455 17.2846 20.47C17.2846 20.44 17.2796 20.41 17.3246 20.425ZM12.2146 20.31C12.1996 20.325 12.1846 20.345 12.1696 20.36C12.1646 20.325 12.1796 20.31 12.2146 20.31ZM12.5796 21.265H12.5296C12.5446 21.23 12.5646 21.23 12.5796 21.265ZM14.7496 20.805C14.7596 20.79 14.7746 20.775 14.7846 20.755C14.7746 20.77 14.7596 20.785 14.7496 20.805ZM12.9796 20.52C12.9746 20.53 12.9696 20.545 12.9646 20.56C12.9596 20.555 12.9546 20.54 12.9546 20.54C12.9596 20.53 12.9696 20.525 12.9796 20.52ZM13.7596 20.575C13.7696 20.56 13.7796 20.55 13.7946 20.535C13.7846 20.55 13.7746 20.565 13.7596 20.575ZM10.3746 20.575C10.3646 20.59 10.3596 20.61 10.3496 20.625C10.3596 20.61 10.3646 20.595 10.3746 20.575Z" fill="#C8182F"/>
<path d="M6.28039 21.29C6.29039 21.285 6.30539 21.285 6.31539 21.28C6.30039 21.29 6.29039 21.3 6.27539 21.315C6.28039 21.305 6.28039 21.295 6.28039 21.29Z" fill="#F3F3F1"/>
<path d="M11.4847 20.9C11.4897 20.89 11.4947 20.885 11.4947 20.875C11.4897 20.885 11.4847 20.895 11.4847 20.9ZM17.8647 21.275V21.265H17.8797C17.8797 21.275 17.8747 21.28 17.8747 21.29C17.8697 21.285 17.8647 21.28 17.8647 21.275ZM6.32969 21.265H6.30469C6.30969 21.26 6.31469 21.255 6.31969 21.245C6.32469 21.25 6.32469 21.255 6.32969 21.265ZM11.8997 21.09C11.9047 21.09 11.9047 21.095 11.9097 21.095C11.9097 21.1 11.9097 21.105 11.9047 21.105C11.9047 21.105 11.8997 21.105 11.8947 21.1C11.8947 21.095 11.8997 21.09 11.8997 21.09ZM12.7597 21C12.7547 21.01 12.7547 21.015 12.7497 21.025C12.7547 21.015 12.7547 21.005 12.7597 21ZM16.8747 20.565C16.8797 20.56 16.8847 20.555 16.8897 20.545L16.8947 20.55C16.8847 20.555 16.8797 20.56 16.8747 20.565ZM17.4647 20.275L17.4397 20.3C17.4497 20.29 17.4547 20.28 17.4647 20.275ZM12.1697 20.36L12.1547 20.375C12.1647 20.37 12.1647 20.365 12.1697 20.36Z" fill="#C8182F"/>
<path d="M17.8604 21.28C17.8654 21.285 17.8704 21.285 17.8754 21.29C17.8704 21.29 17.8704 21.295 17.8654 21.295C17.8654 21.29 17.8654 21.285 17.8604 21.28Z" fill="#F3F3F1"/>
<path d="M17.4403 20.3C17.4353 20.305 17.4353 20.31 17.4303 20.315C17.4353 20.305 17.4353 20.305 17.4403 20.3Z" fill="#C8182F"/>
<path d="M7.26465 15.26L7.27965 14.99C7.29465 14.82 7.40965 14.715 7.57465 14.715C7.73965 14.715 7.85965 14.82 7.86965 14.995C7.87965 15.17 7.87965 15.35 7.86965 15.525C7.85965 15.7 7.73965 15.805 7.57465 15.805C7.40465 15.805 7.29465 15.705 7.27965 15.53L7.26465 15.26Z" fill="#FEFEFE"/>
<path d="M17.3649 15.46C17.4299 15.265 17.4949 15.08 17.5649 14.875C17.6349 15.075 17.6999 15.265 17.7649 15.46H17.3649ZM11.2699 14.875C11.3399 15.08 11.4049 15.265 11.4699 15.46H11.0699C11.1349 15.27 11.1999 15.08 11.2699 14.875ZM8.63488 14.975V14.79C8.63488 14.775 8.65488 14.745 8.66488 14.745C8.77488 14.745 8.88988 14.74 8.99988 14.75C9.11988 14.765 9.19488 14.86 9.19488 14.975C9.19488 15.095 9.11988 15.19 8.99488 15.2C8.88488 15.21 8.77988 15.21 8.66988 15.205C8.65488 15.205 8.63488 15.175 8.62988 15.16C8.63488 15.1 8.63488 15.035 8.63488 14.975ZM14.5849 14.875C14.6549 15.075 14.7199 15.265 14.7849 15.46H14.3849C14.4499 15.27 14.5149 15.08 14.5849 14.875ZM9.89988 14.975V14.79C9.89988 14.775 9.91988 14.745 9.92988 14.745C10.0399 14.745 10.1549 14.74 10.2649 14.75C10.3949 14.765 10.4549 14.855 10.4549 14.985C10.4499 15.1 10.3799 15.185 10.2599 15.195C10.1549 15.205 10.0449 15.205 9.93488 15.2C9.92488 15.2 9.89988 15.175 9.89988 15.16V14.975Z" fill="#F9F9FB"/>
<path d="M7.89551 20.5V20.485C7.94551 20.355 7.94551 20.35 8.08551 20.35C8.14051 20.35 8.20051 20.355 8.26051 20.355C8.24051 20.45 8.20551 20.49 8.12551 20.495C8.04551 20.505 7.97551 20.5 7.89551 20.5ZM13.2455 20.505C13.2655 20.465 13.2805 20.425 13.2955 20.39C13.3005 20.38 13.3155 20.365 13.3255 20.365C13.4105 20.365 13.4905 20.365 13.5755 20.375C13.5855 20.375 13.6005 20.405 13.6005 20.42C13.5855 20.47 13.5505 20.51 13.4955 20.51C13.4155 20.505 13.3355 20.505 13.2455 20.505ZM14.2655 20.855C14.1505 20.855 14.1155 20.815 14.1505 20.705C14.1855 20.6 14.2305 20.505 14.3105 20.425C14.3855 20.355 14.4755 20.325 14.5805 20.34C14.6355 20.35 14.6605 20.38 14.6505 20.43C14.6205 20.57 14.5655 20.7 14.4455 20.785C14.3955 20.82 14.3255 20.835 14.2655 20.86V20.855Z" fill="#C8182F"/>
<path d="M6.26973 21.43C6.26973 21.42 6.26973 21.41 6.27473 21.4C6.27473 21.395 6.27973 21.385 6.27973 21.38C6.28473 21.375 6.28973 21.375 6.28973 21.365C6.28973 21.36 6.28973 21.36 6.29473 21.355C6.29973 21.345 6.30473 21.34 6.30973 21.33C6.32973 21.315 6.34973 21.31 6.36973 21.31C6.43973 21.315 6.51473 21.305 6.58473 21.305H7.13973C7.29473 21.3 7.44973 21.305 7.59973 21.305C8.40973 21.29 9.21973 21.3 10.0297 21.3C10.0597 21.3 10.0947 21.295 10.1247 21.305C10.1447 21.31 10.1497 21.33 10.1447 21.345C10.1197 21.415 10.0997 21.49 10.0397 21.54C10.0147 21.575 9.97473 21.585 9.93473 21.59H6.28473C6.22473 21.59 6.21973 21.585 6.21973 21.52C6.22473 21.51 6.22973 21.495 6.23473 21.485C6.25473 21.475 6.27473 21.46 6.26973 21.43Z" fill="#02813F"/>
<path d="M17.78 21.375C17.76 21.42 17.745 21.46 17.725 21.505C17.72 21.51 17.715 21.515 17.715 21.52V21.525L17.71 21.53C17.68 21.56 17.645 21.575 17.6 21.575H13.985C13.945 21.575 13.89 21.585 13.875 21.525C13.875 21.515 13.875 21.51 13.88 21.5C13.915 21.465 13.92 21.42 13.945 21.38C13.97 21.34 14.005 21.315 14.055 21.32H17.655C17.68 21.32 17.705 21.32 17.735 21.325C17.78 21.325 17.795 21.345 17.78 21.375Z" fill="#C41D20"/>
<path d="M13.8944 21.515C13.9044 21.56 13.9394 21.55 13.9694 21.55H17.4844C17.5594 21.55 17.6394 21.535 17.7144 21.525C17.7044 21.59 17.6694 21.61 17.5994 21.61H13.8544C13.8294 21.575 13.8544 21.555 13.8694 21.525C13.8794 21.52 13.8844 21.515 13.8944 21.515Z" fill="#9F2023"/>
<path d="M13.8845 21.53C13.8745 21.56 13.8695 21.585 13.8595 21.615H10.1045C10.0795 21.615 10.0545 21.61 10.0295 21.605C10.0245 21.575 10.0345 21.555 10.0645 21.54C10.0995 21.53 10.1395 21.53 10.1795 21.53H13.7345C13.7795 21.535 13.8295 21.515 13.8845 21.53Z" fill="#E0DCDD"/>
<path d="M17.7798 21.375C17.7648 21.36 17.7548 21.345 17.7398 21.335C17.7248 21.33 17.7098 21.335 17.6898 21.335H14.0948C13.9948 21.335 13.9748 21.35 13.9398 21.445C13.9298 21.465 13.9098 21.485 13.8948 21.505C13.8698 21.46 13.9098 21.425 13.9198 21.385C13.9298 21.355 13.9448 21.325 13.9798 21.305C14.0048 21.295 14.0348 21.295 14.0648 21.295H17.6298C17.6748 21.295 17.7198 21.305 17.7698 21.3C17.7848 21.3 17.7998 21.3 17.8098 21.315L17.7798 21.375Z" fill="#C8182F"/>
<path d="M10.0498 21.555C10.0398 21.57 10.0348 21.59 10.0248 21.605C10.0048 21.605 9.9848 21.61 9.9648 21.61H6.1748C6.1948 21.575 6.2098 21.55 6.2248 21.525C6.2298 21.545 6.2348 21.56 6.2448 21.585H9.8898C9.9548 21.585 10.0098 21.57 10.0548 21.525C10.0548 21.54 10.0548 21.545 10.0498 21.555Z" fill="#45885F"/>
<path d="M10.1405 21.325H6.35055C6.33555 21.335 6.32055 21.33 6.31055 21.325L6.34055 21.31C6.35055 21.305 6.36555 21.305 6.37555 21.31H6.46055C6.49055 21.305 6.51555 21.305 6.54555 21.31H6.57055C6.62555 21.305 6.68055 21.305 6.74055 21.31H6.76555C6.82055 21.305 6.87555 21.305 6.93555 21.31H6.96055C7.01555 21.305 7.07055 21.305 7.13055 21.31H7.15555C7.21055 21.305 7.26555 21.305 7.32555 21.31H7.35055C7.40555 21.305 7.46055 21.305 7.52055 21.31H7.54555C7.74555 21.29 7.94555 21.295 8.14055 21.295H9.96055C10.0105 21.295 10.0605 21.3 10.1105 21.3C10.1205 21.3 10.1405 21.295 10.1405 21.325Z" fill="#E0DCDD"/>
<path d="M8.13973 21.31H7.53973C7.58473 21.305 7.62473 21.3 7.66973 21.295V21.29H6.41473C6.38973 21.29 6.36973 21.285 6.34473 21.28H7.92473C7.97973 21.305 8.03473 21.285 8.08973 21.29C8.10473 21.29 8.12973 21.275 8.13973 21.31Z" fill="#F3F3F1"/>
<path d="M6.27023 21.43C6.30023 21.47 6.26523 21.475 6.24023 21.49C6.25023 21.475 6.26023 21.45 6.27023 21.43Z" fill="#45885F"/>
<path d="M17.815 21.315C17.805 21.315 17.79 21.31 17.78 21.31C17.77 21.295 17.795 21.29 17.79 21.275H17.82C17.815 21.29 17.815 21.305 17.815 21.315Z" fill="#F3F3F1"/>
<path d="M6.30969 21.325H6.34969L6.30469 21.34C6.30969 21.335 6.30969 21.33 6.30969 21.325Z" fill="#45885F"/>
<path d="M6.29039 21.385L6.27539 21.4C6.28539 21.385 6.29039 21.375 6.30039 21.36V21.37C6.29039 21.375 6.29039 21.38 6.29039 21.385Z" fill="#F3F3F1"/>
<path d="M17.7197 21.52C17.7247 21.515 17.7247 21.51 17.7297 21.505C17.7247 21.51 17.7197 21.515 17.7197 21.52Z" fill="#9F2023"/>
<path d="M12.3601 20.625H12.2051C12.2601 20.56 12.3101 20.505 12.3601 20.44V20.625ZM17.5751 20.435C17.5701 20.515 17.5701 20.57 17.5651 20.63H17.4051C17.4601 20.565 17.5101 20.51 17.5751 20.435Z" fill="#C8182F"/>
<path d="M10.14 21.325C10.115 21.32 10.095 21.315 10.07 21.315H8.75C8.76 21.28 8.79 21.295 8.81 21.295H9.3C9.32 21.295 9.345 21.3 9.365 21.285H9.655C9.67 21.3 9.69 21.295 9.705 21.295C9.88 21.29 10.05 21.295 10.225 21.305C10.57 21.32 10.91 21.315 11.255 21.315H13.57C13.66 21.315 13.745 21.3 13.835 21.305C13.845 21.305 13.855 21.3 13.855 21.29H14.555C14.545 21.325 14.515 21.31 14.495 21.31H14.025C14.005 21.31 13.98 21.295 13.975 21.335L13.9 21.515C13.9 21.52 13.9 21.525 13.895 21.525L13.88 21.54C13.84 21.55 13.8 21.56 13.76 21.56H10.045V21.54C10.08 21.46 10.11 21.395 10.14 21.325Z" fill="#F3F3F1"/>
<path d="M13.8595 21.28C13.8795 21.285 13.8945 21.29 13.9195 21.3C13.9045 21.305 13.8995 21.31 13.8945 21.31C13.7745 21.315 13.6595 21.32 13.5395 21.32H11.6395C11.2545 21.32 10.8745 21.325 10.4895 21.32C10.2095 21.315 9.92453 21.3 9.64453 21.29C9.64453 21.29 9.64953 21.285 9.65453 21.275H9.73953C9.77453 21.28 9.80953 21.28 9.84453 21.275H9.92953C9.96953 21.285 10.0045 21.275 10.0445 21.285H10.1395C10.2195 21.275 10.3045 21.29 10.3895 21.275H10.5095C10.5245 21.28 10.5445 21.28 10.5645 21.28H12.8695C12.8895 21.28 12.9045 21.285 12.9245 21.275C13.2395 21.28 13.5495 21.28 13.8595 21.28ZM13.9795 21.325C13.9695 21.315 13.9645 21.305 13.9495 21.29H14.4945C14.5145 21.29 14.5345 21.285 14.5595 21.28H17.7895C17.7845 21.29 17.7845 21.305 17.7795 21.315C17.7545 21.315 17.7295 21.32 17.7095 21.32H14.0695C14.0345 21.315 14.0045 21.32 13.9795 21.325Z" fill="#FCF7F7"/>
<path d="M12.9296 21.28C12.9096 21.285 12.8896 21.29 12.8646 21.29H10.5796C10.5596 21.29 10.5396 21.285 10.5146 21.28H12.9096C12.9146 21.275 12.9196 21.275 12.9296 21.28Z" fill="#F3F3F1"/>
<path d="M9.36958 21.28C9.37458 21.285 9.37958 21.29 9.38458 21.3C9.36958 21.3 9.36459 21.305 9.35459 21.305H8.81958C8.79958 21.305 8.77959 21.31 8.75459 21.315H8.63458C8.54958 21.305 8.46458 21.32 8.38458 21.305C8.37958 21.285 8.39959 21.285 8.40459 21.28H8.50459C8.53959 21.285 8.57458 21.285 8.60958 21.28H8.65958C8.68458 21.285 8.70459 21.285 8.72959 21.28H8.77959C8.81459 21.285 8.84958 21.285 8.88458 21.28H8.96958C9.00458 21.285 9.03958 21.285 9.07458 21.28H9.15958C9.19458 21.285 9.22959 21.285 9.26459 21.28H9.36958Z" fill="#FCF7F7"/>
<path d="M8.40469 21.28L8.38969 21.295C8.47469 21.3 8.55469 21.305 8.63469 21.31H8.18969C8.19969 21.275 8.22969 21.305 8.24469 21.29C8.25469 21.29 8.23969 21.28 8.24469 21.29V21.295C8.22469 21.29 8.19469 21.315 8.17969 21.28H8.40469Z" fill="#F3F3F1"/>
<path d="M8.17516 21.28L8.25016 21.295L8.19016 21.31H8.14016C8.06516 21.305 7.98516 21.3 7.91016 21.295L7.92516 21.28H8.01016C8.04516 21.285 8.08016 21.285 8.11516 21.28H8.17516Z" fill="#FCF7F7"/>
<path d="M10.3948 21.28C10.3098 21.285 10.2298 21.285 10.1448 21.29C10.2298 21.285 10.3098 21.28 10.3948 21.28ZM10.0548 21.285C10.0148 21.28 9.97977 21.28 9.93977 21.275C9.97477 21.28 10.0148 21.285 10.0548 21.285Z" fill="#F3F3F1"/>
<path d="M12.07 20.88C12.06 20.875 12.05 20.875 12.04 20.87C12.04 20.865 12.045 20.86 12.045 20.855C12.055 20.86 12.065 20.865 12.075 20.865C12.075 20.875 12.075 20.875 12.07 20.88Z" fill="#CC1127"/>
<path d="M7.74512 21.29H7.81512V21.295H7.74512V21.29Z" fill="#FCF7F7"/>
<path d="M14.4646 2.725C14.4446 2.765 14.4296 2.79 14.4196 2.82C14.2646 3.18 14.1096 3.545 13.9546 3.905C13.7546 4.375 13.5496 4.845 13.3496 5.315C13.1146 5.865 12.8796 6.415 12.6396 6.965C12.5446 7.18 12.4496 7.395 12.4196 7.63C12.3796 7.96 12.3946 8.285 12.5346 8.59C12.7346 9.03 12.9396 9.47 13.1496 9.905C13.2796 10.175 13.3046 10.45 13.2296 10.74C13.1396 11.075 13.0446 11.415 12.9496 11.75C12.7546 12.435 12.5646 13.12 12.3696 13.81C12.3646 13.83 12.3596 13.855 12.3546 13.88C12.3846 13.875 12.3996 13.86 12.4146 13.85C12.5096 13.76 12.5996 13.675 12.6946 13.585C13.1946 13.11 13.6946 12.64 14.1996 12.165C14.5346 11.85 14.8696 11.53 15.2096 11.215C15.2646 11.16 15.3246 11.11 15.3746 11.045C15.6146 10.71 15.6596 10.34 15.5296 9.955C15.4396 9.695 15.3196 9.45 15.2196 9.195C15.0446 8.74 15.0346 8.285 15.2496 7.84C15.4396 7.45 15.6296 7.055 15.8196 6.665C16.1946 5.895 16.5646 5.13 16.9396 4.36C16.9596 4.315 16.9496 4.29 16.9146 4.27C16.6846 4.125 16.4596 3.98 16.2346 3.84C15.8096 3.57 15.3846 3.3 14.9546 3.03C14.7896 2.93 14.6296 2.83 14.4646 2.725ZM11.7646 13.885C11.7696 13.88 11.7746 13.88 11.7796 13.875C11.7746 13.85 11.7696 13.82 11.7646 13.795C11.5946 13.19 11.4246 12.59 11.2596 11.985C11.1396 11.56 11.0196 11.135 10.9046 10.71C10.8396 10.465 10.8496 10.22 10.9596 9.985C11.1546 9.56 11.3496 9.135 11.5546 8.715C11.7946 8.215 11.8046 7.71 11.6046 7.205C11.4696 6.87 11.3246 6.545 11.1796 6.215C10.9146 5.6 10.6496 4.98 10.3846 4.365C10.1646 3.85 9.94462 3.335 9.71962 2.82C9.67962 2.725 9.67462 2.725 9.58962 2.78C9.31462 2.96 9.03462 3.135 8.75462 3.31L7.28462 4.24C7.17962 4.305 7.18462 4.305 7.23962 4.42C7.45962 4.87 7.67962 5.32 7.89962 5.775C8.22962 6.455 8.55462 7.14 8.88962 7.82C9.09462 8.24 9.10962 8.665 8.96462 9.1C8.90962 9.27 8.82962 9.435 8.76462 9.605C8.68462 9.81 8.57462 10.005 8.55962 10.23C8.53462 10.595 8.62462 10.92 8.89962 11.175C9.07462 11.34 9.24962 11.5 9.42462 11.665C9.73962 11.96 10.0496 12.255 10.3596 12.55C10.7546 12.92 11.1496 13.295 11.5446 13.665C11.6096 13.745 11.6846 13.815 11.7646 13.885ZM12.0596 5.415H12.5096C12.5496 5.415 12.5746 5.405 12.5896 5.365C12.5946 5.345 12.6096 5.325 12.6146 5.305L13.3046 3.685C13.4846 3.26 13.6696 2.835 13.8546 2.41C13.8746 2.365 13.8646 2.345 13.8296 2.32C13.7246 2.255 13.6196 2.185 13.5146 2.12C13.0546 1.825 12.5946 1.535 12.1346 1.24C12.0796 1.205 12.0446 1.21 11.9946 1.245C11.7846 1.385 11.5746 1.52 11.3596 1.65C11.0146 1.87 10.6696 2.085 10.3246 2.3C10.2496 2.35 10.2496 2.35 10.2846 2.435C10.4546 2.83 10.6196 3.22 10.7896 3.615C11.0396 4.195 11.2896 4.775 11.5346 5.355C11.5546 5.395 11.5746 5.415 11.6196 5.415H12.0596Z" fill="white"/>
<path d="M14.4647 2.725C14.6297 2.83 14.7897 2.93 14.9447 3.03C15.3697 3.3 15.7947 3.57 16.2247 3.84C16.4497 3.985 16.6797 4.13 16.9047 4.27C16.9447 4.295 16.9547 4.315 16.9297 4.36C16.5547 5.125 16.1847 5.895 15.8097 6.665C15.6197 7.055 15.4297 7.45 15.2397 7.84C15.0247 8.285 15.0347 8.74 15.2097 9.195C15.3097 9.45 15.4297 9.695 15.5197 9.955C15.6497 10.34 15.6097 10.71 15.3647 11.045C15.3197 11.11 15.2597 11.16 15.1997 11.215C14.8647 11.535 14.5297 11.85 14.1897 12.165C13.6897 12.64 13.1897 13.11 12.6847 13.585C12.5897 13.675 12.4997 13.76 12.4047 13.85C12.3897 13.865 12.3697 13.875 12.3447 13.88C12.3497 13.855 12.3547 13.835 12.3597 13.81C12.5547 13.125 12.7447 12.44 12.9397 11.75C13.0347 11.415 13.1297 11.08 13.2197 10.74C13.2947 10.455 13.2697 10.175 13.1397 9.905C12.9297 9.47 12.7247 9.03 12.5247 8.59C12.3847 8.285 12.3647 7.96 12.4097 7.63C12.4397 7.395 12.5347 7.18 12.6297 6.965C12.8647 6.415 13.0997 5.865 13.3397 5.315C13.5397 4.845 13.7447 4.375 13.9447 3.905C14.0997 3.545 14.2547 3.18 14.4097 2.82C14.4297 2.79 14.4447 2.765 14.4647 2.725Z" fill="url(#paint0_linear_21079_292396)"/>
<path d="M11.7652 13.885C11.6902 13.815 11.6102 13.74 11.5352 13.67C11.1402 13.3 10.7452 12.925 10.3502 12.555C10.0352 12.26 9.72523 11.965 9.41523 11.67C9.24023 11.505 9.06523 11.345 8.89023 11.18C8.61523 10.925 8.52523 10.6 8.55023 10.235C8.56523 10.01 8.67523 9.815 8.75523 9.61C8.82023 9.44 8.90023 9.28 8.95523 9.105C9.10023 8.67 9.09023 8.245 8.88023 7.825C8.54523 7.145 8.22023 6.465 7.89023 5.78C7.67023 5.33 7.45023 4.875 7.23023 4.425C7.17523 4.31 7.17523 4.31 7.27523 4.245L8.74523 3.315C9.02523 3.14 9.30023 2.96 9.58023 2.785C9.67023 2.73 9.67023 2.725 9.71023 2.825C9.93023 3.34 10.1502 3.855 10.3752 4.37C10.6402 4.985 10.9052 5.605 11.1702 6.22C11.3102 6.55 11.4602 6.88 11.5952 7.21C11.7952 7.72 11.7852 8.225 11.5452 8.72C11.3402 9.14 11.1452 9.565 10.9502 9.99C10.8452 10.225 10.8302 10.47 10.8952 10.715C11.0102 11.14 11.1302 11.565 11.2502 11.99C11.4202 12.595 11.5902 13.195 11.7552 13.8C11.7602 13.825 11.7652 13.85 11.7702 13.88C11.7752 13.88 11.7702 13.885 11.7652 13.885Z" fill="url(#paint1_linear_21079_292396)"/>
<path d="M12.0603 5.415H11.6203C11.5753 5.415 11.5503 5.4 11.5353 5.355C11.2853 4.775 11.0403 4.195 10.7903 3.615C10.6203 3.22 10.4553 2.83 10.2853 2.435C10.2503 2.35 10.2503 2.35 10.3253 2.3C10.6703 2.085 11.0153 1.865 11.3603 1.65C11.5703 1.515 11.7853 1.38 11.9953 1.245C12.0453 1.21 12.0803 1.21 12.1353 1.24C12.5953 1.535 13.0553 1.825 13.5153 2.12C13.6203 2.185 13.7253 2.255 13.8303 2.32C13.8653 2.345 13.8753 2.365 13.8553 2.41C13.6703 2.835 13.4903 3.26 13.3053 3.685L12.6153 5.305C12.6053 5.325 12.5953 5.345 12.5903 5.365C12.5803 5.405 12.5503 5.415 12.5103 5.415H12.0603Z" fill="url(#paint2_linear_21079_292396)"/>
</g>
<defs>
<linearGradient id="paint0_linear_21079_292396" x1="14.648" y1="2.72525" x2="14.648" y2="13.8801" gradientUnits="userSpaceOnUse">
<stop stop-color="#FC603E"/>
<stop offset="1" stop-color="#CC0404"/>
</linearGradient>
<linearGradient id="paint1_linear_21079_292396" x1="9.48473" y1="2.74039" x2="9.48473" y2="13.8856" gradientUnits="userSpaceOnUse">
<stop stop-color="#20D54F"/>
<stop offset="1" stop-color="#0B821C"/>
</linearGradient>
<linearGradient id="paint2_linear_21079_292396" x1="12.065" y1="1.22337" x2="12.065" y2="5.41642" gradientUnits="userSpaceOnUse">
<stop stop-color="#FFCB00"/>
<stop offset="1" stop-color="#FA9C01"/>
</linearGradient>
<clipPath id="clip0_21079_292396">
<rect width="24" height="24" fill="white"/>
</clipPath>
</defs>
</svg>
