<svg width="24" height="24" viewBox="0 0 24 24" fill="none" xmlns="http://www.w3.org/2000/svg">
<g clip-path="url(#clip0_21082_310217)">
<path d="M19.9967 19.3842L20.8162 20.1417C19.5315 21.5335 17.936 22.6019 16.1598 23.2595L15.7734 22.2123C17.3844 21.6156 18.8315 20.6466 19.9967 19.3842Z" fill="#FFCC00"/>
<path d="M14.9607 22.4766L15.2637 23.5511C13.1324 24.1489 10.8778 24.1497 8.74609 23.5533L9.04911 22.4789C10.9826 23.0198 13.0276 23.019 14.9607 22.4766Z" fill="#E60000"/>
<path d="M8.23517 22.2152L7.84876 23.2625C6.07175 22.6058 4.47519 21.5383 3.18945 20.147L4.00897 19.3894C5.17523 20.6514 6.62335 21.6196 8.23517 22.2152Z" fill="black"/>
<path d="M20.5518 18.7343C24.0656 14.2722 23.5579 7.85851 19.3858 4.00488C15.2139 0.151223 8.78005 0.153193 4.61039 4.00941C0.440726 7.86564 -0.063027 14.2796 3.4535 18.7395L2.57712 19.4306C-1.30001 14.5134 -0.744535 7.44157 3.85279 3.19001C8.45014 -1.06157 15.5437 -1.06357 20.1434 3.18542C24.7431 7.43438 25.3026 14.5059 21.4282 19.4253L20.5518 18.7343Z" fill="#878787"/>
<path d="M12.0005 21.7559C17.3888 21.7559 21.7568 17.3879 21.7568 11.9996C21.7568 6.61133 17.3888 2.24324 12.0005 2.24324C6.61223 2.24324 2.24414 6.61133 2.24414 11.9996C2.24414 17.3879 6.61223 21.7559 12.0005 21.7559Z" fill="#00965A"/>
<path d="M20.7218 10.007L15.1406 6.77255V8.40207L17.96 10.007L11.0307 13.9474V10.0712L13.9591 11.77V10.2102L11.0307 8.52182V6.03037L13.9591 7.7195V6.0848L9.62077 3.58409V7.70946L6.0514 5.64732L6.04395 18.4561L9.62077 16.3932V20.5291L11.0307 19.7116V15.5765L15.7993 12.8266L17.96 14.1167L12.2311 17.3895V19.0193L20.7218 14.1167L17.1733 12.0438L20.7218 10.007ZM9.62077 14.7597L7.46331 16.0151L7.45767 8.01792L9.62077 9.26847V14.7597Z" fill="white"/>
</g>
<defs>
<clipPath id="clip0_21082_310217">
<rect width="24" height="24" fill="white"/>
</clipPath>
</defs>
</svg>
