<svg width="25" height="25" viewBox="0 0 25 25" fill="none" xmlns="http://www.w3.org/2000/svg">
<g clip-path="url(#clip0_21079_292330)">
<path d="M8.73324 23.7542H2.50781V24.1895H8.73324V23.7542Z" fill="black"/>
<path d="M15.6002 23.7543H9.375V24.1895H15.6002V23.7543Z" fill="#D20515"/>
<path d="M22.4726 23.7543H16.2471V24.1895H22.4726V23.7543Z" fill="#E2A700"/>
<path d="M13.6007 2.06523L13.0763 2.26799L12.8576 3.4131C12.8576 3.4131 13.2591 3.90936 13.2631 3.92173C13.2673 3.93341 12.6432 3.64748 12.6432 3.64748L11.4383 4.23241L11.2479 5.76586L9.95162 5.72187L9.78116 6.1274V5.65451L9.24435 4.16436L8.88281 3.92585L9.31171 3.98084L10.0554 3.27769L10.3572 1.96556L10.0912 1.54079L10.564 1.78273L11.683 1.31809L11.9312 0.77372L11.9277 1.31397L13.0048 2.03773L13.6007 2.06523ZM12.5319 3.34918C12.5319 3.34918 12.7704 2.20407 12.7581 2.20819C12.7402 2.20819 11.7725 1.53667 11.7725 1.53667L10.5999 2.00955L10.318 3.25776L11.2996 3.92173L12.5319 3.34918ZM11.0328 5.50742L11.1283 4.19598L10.1468 3.50795L9.51104 4.10868L9.95987 5.46412L11.0328 5.50742Z" fill="white"/>
<path d="M15.5604 4.08941C15.6106 5.16509 15.5144 6.11293 15.3096 6.9831C15.2615 7.18518 15.2085 7.38245 15.1494 7.57628C14.5954 9.40185 13.5616 10.9161 12.431 12.6454C10.6618 15.3521 9.8432 17.2272 9.01152 21.2543C8.85275 17.465 10.9258 14.0586 12.6558 11.4439C13.517 10.1421 14.1095 9.09598 14.5528 7.98387C14.6202 7.81547 14.6834 7.6457 14.7446 7.47317C15.0875 6.49647 15.335 5.4359 15.5604 4.08941Z" fill="white"/>
<path d="M16.8027 22.3858H13.2938C13.2876 20.4915 13.1063 18.8838 12.7646 17.6122C12.9289 16.3125 13.3784 14.6567 13.9702 13.161C14.9613 14.6876 16.7429 17.9277 16.8027 22.3858Z" fill="#E2A700"/>
<path d="M15.3647 1.54572C16.2082 2.40764 16.6426 3.84967 16.448 5.55083C16.435 5.66837 16.4184 5.78659 16.3992 5.90413C16.0369 8.14553 14.7028 10.3512 13.6245 13.0085C12.502 15.775 11.6965 19.136 11.6793 22.3858H8.14844C8.34639 18.8254 9.16501 16.1187 10.3273 14.1508C10.5782 13.726 10.8737 13.2683 11.1878 12.7926C11.5954 12.1747 12.034 11.5266 12.4484 10.8798C13.0197 9.9876 13.5447 9.0975 13.8747 8.29263C13.9324 8.15172 13.9839 8.01357 14.0293 7.87816C13.5385 8.09467 12.9962 8.21427 12.4257 8.21427C10.2263 8.21427 8.44331 6.43131 8.44331 4.23252C8.44331 2.03304 10.2263 0.250084 12.4257 0.250084C13.5893 0.250084 14.6368 0.749779 15.3647 1.54572ZM15.3049 6.98325C15.5097 6.11308 15.606 5.16524 15.5557 4.08955C15.3303 5.43605 15.0829 6.49661 14.7399 7.47332C14.6787 7.64584 14.6155 7.81561 14.5481 7.98401C14.1048 9.09612 13.5124 10.1423 12.6511 11.4441C10.921 14.0587 8.84801 17.4652 9.00679 21.2544C9.83847 17.2273 10.6571 15.3523 12.4263 12.6455C13.557 10.9162 14.5907 9.40199 15.1447 7.57642C15.2039 7.38259 15.2568 7.18532 15.3049 6.98325ZM13.0718 2.26811L13.5962 2.06534L13.0003 2.03785L11.9232 1.31408L11.9267 0.773835L11.6785 1.31821L10.5596 1.78285L10.0867 1.5409L10.3527 1.96568L10.0509 3.27781L9.30722 3.98095L8.87832 3.92597L9.23986 4.16447L9.77667 5.65462V6.12751L9.94713 5.72198L11.2435 5.76597L11.4338 4.23252L12.6387 3.6476C12.6387 3.6476 13.2629 3.93353 13.2587 3.92184C13.2546 3.90947 12.8532 3.41321 12.8532 3.41321L13.0718 2.26811Z" fill="#C6C6C6"/>
<path d="M12.7536 2.20839C12.766 2.20427 12.5274 3.34937 12.5274 3.34937L11.295 3.92192L10.3135 3.25796L10.5953 2.00975L11.7679 1.53686C11.768 1.53686 12.7357 2.20839 12.7536 2.20839Z" fill="#C6C6C6"/>
<path d="M10.8916 8.26087C11.3803 9.13654 12.1246 10.3483 12.4491 10.8796C12.0346 11.5264 11.5961 12.1746 11.1885 12.7925C10.4118 11.057 9.20965 8.65815 8.74707 6.4786C9.24195 7.28691 9.99459 7.91926 10.8916 8.26087Z" fill="#E2A700"/>
<path d="M10.1446 3.50814L11.1261 4.19616L11.0306 5.5076L9.95762 5.4643L9.50879 4.10887L10.1446 3.50814Z" fill="#C6C6C6"/>
</g>
<defs>
<clipPath id="clip0_21079_292330">
<rect width="24" height="24" fill="white" transform="translate(0.536133 0.25)"/>
</clipPath>
</defs>
</svg>
