<svg width="25" height="25" viewBox="0 0 25 25" fill="none" xmlns="http://www.w3.org/2000/svg">
<g clip-path="url(#clip0_21079_292445)">
<path d="M12.8213 24.255C19.4487 24.255 24.8213 18.8824 24.8213 12.255C24.8213 5.62759 19.4487 0.255005 12.8213 0.255005C6.19387 0.255005 0.821289 5.62759 0.821289 12.255C0.821289 18.8824 6.19387 24.255 12.8213 24.255Z" fill="#E70024"/>
<path d="M10.3379 18.5301C10.9079 18.3551 11.7879 18.2501 12.7779 18.2501C13.2929 18.2501 13.8129 18.2801 14.3229 18.3501V18.1451C13.8079 18.0801 13.2929 18.0451 12.7779 18.0451C11.7879 18.0451 10.9079 18.1551 10.3379 18.3251V18.5301ZM13.9279 14.4301C13.7079 14.3201 13.2679 14.2251 12.7729 14.2251C12.2779 14.2251 11.8429 14.3201 11.6179 14.4301C11.4329 14.5201 11.2229 14.6501 11.2229 14.9151V15.0051C11.2229 15.2751 11.5879 15.5351 11.9279 15.5601C12.0529 15.4501 12.3779 15.3701 12.7679 15.3701C13.1529 15.3701 13.4829 15.4501 13.6079 15.5601C13.9479 15.5301 14.3129 15.2751 14.3129 15.0051V14.9151C14.3229 14.6501 14.1129 14.5251 13.9279 14.4301ZM12.0429 4.07008C12.0429 3.85508 12.3929 3.70508 12.8229 3.70508C13.2529 3.70508 13.6029 3.85508 13.6029 4.07008C13.6029 4.07008 13.8579 3.92008 13.8579 3.28508C13.8579 2.87508 13.6979 2.68008 13.6979 2.68008C13.1929 2.25008 12.4479 2.25008 11.9479 2.68008C11.9479 2.68008 11.7879 2.87508 11.7879 3.28508C11.7879 3.92008 12.0429 4.07008 12.0429 4.07008ZM12.9579 15.7351C12.7679 15.7251 12.6079 15.7601 12.5929 16.2151C12.5829 16.6801 12.4079 17.5901 12.4079 17.5901V17.5951C12.5129 17.5951 12.6179 17.5901 12.7279 17.5901C13.1279 17.5901 13.5279 17.6101 13.9279 17.6551C13.6779 17.2051 13.4779 16.7251 13.3329 16.2301C13.2529 15.8801 13.1529 15.7451 12.9579 15.7351Z" fill="white"/>
<path d="M15.8895 19.08C15.8895 18.96 15.7645 18.84 15.5495 18.74V19.475L15.5895 20.18C15.2995 20.085 15.0045 20.015 14.6995 19.975V19.035C14.8645 19.07 15.0095 19.105 15.1295 19.14V18.79C14.5595 18.63 13.7145 18.53 12.7745 18.53C11.4995 18.53 10.3995 18.715 9.91953 18.975C9.91953 18.91 9.91953 18.84 9.91453 18.78H9.91953V18.49C9.89453 18.505 9.86453 18.52 9.83953 18.54C9.81953 18.55 9.79953 18.565 9.78453 18.58C9.72953 18.62 9.68953 18.675 9.66453 18.74C9.65953 18.755 9.65953 18.77 9.65953 18.785V19.075C9.65953 19.06 9.65953 19.045 9.66453 19.03C9.66453 19.135 9.66453 19.23 9.65953 19.235V19.27L9.56953 20.86C9.56953 21.235 11.0045 21.54 12.7745 21.54C14.5445 21.54 15.9795 21.235 15.9795 20.86L15.8895 19.295V19.08ZM12.7745 21.38C11.2195 21.38 9.95953 21.145 9.95953 20.85C9.95953 20.76 10.0845 20.675 10.2995 20.6L10.3645 19.435C10.4945 19.375 10.6345 19.345 10.7795 19.335L10.7195 20.495C11.3995 20.375 12.0895 20.32 12.7795 20.33C14.3345 20.33 15.5945 20.565 15.5945 20.86C15.5895 21.145 14.3295 21.38 12.7745 21.38ZM10.5845 17.85L10.6345 17.92C10.8395 17.845 11.0495 17.79 11.2595 17.755C11.5245 17.415 12.1095 16.41 12.1095 15.975C12.1095 15.83 11.9395 15.885 11.8995 16.03C11.8195 16.34 11.6295 16.615 11.3295 17.055C11.1195 17.35 10.8695 17.62 10.5845 17.85ZM14.3445 17.71C14.5495 17.745 14.7495 17.8 14.9445 17.88L14.9695 17.845C14.6695 17.605 14.3995 17.325 14.1745 17.01C13.9495 16.695 13.7695 16.35 13.6295 15.985C13.5745 15.825 13.3845 15.79 13.4195 15.93C13.5545 16.52 14.0145 17.305 14.3095 17.685L14.3445 17.71ZM17.0395 5.83999C16.5095 5.83999 16.0995 6.10499 15.9245 6.51999C15.9045 6.54999 15.8845 6.58499 15.8645 6.61499C15.8995 6.10999 15.8745 5.62999 14.4645 5.09999C13.9845 4.91999 13.5595 4.70999 13.5595 4.36499C13.5595 4.15499 13.2345 3.98499 12.8145 3.98499C12.3945 3.98499 12.0695 4.15499 12.0695 4.36499C12.0695 4.70499 11.6445 4.91499 11.1645 5.09999C9.75453 5.62999 9.72953 6.10999 9.76453 6.61499C9.74453 6.57999 9.72453 6.54999 9.70453 6.51999C9.52953 6.09999 9.11953 5.83999 8.58953 5.83999C7.31953 5.83999 6.39453 6.87999 6.39453 8.22999C6.39453 10.095 7.58953 11.88 9.79953 13.19C10.4545 13.58 10.8795 13.73 11.6595 14.02L11.7045 14.165C11.8995 14.035 12.3195 13.945 12.8045 13.945C13.2895 13.945 13.7095 14.035 13.9045 14.165L13.9495 14.02C14.7295 13.73 15.1545 13.58 15.8095 13.19C18.0195 11.875 19.2195 10.09 19.2195 8.22999C19.2345 6.87999 18.3145 5.83999 17.0395 5.83999ZM17.1195 6.24999H17.1395C17.7195 6.24999 18.2195 6.56999 18.5095 7.12499C18.5145 7.12999 18.5145 7.13499 18.5095 7.14499C18.5095 7.14999 18.5045 7.15499 18.4995 7.15999H18.4845C18.4745 7.15999 18.4695 7.15499 18.4645 7.14999C18.4045 7.06499 18.3345 6.97999 18.2595 6.90499C17.9645 6.60499 17.5595 6.43499 17.1395 6.43999H17.1195C16.8095 6.42999 16.5145 6.56999 16.3195 6.80999C16.3145 6.81499 16.3095 6.81999 16.2995 6.81999H16.2895C16.2795 6.81499 16.2745 6.79999 16.2795 6.78999C16.4045 6.45499 16.7195 6.25499 17.1195 6.24999ZM15.9395 6.96499C15.9845 6.46499 16.2645 6.32499 16.3795 6.28999H16.3895C16.3945 6.28999 16.3995 6.28999 16.3995 6.29499C16.4045 6.29499 16.4045 6.29999 16.4095 6.30499C16.4145 6.30999 16.4145 6.31499 16.4145 6.31999C16.4145 6.32499 16.4145 6.32999 16.4095 6.33499C16.3245 6.42499 16.2145 6.57999 16.1995 6.89499C16.1895 7.05499 16.2795 7.19999 16.4195 7.26999C16.5245 7.27999 16.5995 7.37499 16.5845 7.47999C16.5795 7.52499 16.5595 7.56499 16.5245 7.59999C16.4895 7.63499 16.4395 7.65499 16.3845 7.64999C16.2545 7.64999 16.1345 7.58499 16.0645 7.47499C15.9695 7.32499 15.9195 7.14499 15.9395 6.96499ZM16.5745 7.83499C16.5395 7.90499 16.4645 7.94999 16.3845 7.94999C16.2145 7.94999 16.0445 7.91499 15.9745 7.64499C15.9695 7.63499 15.9795 7.61999 15.9895 7.61499H16.0095C16.0145 7.61499 16.0145 7.61999 16.0195 7.61999C16.1195 7.74499 16.2695 7.81999 16.4345 7.80999C16.4695 7.80999 16.5095 7.80499 16.5445 7.78999H16.5495C16.5595 7.78999 16.5645 7.79499 16.5695 7.79999C16.5745 7.80499 16.5745 7.80999 16.5745 7.81499C16.5795 7.82999 16.5745 7.83499 16.5745 7.83499ZM15.1445 6.77499C15.1795 6.80499 15.2245 6.82499 15.2745 6.82499C15.3345 6.81999 15.3845 6.78999 15.4095 6.73499C15.4145 6.72999 15.4195 6.72499 15.4245 6.72499H15.4445L15.4895 6.74999L15.5695 6.77499C15.5795 6.77999 15.5895 6.78999 15.5895 6.79999C15.5495 7.45999 15.3545 8.37999 15.1495 9.34999L15.1095 9.53499C15.1095 9.53999 15.1045 9.54499 15.1045 9.54499C15.0995 9.54999 15.0995 9.54999 15.0945 9.54999H15.0895C15.0845 9.54999 15.0745 9.54499 15.0695 9.53999C15.0345 9.49999 14.9945 9.45999 14.9495 9.42499C14.9095 9.38999 14.8645 9.36499 14.8145 9.34499C14.8095 9.34499 14.8095 9.34499 14.8045 9.33999C14.7995 9.33999 14.7995 9.33499 14.7995 9.32999V9.30999C15.0045 8.85499 15.0995 8.14999 15.1495 7.63999L15.0295 7.46999C14.4745 7.18499 13.6745 7.01999 12.8345 7.01999C11.9545 7.01999 11.1045 7.21499 10.4545 7.56999H10.4345C10.4295 7.56999 10.4295 7.56499 10.4245 7.56499C10.4195 7.55999 10.4195 7.55999 10.4195 7.55499L10.3845 7.37499V7.35999C10.3845 7.35499 10.3895 7.34999 10.3945 7.34999C11.0095 6.98999 11.8545 6.79999 12.8395 6.79999C13.6595 6.79999 14.4245 6.94999 14.9845 7.21499H14.9895C15.0345 7.23999 15.0845 7.25499 15.1345 7.25499C15.2045 7.25499 15.2695 7.21999 15.3095 7.16499C15.2595 7.15999 15.2145 7.13999 15.1795 7.10999C15.0145 6.98499 14.8745 6.68999 14.8445 6.39499V6.37999C14.8445 6.37499 14.8495 6.36999 14.8545 6.36999H14.8845L14.9145 6.38999C14.9195 6.39499 14.9245 6.39999 14.9245 6.40499C14.9495 6.54499 15.0345 6.67499 15.1445 6.77499ZM10.3645 7.14499C10.2345 7.14499 10.1345 7.00999 10.1095 6.79499V6.77999C10.1095 6.77499 10.1145 6.76999 10.1195 6.76999L10.1495 6.74999H10.1645C10.1745 6.74999 10.1795 6.75499 10.1845 6.75999C10.2095 6.80999 10.2645 6.84499 10.3195 6.84999C10.3445 6.84999 10.3695 6.84499 10.3945 6.82999C10.4995 6.77999 10.6045 6.63499 10.6695 6.43999C10.6695 6.43499 10.6745 6.42999 10.6795 6.42499L10.7845 6.35999H10.8145C10.8195 6.35999 10.8195 6.36499 10.8245 6.36999C10.8245 6.37499 10.8295 6.37999 10.8295 6.38499C10.8045 6.71999 10.6495 7.03999 10.4595 7.12499C10.4295 7.13999 10.3945 7.14499 10.3645 7.14499ZM10.8795 6.35499V6.34499C10.8795 6.33999 10.8795 6.33999 10.8845 6.33499C10.8895 6.32999 10.8945 6.32499 10.8995 6.32499L10.9445 6.31499H10.9595C10.9645 6.31499 10.9645 6.31999 10.9695 6.31999C11.0495 6.40999 11.1645 6.45999 11.2845 6.45499H11.3445C11.5395 6.42499 11.7045 6.30499 11.8045 6.13499C11.8095 6.12999 11.8145 6.12499 11.8195 6.12499L11.9945 6.08499H11.9995C12.0045 6.08499 12.0095 6.08999 12.0145 6.08999C12.0195 6.09499 12.0195 6.09499 12.0195 6.09999V6.10999C11.9795 6.43499 11.7145 6.72499 11.4145 6.75999C11.1595 6.80499 10.9195 6.61999 10.8795 6.35499ZM12.1745 6.08499V6.07499C12.1745 6.06999 12.1795 6.06999 12.1795 6.06499C12.1845 6.05999 12.1895 6.05499 12.1995 6.05499H12.2545C12.2595 6.05499 12.2695 6.05999 12.2745 6.06499C12.3845 6.18999 12.5395 6.26999 12.7095 6.28499H12.7645C12.9445 6.28499 13.1195 6.20499 13.2345 6.06499C13.2395 6.05999 13.2445 6.05499 13.2545 6.05499H13.4645C13.4695 6.05499 13.4695 6.05999 13.4745 6.05999C13.4745 6.06499 13.4795 6.06499 13.4795 6.06999V6.07999C13.4295 6.38999 13.1595 6.61999 12.8445 6.60999H12.7845C12.4895 6.58999 12.2395 6.37499 12.1745 6.08499ZM13.6245 6.09999V6.08999C13.6245 6.08499 13.6295 6.07999 13.6295 6.07999C13.6345 6.07499 13.6395 6.07499 13.6495 6.07499H13.6545L13.7045 6.08999C13.7095 6.08999 13.7095 6.08999 13.7145 6.09499C13.7195 6.09499 13.7195 6.09999 13.7195 6.09999C13.8095 6.24499 13.9445 6.35999 14.1045 6.42499C14.1595 6.44499 14.2195 6.45499 14.2795 6.45999C14.3845 6.45999 14.4895 6.41999 14.5595 6.33999C14.5595 6.33499 14.5645 6.33499 14.5695 6.33499H14.5845L14.7595 6.37999C14.7645 6.37999 14.7695 6.38499 14.7745 6.38999C14.7795 6.39499 14.7795 6.39999 14.7795 6.40999C14.7695 6.63499 14.5795 6.80999 14.3545 6.80999C14.2895 6.80999 14.2245 6.79499 14.1645 6.77499C13.8795 6.64499 13.6795 6.39499 13.6245 6.09999ZM10.4695 5.78999C10.4695 5.78499 10.4695 5.77999 10.4745 5.77999C10.4745 5.77499 10.4795 5.77499 10.4845 5.76999C11.0695 5.45499 11.9195 5.26999 12.8195 5.26999C13.6245 5.26999 14.3795 5.41499 14.9595 5.66999C14.9645 5.66999 14.9695 5.67499 14.9695 5.67999C14.9745 5.68999 14.9745 5.69999 14.9695 5.70999L14.9595 5.71999L14.7895 5.77499H14.7695C14.1445 5.54999 13.4845 5.43999 12.8195 5.44999C11.9195 5.44999 11.0745 5.62999 10.4945 5.94999C10.4845 5.95499 10.4745 5.95499 10.4695 5.94999L10.4595 5.93999C10.4595 5.93499 10.4545 5.92999 10.4595 5.92499L10.4695 5.78999ZM10.1095 6.36499C10.6395 5.89499 11.6695 5.60499 12.8145 5.60499C13.3795 5.59999 13.9395 5.67999 14.4795 5.83499C14.4845 5.83499 14.4895 5.83999 14.4945 5.84499C14.4995 5.84999 14.4995 5.85499 14.4995 5.85999C14.4995 5.86499 14.4995 5.86999 14.4945 5.87499C14.4895 5.87999 14.4895 5.88499 14.4845 5.88499L14.2495 5.97499H14.2345C13.7695 5.86499 13.2945 5.80999 12.8195 5.80999C11.7095 5.80999 10.6945 6.08999 10.1695 6.53999C10.1645 6.54499 10.1595 6.54499 10.1545 6.54499H10.1445C10.1395 6.54499 10.1345 6.53999 10.1345 6.53999C10.1295 6.53499 10.1295 6.53499 10.1295 6.52999L10.1045 6.39999C10.0945 6.38499 10.0995 6.37499 10.1095 6.36499ZM9.22953 6.30499C9.22953 6.29999 9.23453 6.29999 9.23953 6.29499C9.24453 6.29499 9.24953 6.28999 9.24953 6.28999H9.25453C9.37453 6.32499 9.65453 6.46499 9.69453 6.96499C9.71453 7.14499 9.66953 7.32499 9.55953 7.46999C9.48953 7.57999 9.36953 7.64499 9.23953 7.64499C9.13453 7.64999 9.04453 7.56499 9.03953 7.45999C9.03453 7.35999 9.10953 7.27999 9.20453 7.26499C9.34953 7.19999 9.43453 7.04999 9.42453 6.88999C9.40953 6.57499 9.30453 6.42499 9.21453 6.32999C9.20953 6.32499 9.20953 6.31999 9.20953 6.31499C9.21953 6.31499 9.21953 6.30999 9.22953 6.30499ZM9.66953 7.64999C9.59953 7.91499 9.42953 7.94999 9.25953 7.94999C9.17953 7.94999 9.10453 7.90499 9.06953 7.83499C9.05953 7.82499 9.06453 7.80999 9.07453 7.79999H9.07953C9.08453 7.79999 9.08453 7.79499 9.08953 7.79499H9.09453C9.12953 7.80499 9.16453 7.80999 9.20453 7.81499C9.36453 7.82499 9.51953 7.74999 9.61953 7.62499C9.62453 7.61999 9.62953 7.61499 9.63953 7.61499H9.64953C9.65453 7.61999 9.65953 7.62499 9.65953 7.62999V7.64999H9.66953ZM7.13953 7.11999C7.42953 6.56499 7.92953 6.24499 8.50953 6.24499H8.52953C8.92953 6.24999 9.24453 6.44999 9.36953 6.77999V6.79999C9.36953 6.80499 9.36453 6.80999 9.35953 6.81499H9.34953C9.33953 6.81499 9.33453 6.80999 9.32953 6.80499C9.13953 6.55999 8.83953 6.42499 8.52953 6.43499H8.50953C8.08953 6.42999 7.68453 6.59999 7.38953 6.89999C7.31453 6.97499 7.24453 7.05499 7.18453 7.14499C7.18453 7.14999 7.17953 7.14999 7.17453 7.15499C7.16953 7.15499 7.16453 7.15999 7.16453 7.15999H7.14953C7.13953 7.15999 7.13453 7.15499 7.12953 7.14499C7.12953 7.13999 7.12453 7.13999 7.12453 7.13499C7.12453 7.12999 7.12453 7.12499 7.12953 7.12499C7.12953 7.11999 7.13953 7.11999 7.13953 7.11999ZM11.4145 12.99C10.6295 13.02 9.27953 12.32 8.37953 11.37L8.38453 11.365C7.53953 10.46 7.04953 9.39499 7.03953 8.43999C7.03453 7.89499 7.21453 7.39499 7.54453 7.06499C7.79953 6.80499 8.15453 6.65999 8.51953 6.66499C8.83453 6.66499 9.14953 6.82499 9.23953 7.15999H9.20453C9.02953 7.15499 8.87453 7.27999 8.83953 7.44999C8.79953 7.55999 8.78953 7.67499 8.80953 7.78999C8.83953 8.01499 9.02953 8.17999 9.25453 8.18499C9.66953 8.18499 9.82953 7.94499 9.88953 7.68999C9.97953 8.31499 10.1295 9.05499 10.3845 10.08C10.7245 11.46 11.1095 12.37 11.4395 12.95C11.4245 12.96 11.4145 12.97 11.4045 12.985L11.4145 12.99ZM13.7945 13.93C13.7945 13.935 13.7895 13.935 13.7895 13.94C13.7895 13.945 13.7845 13.945 13.7795 13.945H13.7595C13.4595 13.845 13.1495 13.795 12.8345 13.805C12.5495 13.8 12.2695 13.835 11.9995 13.915H11.9795C11.9745 13.91 11.9695 13.905 11.9695 13.9L11.9395 13.78V13.76C11.9445 13.755 11.9495 13.75 11.9545 13.75C12.2395 13.665 12.5395 13.625 12.8395 13.63C13.0695 13.63 13.2945 13.65 13.5195 13.695H13.5495C13.6445 13.695 13.7695 13.585 13.8245 13.465C13.8295 13.455 13.8395 13.45 13.8495 13.45H13.8595L13.9145 13.465C13.9195 13.465 13.9245 13.47 13.9295 13.48C13.9345 13.485 13.9345 13.495 13.9295 13.5L13.7945 13.93ZM13.9745 12.84C13.7095 12.73 13.2695 12.665 12.8295 12.665C12.4445 12.655 12.0645 12.715 11.7045 12.84H11.6845C11.6795 12.84 11.6795 12.835 11.6745 12.835C11.6745 12.83 11.6695 12.83 11.6695 12.825L11.6095 12.635C11.6045 12.625 11.6095 12.615 11.6195 12.61C11.8045 12.47 12.2895 12.375 12.8295 12.375C13.0345 12.375 13.2345 12.39 13.4395 12.43H13.4495C13.4795 12.435 13.5095 12.44 13.5395 12.44C13.6045 12.445 13.6695 12.415 13.7045 12.36C13.8795 12.13 14.3445 11.25 14.5845 10.495C14.6845 10.185 14.6295 10.11 14.5595 10.075C14.5345 10.065 14.5095 10.055 14.4845 10.055C14.3895 10.055 14.3095 10.17 14.2195 10.44C14.0695 10.875 13.8945 11.3 13.7045 11.72C13.6995 11.73 13.6895 11.735 13.6795 11.735H13.6695L13.6095 11.715C13.6045 11.715 13.6045 11.715 13.5995 11.71C13.5945 11.71 13.5945 11.705 13.5945 11.7C13.5895 11.695 13.5895 11.685 13.5945 11.68C13.7295 11.305 13.8445 10.92 13.9345 10.53L13.9595 10.42C14.0595 10.025 13.9845 9.90999 13.8045 9.82499C13.7595 9.80499 13.7145 9.79499 13.6645 9.78999C13.5195 9.78999 13.3445 9.89999 13.2945 10.205C13.1195 11.25 13.0395 11.66 12.9645 12.02C12.9595 12.03 12.9495 12.04 12.9395 12.04L12.8595 12.035C12.8545 12.035 12.8495 12.03 12.8445 12.025C12.8395 12.02 12.8395 12.015 12.8395 12.005L12.8495 11.745C12.8695 11.235 12.8945 10.705 12.8995 10.22C12.9095 10.08 12.8595 9.93999 12.7645 9.83499C12.6795 9.75499 12.5645 9.70999 12.4495 9.71499C12.4045 9.71499 12.3645 9.71999 12.3195 9.72499C12.0645 9.76999 11.9495 9.94499 11.9695 10.265C11.9745 10.38 12.0245 10.81 12.0245 10.815C12.0245 10.825 12.0245 10.83 12.0145 10.835C12.0095 10.84 12.0045 10.84 11.9995 10.84H11.9945L11.8095 10.79C11.7995 10.79 11.7945 10.78 11.7895 10.77C11.7695 10.69 11.6995 10.31 11.6845 10.24C11.6495 10.015 11.5545 9.89999 11.4045 9.89999C11.3595 9.89999 11.3145 9.90999 11.2695 9.92499C11.0595 10.005 10.9895 10.14 11.0245 10.42V10.435C11.0245 10.44 11.0195 10.445 11.0145 10.445C11.0095 10.45 11.0045 10.45 10.9995 10.45H10.9895L10.8995 10.41C10.8945 10.41 10.8945 10.405 10.8895 10.405C10.8895 10.4 10.8845 10.4 10.8845 10.395C10.8095 10.165 10.7495 9.92999 10.7095 9.68999C10.7095 9.67999 10.7145 9.66999 10.7245 9.66499C11.2045 9.39999 11.9795 9.24499 12.8045 9.24499C13.7195 9.24499 14.5745 9.45499 15.0295 9.78999C15.0395 9.79499 15.0395 9.80499 15.0395 9.81499L15.0145 9.94999C14.7895 10.95 14.4445 11.915 13.9795 12.825C13.9895 12.83 13.9845 12.83 13.9845 12.84C13.9795 12.835 13.9745 12.84 13.9745 12.84ZM17.2795 11.37C16.3745 12.32 15.0245 13.02 14.2445 12.99C14.2345 12.975 14.2245 12.965 14.2145 12.95C14.5495 12.365 14.9345 11.46 15.2695 10.08C15.5245 9.04999 15.6695 8.30999 15.7645 7.68999C15.8295 7.93999 15.9895 8.18499 16.3995 8.18499C16.6245 8.18499 16.8145 8.01499 16.8445 7.78999C16.8645 7.67499 16.8545 7.55999 16.8145 7.44999C16.7795 7.27499 16.6245 7.15499 16.4445 7.15999H16.4095C16.4995 6.82499 16.8145 6.66999 17.1295 6.66499C17.4945 6.65999 17.8495 6.80499 18.1045 7.06499C18.4295 7.38999 18.6145 7.88999 18.6095 8.43999C18.5995 9.39499 18.1095 10.465 17.2645 11.365L17.2795 11.37Z" fill="white"/>
</g>
<defs>
<clipPath id="clip0_21079_292445">
<rect width="24" height="24" fill="white" transform="translate(0.821289 0.25)"/>
</clipPath>
</defs>
</svg>
