<svg width="25" height="25" viewBox="0 0 25 25" fill="none" xmlns="http://www.w3.org/2000/svg">
<path d="M4.94429 7.28289L9.13204 1.22959H13.182L7.97031 8.65155H11.3545L6.08766 11.3337L5.03153 9.98346C4.655 9.49203 4.4851 9.11542 4.4851 8.60103C4.4851 8.13715 4.655 7.69165 4.94429 7.28289ZM8.37898 13.5383C8.37898 13.1111 8.55347 12.6473 8.85653 12.2018L16.5662 1.22959H21.0295L12.3785 13.5383H16.2723L10.2249 16.6155L8.92541 14.9575C8.56725 14.4936 8.37898 14.0343 8.37898 13.5383ZM2.33612 18.1449H1.23408V22.113L1.22949 22.1084C1.22949 22.3243 1.28919 22.4988 1.43612 22.6871L1.87235 23.2153H4.28306V22.2003H2.33612V18.1449ZM7.77745 18.4801C7.70857 18.2459 7.56164 18.1403 7.32745 18.1403H6.0601L4.87082 22.3932L4.87541 22.3886C4.8249 22.5631 4.81572 22.6779 4.81572 22.903V23.2153H5.78919L5.98204 22.4667L7.56623 21.6675L7.95653 23.2107H8.93V22.8984C8.93 22.6733 8.92082 22.5585 8.87031 22.384L7.77745 18.4801ZM6.23919 21.4746L6.81776 19.1553H6.93715L7.51572 21.4746H6.23919ZM10.5371 18.1449H9.4351V22.1038L9.43051 22.1084C9.43051 22.3243 9.49021 22.4988 9.63715 22.6871L10.0734 23.2153H12.4841V22.2003H10.5371V18.1449ZM13.104 18.1449H14.206V23.2199H13.104V18.1449ZM18.8208 19.5916C18.8208 18.6271 18.2101 18.0806 17.131 18.0806H16.6489C15.556 18.0806 14.9591 18.6684 14.9591 19.7477V21.6032C14.9591 22.6825 15.556 23.2704 16.6489 23.2704H17.131C18.2239 23.2704 18.8208 22.6825 18.8208 21.6032V21.4241C18.8208 21.1899 18.7611 21.0245 18.6142 20.8454L18.178 20.3172H16.9519V21.3323H17.7188V21.9706C17.7188 22.159 17.6178 22.26 17.4249 22.26H16.355C16.1621 22.26 16.0611 22.159 16.0611 21.9706V19.3895C16.0611 19.2012 16.1621 19.1002 16.355 19.1002H17.4249C17.6178 19.1002 17.7188 19.2012 17.7188 19.3895V19.5916H18.8208ZM23.2106 22.3886L22.1178 18.4801C22.0489 18.2459 21.9019 18.1403 21.6678 18.1403H20.4004L19.2111 22.3932V22.3886C19.1606 22.5631 19.1514 22.6779 19.1514 22.903V23.2153H20.1249L20.3178 22.4667L21.8973 21.6675L22.2877 23.2107H23.2703V22.8984C23.2703 22.6779 23.2611 22.5585 23.2106 22.3886ZM20.5703 21.4746L21.1489 19.1553H21.2683L21.8468 21.4746H20.5703Z" fill="#FF4B44"/>
</svg>
