<svg width="25" height="25" viewBox="0 0 25 25" fill="none" xmlns="http://www.w3.org/2000/svg">
<g clip-path="url(#clip0_21079_292272)">
<path d="M12.9632 0.249939L2.57324 6.24994V18.2499L12.9632 24.2499L23.3532 18.2499V6.24994L12.9632 0.249939Z" fill="#FFB600"/>
<path d="M12.9635 0.674744L2.93848 6.45974V18.0397L12.9635 23.8247L22.9885 18.0397V6.45974L12.9635 0.674744Z" fill="#101820"/>
<path d="M12.9662 22.1346L21.5263 17.1946L18.8612 15.6546L12.9662 19.0546L7.07125 15.6546L4.40625 17.1946L12.9662 22.1346ZM4.40625 7.30458L7.07125 8.84458L12.9662 5.44458L18.8612 8.84458L21.5263 7.30458L12.9662 2.36458L4.40625 7.30458ZM14.5513 9.18458V15.3146H11.3762V11.4446H10.1162V10.6646C11.1612 10.3596 12.0312 9.74958 12.6362 9.18458H14.5513Z" fill="#FFB600"/>
</g>
<defs>
<clipPath id="clip0_21079_292272">
<rect width="24" height="24" fill="white" transform="translate(0.963867 0.25)"/>
</clipPath>
</defs>
</svg>
