<svg width="25" height="25" viewBox="0 0 25 25" fill="none" xmlns="http://www.w3.org/2000/svg">
<g clip-path="url(#clip0_21079_292285)">
<path d="M1.08691 1.22977H23.1277V23.2706H1.08691V1.22977Z" fill="#FE010A"/>
<path d="M6.22949 8.30592C6.69786 9.01766 7.22592 9.68347 7.77694 10.3355C7.32235 10.1105 6.93204 9.80286 6.63357 9.3896C6.40398 9.07276 6.22949 8.71919 6.22949 8.30592Z" fill="#FDD830"/>
<path d="M11.6562 8.87528C11.1786 11.4513 9.81487 12.8472 9.81487 12.8472L9.78732 12.7783C9.87457 13.3431 9.75977 13.8758 9.43375 14.3763C9.16742 14.7896 8.80926 15.1064 8.41436 15.3957L8.33171 15.4646C9.87457 15.3176 12.9603 15.3452 12.9649 15.336L12.9603 15.3314C11.67 15.3038 9.87457 15.3544 9.87457 15.3544L11.0639 12.7462C11.0822 12.5671 11.119 12.388 11.1649 12.2089C11.3807 11.387 11.7297 10.6156 12.12 9.86252C12.2715 9.56864 12.4368 9.27936 12.6113 8.99466C12.6067 9.00385 12.6021 9.00844 12.6021 9.00844L14.6639 3.28701C14.2139 3.33293 13.7684 3.41099 13.3276 3.51201C12.8133 3.6314 12.2991 3.73701 11.794 3.88395C11.1281 4.07681 10.4669 4.29262 9.81028 4.51762C8.90569 4.82528 8.01946 5.17885 7.17916 5.63803C6.97712 5.74823 6.77967 5.86762 6.60059 6.00997C7.93222 5.04109 10.9582 4.17323 10.9582 4.17323C10.9582 4.17323 12.1337 6.29926 11.6562 8.87528ZM17.7496 4.11813C17.7725 4.03089 17.7679 3.95742 17.7174 3.88395C17.745 3.96201 17.7542 4.04007 17.7496 4.11813ZM15.0817 5.89517C15.1873 5.79874 15.2929 5.70691 15.4031 5.61507L15.3985 5.61966C15.2975 5.70232 15.1919 5.79415 15.0817 5.89517Z" fill="#FDD830"/>
<path d="M7.63184 9.6009C5.98797 7.55753 5.9696 6.68049 6.35072 6.22131C6.34154 6.23049 6.32776 6.24427 6.31858 6.25804C6.11654 6.47386 6.00633 6.72182 6.09817 7.01569C6.16705 7.24069 6.23592 7.46569 6.33235 7.67692C6.5895 8.22335 6.92011 8.72845 7.30123 9.19682C7.40684 9.33457 7.51705 9.46773 7.63184 9.6009Z" fill="#FDD830"/>
<path d="M18.1326 4.65064C18.1143 4.65064 18.0913 4.64605 18.0729 4.65064C17.7837 4.73788 17.4898 4.80676 17.2097 4.92156C16.6449 5.15574 16.1398 5.49094 15.6622 5.87666C15.1893 6.26237 14.7576 6.69401 14.3627 7.15319C14.0321 7.5389 13.7153 7.94758 13.426 8.36543C13.1 8.83839 12.7877 9.32513 12.5076 9.82564C12.1036 10.5511 11.7638 11.3042 11.5342 12.1078C11.3689 12.6818 11.3184 13.2649 11.4928 13.8435C11.5755 14.1236 11.7224 14.3716 12.0025 14.5093C12.1816 14.5966 12.3607 14.6792 12.5352 14.7665C12.7556 14.8721 12.976 14.9777 13.1918 15.0833C13.1964 15.0787 13.201 15.0741 13.2102 15.0741C13.1826 15.042 13.1597 15.0052 13.1275 14.9823C12.9806 14.8721 12.8291 14.7665 12.6821 14.6563C12.3974 14.445 12.2505 14.1557 12.2229 13.8068C12.1954 13.4348 12.3194 13.0996 12.4985 12.7782C12.7556 12.3144 13.1229 11.9333 13.4444 11.52C13.7888 11.0746 14.1469 10.643 14.5051 10.2114C14.7668 9.88992 15.0331 9.57309 15.2949 9.25166C15.3408 9.19656 15.3775 9.13686 15.4189 9.07717C15.4097 9.07258 15.4051 9.06339 15.3959 9.0588C14.7347 9.40319 14.1194 9.81646 13.5408 10.2802C12.9576 10.744 12.4755 11.3088 12.0025 11.8874C12.0071 11.8139 12.0117 11.7404 12.0485 11.6853C12.2367 11.3823 12.4204 11.0792 12.627 10.7899C12.9163 10.3858 13.2745 10.0369 13.6556 9.71543C14.124 9.32054 14.6107 8.95319 15.1296 8.62258C15.3133 8.50319 15.5015 8.38839 15.6806 8.26441C16.0066 8.03482 16.3969 7.88329 16.6036 7.50676C16.6219 7.47462 16.6311 7.43788 16.6449 7.40574C16.6081 7.39197 16.5714 7.36901 16.5347 7.36901C16.4474 7.36901 16.3556 7.37819 16.2684 7.39197C15.8597 7.46543 15.4877 7.64452 15.1296 7.84197C14.8862 7.97513 14.6566 8.14962 14.4408 8.32411C14.1331 8.57207 13.8209 8.82462 13.5546 9.10931C13.1459 9.54095 12.7694 10.0093 12.3791 10.4593L12.2964 10.542C12.2872 10.5374 12.2826 10.5282 12.2735 10.5236C12.3102 10.4547 12.3377 10.3813 12.3837 10.317C12.6729 9.90829 12.9576 9.49503 13.2607 9.10013C13.7704 8.44809 14.3398 7.85574 15.0286 7.39197C15.2076 7.26799 15.3913 7.1486 15.5888 7.04758C15.777 6.95115 15.9791 6.87768 16.1765 6.8088C16.4979 6.6986 16.8286 6.6389 17.1729 6.66186C17.274 6.66646 17.3291 6.74911 17.2923 6.84554C17.2648 6.92819 17.2235 7.00166 17.1867 7.08431C17.1775 7.10727 17.1775 7.13482 17.1684 7.17615C17.6505 6.90523 18.2566 5.28431 18.1326 4.65064Z" fill="#F2A204"/>
<path d="M13.7302 15.386C13.8725 15.4182 14.0195 15.4365 14.1664 15.4457C14.2031 15.4503 14.272 15.4044 14.272 15.3768C14.2858 15.2437 14.295 15.1059 14.2766 14.9728C14.2536 14.8029 14.1113 14.711 13.9873 14.61C13.7577 14.4263 13.5189 14.2518 13.3031 14.0498C13.0965 13.8569 12.9725 13.609 12.9036 13.3381C12.8761 13.2325 12.8669 13.1222 12.8485 13.012C12.8394 13.0075 12.8256 13.0029 12.8164 12.9983C12.7934 13.0304 12.7613 13.058 12.7475 13.0947C12.697 13.2233 12.6465 13.3472 12.6144 13.4804C12.5409 13.811 12.6052 14.1141 12.8623 14.3483C12.9955 14.4677 13.1424 14.5687 13.2894 14.6789C13.4868 14.8258 13.6705 14.9774 13.6429 15.2666C13.6383 15.3034 13.6934 15.3768 13.7302 15.386Z" fill="#FDD830"/>
<path d="M7.63497 9.60068C7.70843 9.69251 7.7865 9.78894 7.86915 9.88537C9.25129 11.543 9.69211 12.5165 9.79313 12.7782L9.82068 12.8471C9.82068 12.8471 11.1799 11.4466 11.662 8.87517C12.135 6.29915 10.9595 4.16394 10.9595 4.16394C10.9595 4.16394 7.92884 5.0318 6.59721 6.00527C6.56966 6.02364 6.5467 6.042 6.52374 6.06037C6.45945 6.11088 6.40435 6.16139 6.34925 6.22568C5.97272 6.68486 5.99109 7.55731 7.63497 9.60068ZM8.6865 6.79506C8.75537 6.62517 8.87476 6.49659 9.02629 6.40017C9.32017 6.20731 9.63701 6.11547 9.99058 6.15221C10.2615 6.17976 10.4727 6.3267 10.5737 6.57466C10.6656 6.79506 10.7345 7.02925 10.7712 7.26802C10.8171 7.54813 10.7069 7.79149 10.5186 8.00272C10.3441 8.20017 10.1651 8.38843 9.98139 8.5767C9.72425 8.84302 9.48547 8.8017 9.20537 8.65476C8.98496 8.53996 8.80129 8.37466 8.64058 8.19098C8.52119 8.04864 8.51201 7.87415 8.50741 7.69047C8.52578 7.38282 8.56711 7.08435 8.6865 6.79506ZM8.31456 7.72721C8.32374 7.67211 8.34211 7.617 8.36047 7.5619C8.36507 7.5619 8.37425 7.56649 8.37884 7.56649V8.05323C8.37884 8.20476 8.43854 8.33792 8.53496 8.44813C8.75537 8.69149 8.99415 8.91649 9.29721 9.05884C9.5819 9.192 9.84823 9.20119 10.11 8.98078C10.4452 8.69608 10.7299 8.36547 10.9824 8.0119C11.1661 7.75476 11.1936 7.45629 11.1431 7.15323C11.0834 6.80884 10.9916 6.47823 10.7574 6.20731C10.5691 5.99149 10.3166 5.90884 10.0319 5.90425C9.97221 5.90425 9.91252 5.90425 9.85282 5.89047C10.1054 5.817 10.3533 5.817 10.5921 5.9318C10.8309 6.0466 11.0054 6.23027 11.1156 6.47364C11.2533 6.7767 11.3681 7.08435 11.3681 7.42415C11.3681 7.72261 11.2809 7.98894 11.1018 8.22772C10.8355 8.58129 10.5508 8.90731 10.2018 9.18282C9.95384 9.38027 9.68752 9.41241 9.39823 9.30221C8.9666 9.1369 8.64058 8.83384 8.38803 8.45272C8.24109 8.23231 8.27323 7.97517 8.31456 7.72721ZM12.6125 8.98996C12.7319 8.80629 13.9992 6.91904 15.0829 5.89506C15.1885 5.79404 15.2941 5.70221 15.3998 5.61955L15.4044 5.61496C16.5982 4.66445 17.6268 4.67823 17.737 4.20068C17.7416 4.17313 17.7462 4.14557 17.7508 4.11343C17.7554 4.03537 17.7508 3.95731 17.7186 3.87925C17.5671 3.46598 16.8462 3.0619 14.6651 3.28231L12.6033 9.00374C12.6033 9.00374 12.6079 8.99915 12.6125 8.98996ZM12.9661 15.3267H12.9936C12.36 14.817 11.8916 14.9961 11.3498 14.266C10.9549 13.7287 11.0697 12.7369 11.0697 12.7369V12.7415L9.88037 15.3497C9.88037 15.3497 11.6758 15.2991 12.9661 15.3267ZM15.8957 20.7588C15.8498 20.5522 15.7441 20.4374 15.5283 20.4282C15.4962 20.4282 15.4457 20.3823 15.4319 20.3456C15.3401 20.0609 15.2574 19.7716 15.1702 19.4869C15.0232 18.991 14.8809 18.4997 14.7248 18.0083C14.711 17.9578 14.6421 17.8981 14.5916 17.8935C14.1462 17.843 13.6962 17.7879 13.2508 17.7558C12.7549 17.7236 12.2589 17.7053 11.7584 17.6961C10.8401 17.6823 9.89874 17.6961 8.98496 17.7696C8.9115 18.0451 8.86558 18.3068 8.86558 18.5318C8.86558 18.766 8.88394 19.0277 8.91609 19.2895C8.94364 19.5236 8.98037 19.7578 9.01711 19.9782C10.0962 19.9139 11.2028 19.9002 12.2865 19.9277C13.0901 19.9461 13.8936 19.9828 14.6926 20.0792C14.8625 20.0976 14.8947 20.1343 14.8947 20.3318C14.8625 20.3318 14.835 20.3364 14.8028 20.3318C14.4079 20.2951 14.013 20.2446 13.6181 20.2262C12.9523 20.194 12.2865 20.1711 11.6207 20.1665C10.7758 20.1619 9.90792 20.1711 9.06303 20.217C9.10894 20.4696 9.15486 20.6854 9.1916 20.8461C9.21456 20.9425 9.22833 21.016 9.24211 21.0619C9.60027 21.0435 9.98139 21.0298 10.3441 21.0206C10.7896 20.9976 11.3268 20.9747 11.864 20.9747C12.2176 20.9747 12.5758 20.9838 12.911 21.0068C13.2324 21.0298 13.6135 21.0619 14.0176 21.094C14.6972 21.1354 15.3768 21.1951 16.0564 21.2639C16.0426 21.1997 16.038 21.1629 16.0242 21.1262C15.9829 21.0022 15.9232 20.8874 15.8957 20.7588Z" fill="#FEC704"/>
<path d="M9.06299 20.2169C8.73697 20.2353 8.41095 20.2582 8.08493 20.2904C7.72218 20.3271 7.35942 20.3868 6.99208 20.4373C6.85891 20.4557 6.77167 20.5062 6.74412 20.6531C6.70738 20.8276 6.6431 20.9975 6.59259 21.172C6.5834 21.1996 6.5834 21.2317 6.57422 21.2822C7.46503 21.1812 8.35585 21.1077 9.24208 21.0618C9.23289 21.0159 9.21452 20.9424 9.19157 20.846C9.15483 20.6853 9.10891 20.4649 9.06299 20.2169ZM8.86554 18.5363C8.86554 18.3113 8.91146 18.045 8.98493 17.7741C8.65891 17.8016 8.33289 17.8338 8.00687 17.8797C7.91963 17.8934 7.87371 17.921 7.85075 18.0082C7.69463 18.5455 7.52932 19.0827 7.36861 19.6246C7.3181 19.7945 7.27218 19.9644 7.22167 20.148C7.27677 20.1434 7.3135 20.1434 7.35024 20.1389C7.89208 20.0838 8.42932 20.0149 8.97116 19.9827C8.98493 19.9827 8.99871 19.9827 9.01248 19.9781C8.97575 19.7577 8.93901 19.5235 8.91146 19.2894C8.8885 19.0276 8.86554 18.7659 8.86554 18.5363ZM9.54054 16.2955C9.49922 16.3001 9.4533 16.3047 9.41197 16.3093C9.01248 16.3552 8.61759 16.447 8.22269 16.5205C8.14003 16.5343 8.11708 16.5848 8.11708 16.6628C8.12167 16.9062 8.11708 17.145 8.12167 17.3883C8.12167 17.4389 8.12626 17.494 8.13085 17.5582C8.18595 17.5536 8.23187 17.5491 8.27779 17.5445C8.54412 17.5215 8.81503 17.4894 9.08136 17.4618V17.4572C9.21452 17.0394 9.39361 16.6215 9.54054 16.2955Z" fill="#FDD830"/>
<path d="M11.0516 15.6573C10.6797 15.6573 10.3124 15.6619 9.94041 15.6757L9.83939 15.6802C9.82562 15.7078 9.74296 15.8639 9.64194 16.0751C9.77511 16.0614 9.91286 16.0522 10.046 16.043C10.6062 16.0109 11.171 16.0246 11.7312 16.0155C11.7726 16.0155 11.8093 16.0155 11.8506 16.0246C11.869 16.0292 11.8965 16.0568 11.8965 16.0706C11.8965 16.0935 11.8782 16.1302 11.8598 16.1394C11.8231 16.1532 11.7817 16.1532 11.745 16.1578C11.5797 16.1624 11.4144 16.1532 11.2491 16.167C10.6797 16.2083 10.1103 16.2405 9.54092 16.3001V16.3047C9.38939 16.6308 9.2149 17.0486 9.07715 17.4665C9.39399 17.4343 9.71541 17.4068 10.0323 17.3976C10.9093 17.3746 11.7909 17.393 12.668 17.4022C13.0169 17.4068 13.3659 17.4389 13.7149 17.4573C13.7379 17.4573 13.7562 17.4665 13.7792 17.4665C13.9583 17.4894 14.1328 17.517 14.3118 17.5353C14.3807 17.5445 14.4083 17.5078 14.4083 17.4389V15.9787C14.4083 15.9052 14.3715 15.8731 14.3072 15.8639C14.096 15.8318 13.8894 15.7904 13.6782 15.7767C13.2144 15.7445 12.746 15.717 12.2777 15.6986C11.8736 15.6757 11.4649 15.6619 11.0516 15.6573Z" fill="#FEC704"/>
<path d="M8.38428 15.8088C8.06286 15.8547 8.13173 15.7904 8.12255 16.121C8.11796 16.2128 8.14551 16.2312 8.24194 16.222C8.7103 16.1715 9.17867 16.1118 9.65163 16.0705C9.75724 15.8501 9.8353 15.7031 9.84908 15.6756C9.35316 15.7031 8.86643 15.7399 8.38428 15.8088Z" fill="#FDD830"/>
</g>
<defs>
<clipPath id="clip0_21079_292285">
<rect width="22.0408" height="22.0408" fill="white" transform="translate(1.08691 1.22977)"/>
</clipPath>
</defs>
</svg>
