<svg width="25" height="25" viewBox="0 0 25 25" fill="none" xmlns="http://www.w3.org/2000/svg">
<g clip-path="url(#clip0_21079_292450)">
<path d="M13.8324 14.2636C13.6844 14.8882 13.4854 15.4996 13.2375 16.0917C13.2336 16.0996 13.2278 16.1064 13.2206 16.1115C13.2134 16.1165 13.205 16.1196 13.1963 16.1205C12.5633 16.174 11.927 16.174 11.2941 16.1205C11.2853 16.1196 11.2769 16.1165 11.2697 16.1115C11.2625 16.1064 11.2567 16.0996 11.2529 16.0917C11.0047 15.4999 10.8064 14.8884 10.66 14.2636C10.6575 14.2552 10.6576 14.2462 10.6602 14.2378C10.6627 14.2294 10.6677 14.2219 10.6744 14.2162C11.1576 13.7992 11.6748 13.4233 12.2205 13.0922C12.2281 13.0873 12.2371 13.0846 12.2462 13.0846C12.2553 13.0846 12.2643 13.0873 12.2719 13.0922C12.817 13.4233 13.3334 13.7993 13.8159 14.2162C13.8228 14.2218 13.828 14.2292 13.831 14.2376C13.8339 14.2459 13.8344 14.255 13.8324 14.2636Z" fill="#0D0803"/>
<path d="M24.1371 15.6613C24.0403 15.2496 23.8798 14.5887 23.6595 13.7261H23.3919C22.941 11.9824 22.484 10.4179 21.9817 8.89032H22.5787C22.3093 7.93439 21.87 7.0348 21.2817 6.23463C21.607 5.50998 21.8993 4.8512 21.9425 4.0545H21.6235C21.7387 2.35197 20.4974 1.42969 19.3713 1.42969C18.8772 1.42969 18.5478 1.66232 18.2266 1.85583C17.9981 1.99994 16.4624 3.07663 16.135 3.30926C15.3779 3.03501 14.5809 2.88687 13.7758 2.87076C13.2639 2.85703 12.7533 2.85086 12.2441 2.85223C11.735 2.8536 11.2237 2.85978 10.7104 2.87076C9.90625 2.88758 9.11014 3.03498 8.35325 3.3072C7.66359 2.81929 6.99041 2.34991 6.31516 1.88671C6.27399 1.85926 6.23282 1.83456 6.19164 1.8126C5.66462 1.4791 5.27554 1.33087 4.60647 1.49762C3.44743 1.78584 2.1937 3.0478 3.25392 5.60056C3.34244 5.80643 3.43508 6.02465 3.52772 6.23463C2.9423 7.03857 2.49877 7.93676 2.21635 8.89032H2.86277C2.60338 9.68085 2.35634 10.4878 2.11341 11.3113H1.49581C0.826745 13.6479 0.41501 15.3834 0.244141 16.0998C4.02592 19.3216 6.75572 21.4256 11.0748 24.0977C11.1078 24.0792 12.1989 23.4245 12.2441 23.3998L13.4073 24.1018C15.8713 22.5911 18.2474 20.9415 20.5241 19.161H19.538C19.796 18.9634 20.0554 18.7617 20.3162 18.5558H21.2879C21.6832 18.2387 22.0825 17.9135 22.4881 17.5759C23.0707 17.0921 23.4598 16.7524 24.2441 16.0936C24.2091 15.9536 24.1741 15.8075 24.1371 15.6613ZM14.556 9.07354L16.0383 8.59181C16.0452 8.58783 16.053 8.58574 16.0609 8.58574C16.0689 8.58574 16.0767 8.58783 16.0836 8.59181C16.0889 8.59753 16.0928 8.60442 16.0949 8.61194C16.0971 8.61945 16.0974 8.62737 16.0959 8.63504L15.7892 10.0761C15.7875 10.0841 15.7838 10.0915 15.7783 10.0977C15.7729 10.1038 15.766 10.1084 15.7583 10.1111C15.751 10.1151 15.7429 10.1172 15.7346 10.1172C15.7263 10.1172 15.7182 10.1151 15.7109 10.1111C15.2354 9.69938 14.871 9.4091 14.5396 9.15383C14.5327 9.1487 14.5274 9.14182 14.5242 9.13393C14.521 9.12603 14.5199 9.11741 14.5212 9.10898C14.5225 9.10054 14.526 9.0926 14.5314 9.086C14.5368 9.0794 14.5439 9.07439 14.5519 9.07148L14.556 9.07354ZM8.40266 8.59181C8.40954 8.58783 8.41735 8.58574 8.4253 8.58574C8.43325 8.58574 8.44106 8.58783 8.44795 8.59181L9.93019 9.07354C9.93826 9.0766 9.94548 9.08157 9.95121 9.08802C9.95695 9.09448 9.96104 9.10222 9.96313 9.1106C9.96424 9.11931 9.9629 9.12816 9.95927 9.13616C9.95563 9.14416 9.94984 9.15099 9.94255 9.15589C9.6111 9.41116 9.24671 9.70967 8.77116 10.1132C8.7639 10.1171 8.75576 10.1192 8.74749 10.1192C8.73921 10.1192 8.73107 10.1171 8.72381 10.1132C8.7146 10.111 8.70612 10.1064 8.69925 10.0999C8.69238 10.0934 8.68736 10.0852 8.6847 10.0761L8.37795 8.63504C8.37788 8.62629 8.38012 8.61768 8.38446 8.61009C8.3888 8.60249 8.39508 8.59618 8.40266 8.59181ZM11.0789 23.3196C9.8849 22.5743 8.69499 21.7982 7.52772 20.9809H8.47883C8.1865 20.775 7.89622 20.5692 7.61007 20.3756H6.67749C4.60647 18.8831 2.8813 17.4729 0.985263 15.8589C1.27348 14.6484 1.59051 13.4215 1.99195 11.9742H2.55191C2.92041 10.6937 3.29509 9.47086 3.7233 8.22331H3.17363C3.39561 7.65537 3.69339 7.12007 4.05886 6.63195L4.29561 6.31904L4.13503 5.95877C4.03416 5.73231 3.94563 5.53056 3.8674 5.34117C3.45567 4.37565 3.41038 3.55424 3.70683 2.96752C3.83066 2.71369 4.02324 2.49971 4.26267 2.34991C3.59978 3.48424 4.15356 4.59387 5.01203 6.26139C5.03055 6.29639 5.04908 6.32933 5.06555 6.36638C3.94975 8.03391 2.53544 13.5759 2.06401 15.5069C5.17569 18.1912 8.50196 20.6162 12.0095 22.7575C11.7995 22.8934 12.0197 22.7575 11.081 23.3196H11.0789ZM9.7408 15.474V12.4724C9.74198 12.1832 9.81862 11.8994 9.96313 11.6489C10.8442 10.1235 11.3527 9.24029 11.4577 9.06119C11.5378 8.92176 11.6533 8.80594 11.7924 8.72539C11.9316 8.64484 12.0895 8.60243 12.2503 8.60243C12.4111 8.60243 12.569 8.64484 12.7082 8.72539C12.8474 8.80594 12.9628 8.92176 13.0429 9.06119L14.4284 11.4595L14.5396 11.6531C14.6847 11.9033 14.7614 12.1873 14.7619 12.4765V15.4678C14.7454 17.967 9.75109 17.9794 9.7408 15.474ZM21.0635 17.897H20.1824C19.3321 18.5723 18.4943 19.2084 17.6337 19.8322H18.554C16.9482 21.0221 15.2972 22.1379 13.4073 23.3319C13.2014 23.2084 12.6826 22.8975 12.4829 22.7678C15.99 20.6258 19.3162 18.2009 22.4284 15.5172C21.9796 13.6747 20.5756 8.22537 19.571 6.60519C20.3512 5.04883 20.9935 3.65511 20.2318 2.36638C21.1458 2.96958 21.1376 4.07097 20.9112 4.72768H21.1561C20.9825 5.27693 20.7678 5.81232 20.5138 6.32933C20.9839 6.89934 21.3636 7.5381 21.6399 8.22331H21.0635C21.6811 10.107 22.064 11.2454 22.8772 14.3993H23.1428C23.2622 14.879 23.3774 15.3443 23.501 15.8672C22.9307 16.3448 22.1072 17.0468 21.0532 17.8991L21.0635 17.897Z" fill="#0D0803"/>
<path d="M16.095 8.63524L15.7883 10.0763C15.7866 10.0843 15.7829 10.0917 15.7775 10.0979C15.772 10.104 15.7651 10.1086 15.7574 10.1113C15.7501 10.1153 15.742 10.1173 15.7337 10.1173C15.7255 10.1173 15.7173 10.1153 15.7101 10.1113C15.2345 9.69957 14.8701 9.4093 14.5387 9.15402C14.5319 9.14889 14.5266 9.14202 14.5233 9.13412C14.5201 9.12623 14.5191 9.11761 14.5203 9.10917C14.5216 9.10074 14.5251 9.0928 14.5305 9.0862C14.5359 9.0796 14.543 9.07458 14.551 9.07168L16.0333 8.58995C16.0402 8.58597 16.048 8.58388 16.0559 8.58388C16.0639 8.58388 16.0717 8.58597 16.0786 8.58995C16.0849 8.59546 16.0898 8.60252 16.0927 8.61045C16.0956 8.61838 16.0964 8.62691 16.095 8.63524ZM23.5063 15.8591C22.936 16.345 22.1125 17.047 21.0585 17.8972H20.1815C19.3313 18.5724 18.4934 19.2086 17.6329 19.8324H18.5531C16.9473 21.0223 15.2963 22.1381 13.4064 23.3321C13.2005 23.2086 12.6818 22.8977 12.4821 22.768C15.9891 20.626 19.3154 18.2011 22.4275 15.5174C21.9787 13.6749 20.5747 8.22556 19.5701 6.60539C20.3503 5.04903 20.9926 3.65531 20.2309 2.36658C21.145 2.96977 21.1367 4.07116 20.9103 4.72788H21.1552C20.9816 5.27713 20.7669 5.81252 20.5129 6.32953C20.983 6.89953 21.3628 7.53829 21.639 8.2235H21.0626C21.6802 10.1072 22.0631 11.2456 22.8763 14.3995H23.1419C23.2613 14.871 23.3766 15.3362 23.5063 15.8591ZM14.5304 11.645L14.4193 11.4515L13.0338 9.04697C12.9537 8.90755 12.8382 8.79172 12.6991 8.71118C12.5599 8.63063 12.402 8.58822 12.2412 8.58822C12.0804 8.58822 11.9225 8.63063 11.7833 8.71118C11.6441 8.79172 11.5287 8.90755 11.4486 9.04697C11.3436 9.22608 10.831 10.1092 9.95401 11.6347C9.8095 11.8852 9.73286 12.169 9.73167 12.4582V15.4597C9.73167 17.9651 14.7363 17.9528 14.7384 15.4597V12.4685C14.7422 12.1805 14.6705 11.8966 14.5304 11.645ZM13.2335 16.0917C13.2296 16.0997 13.2239 16.1065 13.2166 16.1115C13.2094 16.1166 13.2011 16.1197 13.1923 16.1206C12.5594 16.1741 11.923 16.1741 11.2901 16.1206C11.2813 16.1197 11.273 16.1166 11.2657 16.1115C11.2585 16.1065 11.2527 16.0997 11.2489 16.0917C11.0007 15.4999 10.8024 14.8885 10.656 14.2636C10.6536 14.2552 10.6536 14.2462 10.6562 14.2378C10.6587 14.2294 10.6637 14.2219 10.6704 14.2163C11.1536 13.7993 11.6708 13.4233 12.2165 13.0923C12.2242 13.0873 12.2331 13.0847 12.2422 13.0847C12.2514 13.0847 12.2603 13.0873 12.268 13.0923C12.813 13.4233 13.3295 13.7993 13.812 14.2163C13.8189 14.2219 13.8241 14.2292 13.827 14.2376C13.8299 14.246 13.8304 14.255 13.8284 14.2636C13.6804 14.8882 13.4814 15.4997 13.2335 16.0917ZM9.96225 9.1005C9.96335 9.10921 9.96202 9.11807 9.95838 9.12607C9.95474 9.13406 9.94895 9.14089 9.94166 9.14579C9.61021 9.40106 9.24583 9.69957 8.77027 10.1031C8.76301 10.107 8.75487 10.1091 8.7466 10.1091C8.73833 10.1091 8.73019 10.107 8.72292 10.1031C8.71479 10.1019 8.70703 10.0989 8.70024 10.0943C8.69346 10.0896 8.68784 10.0835 8.68381 10.0763L8.37707 8.63524C8.37572 8.62691 8.37652 8.61838 8.37941 8.61045C8.38229 8.60252 8.38715 8.59546 8.39354 8.58995C8.40042 8.58597 8.40823 8.58388 8.41618 8.58388C8.42413 8.58388 8.43194 8.58597 8.43883 8.58995L9.92107 9.07168C9.92977 9.07274 9.93807 9.07593 9.94525 9.08095C9.95243 9.08598 9.95827 9.09269 9.96225 9.1005ZM12.0086 22.7577C11.8027 22.8936 12.0189 22.7577 11.0801 23.3197C9.88607 22.5745 8.69616 21.7984 7.52889 20.9811H8.47794C8.18561 20.7752 7.89534 20.5694 7.60918 20.3758H6.6766C4.60558 18.8833 2.88041 17.4731 0.984375 15.8591C1.27259 14.6486 1.58962 13.4217 1.99107 11.9744H2.55102C2.91953 10.6939 3.29421 9.47106 3.72241 8.2235H3.17274C3.39473 7.65557 3.6925 7.12027 4.05797 6.63215L4.29472 6.31923L4.13414 5.95897C4.03327 5.73251 3.94475 5.53076 3.86652 5.34136C3.45478 4.37585 3.40949 3.55444 3.70594 2.96771C3.82977 2.71389 4.02236 2.49991 4.26178 2.35011C3.59889 3.48444 4.15267 4.59407 5.01114 6.26159C5.02967 6.29659 5.04819 6.32953 5.06466 6.36658C3.94886 8.03411 2.53456 13.5761 2.06312 15.5071C5.1748 18.1914 8.50107 20.6164 12.0086 22.7577Z" fill="white"/>
</g>
<defs>
<clipPath id="clip0_21079_292450">
<rect width="24" height="24" fill="white" transform="translate(0.25 0.678558)"/>
</clipPath>
</defs>
</svg>
