<svg width="25" height="25" viewBox="0 0 25 25" fill="none" xmlns="http://www.w3.org/2000/svg">
<path d="M6.03942 21.1119C6.02553 21.098 6.01626 21.0703 6.03479 21.0517L6.31727 20.7276C6.33116 20.709 6.35431 20.709 6.37284 20.7229C6.53954 20.8572 6.76645 20.9823 7.03504 20.9823C7.299 20.9823 7.44718 20.8572 7.44718 20.6813C7.44718 20.5331 7.35457 20.4405 7.05356 20.3988L6.91927 20.3803C6.40525 20.3062 6.12277 20.0654 6.12277 19.6254C6.12277 19.1577 6.47471 18.8521 7.02115 18.8521C7.35456 18.8521 7.66483 18.9493 7.88248 19.1161C7.90563 19.1299 7.90563 19.1485 7.88711 19.1716L7.6602 19.5097C7.64631 19.5282 7.62778 19.5328 7.60926 19.5236C7.4194 19.3939 7.22953 19.3337 7.02115 19.3337C6.79887 19.3337 6.6831 19.4495 6.6831 19.6115C6.6831 19.7597 6.78961 19.8524 7.07672 19.8894L7.21101 19.9079C7.73429 19.982 8.00751 20.2136 8.00751 20.6766C8.00751 21.1305 7.66946 21.4731 7.01189 21.4731C6.61827 21.4546 6.23854 21.3018 6.03942 21.1119Z" fill="#1A1659"/>
<path d="M8.30371 18.9263C8.30371 18.9032 8.3176 18.8893 8.34076 18.8893H9.96154C9.98469 18.8893 9.99858 18.9032 9.99858 18.9263V19.3246C9.99858 19.3478 9.98469 19.3616 9.96154 19.3616H8.86867C8.85478 19.3616 8.84551 19.3663 8.84551 19.3848V19.8896C8.84551 19.9034 8.85015 19.9127 8.86867 19.9127H9.7763C9.79946 19.9127 9.81335 19.9266 9.81335 19.9498V20.3434C9.81335 20.3665 9.79946 20.3804 9.7763 20.3804H8.86867C8.85478 20.3804 8.84551 20.385 8.84551 20.4036V20.9269C8.84551 20.9407 8.85015 20.95 8.86867 20.95H9.95691C9.98006 20.95 9.99395 20.9639 9.99395 20.9871V21.3853C9.99395 21.4085 9.98006 21.4223 9.95691 21.4223H8.34076C8.3176 21.4223 8.30371 21.4085 8.30371 21.3853V18.9263Z" fill="#1A1659"/>
<path d="M11.7283 21.4131C11.6959 21.4131 11.6867 21.3992 11.6728 21.3761L11.2375 20.4499H10.8948C10.8809 20.4499 10.8716 20.4545 10.8716 20.473V21.3761C10.8716 21.3992 10.8577 21.4131 10.8346 21.4131H10.3622C10.3391 21.4131 10.3252 21.3992 10.3252 21.3761V18.9171C10.3252 18.8939 10.3391 18.8801 10.3622 18.8801H11.3718C11.8858 18.8801 12.2331 19.2042 12.2331 19.6673C12.2331 19.9914 12.0617 20.2461 11.7839 20.3665L12.2794 21.3622C12.2933 21.3853 12.2794 21.4038 12.2562 21.4038H11.7283V21.4131ZM11.6913 19.6719C11.6913 19.4821 11.557 19.357 11.3486 19.357H10.8948C10.8809 19.357 10.8716 19.3617 10.8716 19.3802V19.9683C10.8716 19.9822 10.8763 19.9914 10.8948 19.9914H11.344C11.5524 19.9868 11.6913 19.8664 11.6913 19.6719Z" fill="#1A1659"/>
<path d="M12.5742 18.9263C12.5742 18.9032 12.5881 18.8893 12.6113 18.8893H13.0836C13.1068 18.8893 13.1207 18.9032 13.1207 18.9263V21.3853C13.1207 21.4085 13.1068 21.4223 13.0836 21.4223H12.6159C12.5927 21.4223 12.5788 21.4085 12.5788 21.3853V18.9263H12.5742Z" fill="#1A1659"/>
<path d="M13.5322 18.9263C13.5322 18.9032 13.5461 18.8893 13.5693 18.8893H15.1901C15.2132 18.8893 15.2271 18.9032 15.2271 18.9263V19.3246C15.2271 19.3477 15.2132 19.3616 15.1901 19.3616H14.1018C14.0879 19.3616 14.0787 19.3663 14.0787 19.3848V19.8895C14.0787 19.9034 14.0833 19.9127 14.1018 19.9127H15.0095C15.0326 19.9127 15.0465 19.9266 15.0465 19.9497V20.3434C15.0465 20.3665 15.0326 20.3804 15.0095 20.3804H14.1018C14.0879 20.3804 14.0787 20.385 14.0787 20.4036V20.9268C14.0787 20.9407 14.0833 20.95 14.1018 20.95H15.1901C15.2132 20.95 15.2271 20.9639 15.2271 20.987V21.3853C15.2271 21.4084 15.2132 21.4223 15.1901 21.4223H13.5693C13.5461 21.4223 13.5322 21.4084 13.5322 21.3853V18.9263Z" fill="#1A1659"/>
<path d="M17.0465 18.9263C17.0511 18.9032 17.0696 18.8893 17.0974 18.8893H17.5605C17.5837 18.8893 17.6022 18.9032 17.6114 18.9263L18.4635 21.3853C18.4681 21.4084 18.4635 21.4223 18.4404 21.4223H17.9541C17.931 21.4223 17.9124 21.4084 17.9032 21.3853L17.755 20.9407H16.8705L16.727 21.3853C16.7223 21.4084 16.7038 21.4223 16.676 21.4223H16.1898C16.1666 21.4223 16.1574 21.4084 16.1666 21.3853L17.0465 18.9263ZM17.6114 20.473L17.3243 19.5885H17.3104L17.0233 20.473H17.6114Z" fill="#1A1659"/>
<path d="M6.08398 13.7455H9.85346L12.2429 17.6539L6.08398 13.7455Z" fill="#1A1659"/>
<path d="M18.4133 13.7452H14.6346L12.2451 17.6536L18.4133 13.7452Z" fill="#1A1659"/>
<path d="M9.85547 13.7454H14.6345L12.245 7.43822L9.85547 13.7454Z" fill="#1A1659"/>
<path d="M12.245 17.6538L14.6345 13.7454H9.85547L12.245 17.6538Z" fill="url(#paint0_linear_21079_292457)"/>
<path d="M12.2439 7.4383L13.2766 10.1612H11.9753L11.0909 12.509H14.1703L14.638 13.7501H18.4168L13.9481 3.35394H10.5444L6.08496 13.7455H9.86369L12.2439 7.4383Z" fill="url(#paint1_linear_21079_292457)"/>
<path d="M6.1084 22.6492H10.1974V23.5779H6.1084V22.6492Z" fill="#00A346"/>
<path d="M10.1953 22.6492H14.2843V23.5779H10.1953V22.6492Z" fill="#E2E2E2"/>
<path d="M14.291 22.6492H18.38V23.5779H14.291V22.6492Z" fill="#DB052B"/>
<defs>
<linearGradient id="paint0_linear_21079_292457" x1="9.85631" y1="15.7004" x2="14.2833" y2="15.7004" gradientUnits="userSpaceOnUse">
<stop stop-color="#31ECFF"/>
<stop offset="0.049" stop-color="#2DE2FF"/>
<stop offset="0.296" stop-color="#1BB2FF"/>
<stop offset="0.515" stop-color="#0E90FF"/>
<stop offset="0.694" stop-color="#067BFF"/>
<stop offset="0.812" stop-color="#0373FF"/>
</linearGradient>
<linearGradient id="paint1_linear_21079_292457" x1="15.7881" y1="4.02125" x2="11.8417" y2="14.8637" gradientUnits="userSpaceOnUse">
<stop stop-color="#31ECFF"/>
<stop offset="0.049" stop-color="#2DE2FF"/>
<stop offset="0.293" stop-color="#1BB2FF"/>
<stop offset="0.509" stop-color="#0E90FF"/>
<stop offset="0.686" stop-color="#067BFF"/>
<stop offset="0.803" stop-color="#0373FF"/>
</linearGradient>
</defs>
</svg>
