<svg width="25" height="25" viewBox="0 0 25 25" fill="none" xmlns="http://www.w3.org/2000/svg">
<g clip-path="url(#clip0_21079_292323)">
<path d="M13.9653 10.4936H15.7893V9.95365H13.9653V9.45846H15.986V8.90214H13.2722V11.5173H13.9653V10.4936ZM13.9653 14.4938H15.7893V13.9593H13.9653V13.4647H15.986V12.9023H13.2722V15.5175H13.9653V14.4938ZM11.7788 14.9612H9.62673V14.449H11.4864V13.9151H9.62673V13.4647H11.757V12.9023H8.93359V15.5175H11.7788V14.9612ZM11.0778 9.80352C11.0778 9.9149 11.0354 9.99239 10.95 10.0481C10.8647 10.0983 10.7309 10.1201 10.5487 10.1201H9.5898V9.45846H10.5856C10.7606 9.45846 10.8871 9.48631 10.9634 9.53595C11.0396 9.58559 11.0778 9.66429 11.0778 9.78112V9.80352ZM11.2515 10.5881C11.4065 10.5215 11.5203 10.4319 11.5941 10.3205C11.6874 10.1758 11.7352 10.0093 11.7352 9.80836V9.78596C11.7352 9.5075 11.6389 9.29078 11.447 9.1352C11.2551 8.97963 10.9743 8.90154 10.6044 8.90154H8.9342V11.5167H9.59101V10.6819H10.5753L11.0638 11.5167H11.8557L11.2515 10.5875V10.5881Z" fill="#221C35"/>
<path d="M0.386719 12.2129C0.386719 18.8058 5.77016 24.1693 12.3861 24.1693C19.0021 24.1693 24.3867 18.8058 24.3867 12.2129C24.3867 5.61933 19.0027 0.250412 12.3861 0.250412C5.76956 0.250412 0.386719 5.61933 0.386719 12.2129ZM1.71608 12.2129C1.71608 6.35907 6.51596 1.57433 12.3861 1.57433C18.2563 1.57433 23.0561 6.35907 23.0561 12.2123C23.0561 18.0655 18.2563 22.8442 12.3861 22.8442C6.51596 22.8442 1.71608 18.06 1.71608 12.2129ZM11.8189 3.31594C11.3029 3.24681 10.8065 3.0725 10.3606 2.80381C9.77884 2.92609 9.21586 3.09862 8.67769 3.32684C9.45618 4.07264 10.4696 4.59022 11.6197 4.7458C13.2972 4.97946 14.9014 4.39469 16.0322 3.29899C15.4922 3.08227 14.9298 2.90914 14.3469 2.78686C13.6162 3.2318 12.7318 3.43762 11.8189 3.31534V3.31594ZM11.4448 6.02007C9.96892 5.8197 8.67467 5.14109 7.69459 4.16707C7.61818 4.0892 7.5439 4.00926 7.47182 3.92735C7.0517 4.17797 6.65096 4.45583 6.27503 4.76214C6.40155 4.90743 6.53412 5.0515 6.67033 5.18529C7.86591 6.38087 9.4465 7.20476 11.2462 7.45477C14.0539 7.83917 16.7253 6.72047 18.447 4.7234C18.0692 4.41709 17.6679 4.14468 17.2465 3.89951C15.8336 5.46314 13.6901 6.33123 11.4442 6.01947L11.4448 6.02007ZM4.06245 7.33309C5.61035 8.74116 6.46269 10.8605 6.15517 13.0804C5.93482 14.6718 5.15572 16.0515 4.04308 17.0527C4.28946 17.4698 4.56611 17.8766 4.87181 18.2489C6.3059 17.0194 7.31503 15.2887 7.59229 13.2807C7.97608 10.4985 6.87373 7.85612 4.89421 6.14236C4.5885 6.51526 4.31065 6.9154 4.06184 7.33249L4.06245 7.33309ZM17.14 11.1384C16.7834 13.7202 17.7078 16.1846 19.4276 17.8984C19.5669 18.0376 19.7121 18.1714 19.8617 18.2985C20.1692 17.9256 20.4489 17.5255 20.6971 17.1078C20.6135 17.0303 20.5306 16.9571 20.4513 16.8741C19.0426 15.4715 18.2841 13.452 18.5765 11.3381C18.7981 9.73031 19.5881 8.34465 20.7146 7.34338C20.467 6.92629 20.1898 6.52494 19.8835 6.1472C18.4367 7.37668 17.4191 9.11829 17.14 11.1378V11.1384ZM2.93648 10.2315C3.36689 10.9549 3.56545 11.8176 3.44196 12.7075C3.37108 13.2212 3.19664 13.7153 2.92922 14.1597C3.04969 14.7439 3.22524 15.3057 3.44498 15.845C4.19805 15.0665 4.71987 14.0538 4.87847 12.9078C5.1073 11.2498 4.53402 9.66977 3.4583 8.54562C3.23432 9.085 3.05877 9.64677 2.93588 10.2309L2.93648 10.2315ZM19.8544 11.5113C19.6238 13.1802 20.2085 14.7772 21.303 15.9068C21.5258 15.3728 21.702 14.8111 21.8261 14.2378C21.3751 13.5035 21.1668 12.6239 21.2921 11.7116C21.3678 11.1608 21.5579 10.6601 21.8327 10.2152C21.7104 9.63648 21.5361 9.08016 21.3151 8.54623C20.5475 9.32472 20.0154 10.3484 19.8544 11.5113ZM6.30167 19.6794C6.6788 19.9851 7.07895 20.2635 7.50027 20.5087C8.91257 18.9505 11.0489 18.0879 13.2887 18.4002C14.8868 18.617 16.2725 19.3961 17.2768 20.5087C17.6975 20.2581 18.0983 19.9857 18.4754 19.6794C17.2429 18.2495 15.5037 17.2422 13.4873 16.9643C13.1174 16.9141 12.7493 16.8923 12.3867 16.8923C10.0004 16.8923 7.79569 17.9547 6.30227 19.68L6.30167 19.6794ZM8.71099 21.1086C9.24976 21.3314 9.81274 21.5033 10.3957 21.6262C11.1245 21.1867 12.0053 20.9809 12.9146 21.1032C13.4359 21.1729 13.9368 21.3511 14.385 21.6262C14.9668 21.5033 15.5285 21.3259 16.0679 21.1032C15.2876 20.3525 14.2688 19.8289 13.1125 19.6739C12.8686 19.64 12.6277 19.6237 12.3879 19.6237C10.9841 19.6237 9.67593 20.18 8.71099 21.1092V21.1086Z" fill="url(#paint0_linear_21079_292323)"/>
</g>
<defs>
<linearGradient id="paint0_linear_21079_292323" x1="12.3867" y1="24.1687" x2="12.3867" y2="0.250412" gradientUnits="userSpaceOnUse">
<stop stop-color="#6BBDF9"/>
<stop offset="1" stop-color="#90F9FD"/>
</linearGradient>
<clipPath id="clip0_21079_292323">
<rect width="24" height="24" fill="white" transform="translate(0.392578 0.25)"/>
</clipPath>
</defs>
</svg>
