<svg width="25" height="25" viewBox="0 0 25 25" fill="none" xmlns="http://www.w3.org/2000/svg">
<g clip-path="url(#clip0_21079_292365)">
<g clip-path="url(#clip1_21079_292365)">
<path fill-rule="evenodd" clip-rule="evenodd" d="M12.2792 11.3145V12.5933C12.2792 13.9076 11.8992 17.0126 8.39054 17.4402C8.24725 17.3479 8.10382 17.2442 7.96053 17.1347C8.66088 17.0493 9.32976 16.7833 9.88183 16.3475C10.3446 15.9822 10.7057 15.505 10.9429 14.9679C11.3122 14.1313 11.4659 13.2167 11.3973 12.3062V12.2977H11.3873C8.76055 11.8644 7.36828 9.74576 6.95529 8.55492C7.35523 8.37081 7.69709 8.08223 7.94415 7.72036C8.19121 7.35837 8.32619 6.93602 8.35766 6.50023C8.41715 5.67341 8.19658 4.66591 7.69518 3.65828C7.26887 2.80153 6.68865 2.02974 6.17676 1.64049L7.70093 0.250702C8.13952 0.9416 8.51337 1.67117 8.81211 2.43193C9.39924 3.92683 9.563 5.23293 9.30827 6.30839C9.06109 7.35152 8.44504 8.14284 7.4256 8.71125H7.41421V8.72114C8.05034 9.51741 8.85817 10.16 9.77283 10.6181C10.6371 11.051 11.5465 11.3145 12.2792 11.3145ZM19.1764 1.64073C18.6618 2.03011 18.0835 2.80368 17.6581 3.65852C17.158 4.66336 16.9374 5.67365 16.9986 6.50187C17.0307 6.93791 17.1662 7.36026 17.4135 7.72225C17.6607 8.08438 18.0024 8.37334 18.4021 8.55808C17.985 9.74309 16.5969 11.8674 13.9702 12.3009H13.9616V12.3094C13.893 13.2199 14.0459 14.1348 14.416 14.9708C14.6539 15.5078 15.0147 15.9851 15.4772 16.3507C16.0293 16.787 16.699 17.0521 17.3999 17.1378C17.2565 17.2472 17.1132 17.3511 16.9698 17.4433C13.4584 17.0171 13.0798 13.9123 13.0798 12.5978V11.319C13.8111 11.3133 14.723 11.0546 15.5862 10.6227C16.503 10.1639 17.3116 9.51828 17.9433 8.71568L17.952 8.70579H17.9405C16.9182 8.13167 16.3045 7.34593 16.0578 6.30293C15.8027 5.22721 15.9705 3.92276 16.554 2.42647C16.8504 1.66875 17.2181 0.940448 17.6523 0.250945L19.1764 1.64073Z" fill="black"/>
<path d="M17.9768 4.27279C17.9109 4.43763 17.8508 4.60385 17.7991 4.773C20.539 6.9281 21.6054 10.5649 20.4578 13.8396C19.31 17.1142 16.1982 19.3129 12.7001 19.3206C9.20217 19.3284 6.08051 17.1436 4.9179 13.8741C3.75542 10.6045 4.80544 6.96285 7.53573 4.79569C7.48404 4.62655 7.42519 4.45753 7.3593 4.2927C4.22548 6.57296 2.92623 10.5933 4.1404 14.2536C5.35457 17.9137 8.80747 20.386 12.6953 20.3786C16.583 20.3714 20.0265 17.8862 21.2266 14.2215C22.4268 10.5568 21.1123 6.54126 17.9697 4.27279H17.9768Z" fill="#FF2B07"/>
<path d="M15.5485 3.5468C15.5901 3.37778 15.6345 3.21004 15.6834 3.0466C13.7357 2.3595 11.6087 2.3595 9.66113 3.0466C9.70988 3.21004 9.75581 3.37778 9.79586 3.5468C11.5892 2.88025 13.6421 2.83815 15.5485 3.5468Z" fill="#FF2B07"/>
<path fill-rule="evenodd" clip-rule="evenodd" d="M13.1587 5.04871V6.61131H13.5745V5.99966H14.6692V5.67747H13.5745V5.38306H14.7866V5.04871H13.1587ZM10.9493 5.38333H11.5476C11.6527 5.38333 11.7286 5.39867 11.7732 5.42796C11.8196 5.45687 11.843 5.50594 11.843 5.57352V5.58734C11.843 5.65314 11.8166 5.70221 11.7657 5.7329C11.7145 5.76358 11.6342 5.77892 11.5259 5.77892H10.9493V5.38333ZM10.9493 6.61158V6.11176H11.5414L11.8336 6.61158H12.308L11.9463 6.0566C12.0391 6.01666 12.1087 5.96315 12.1521 5.8971C12.2077 5.81126 12.2369 5.71008 12.2369 5.5919V5.57821C12.2369 5.41084 12.1782 5.28063 12.0638 5.1887C11.948 5.09513 11.7794 5.04897 11.5583 5.04897H10.5566V6.61158H10.9493ZM13.1587 9.00071V7.43785H14.7866V7.77233H13.5745V8.06675H14.6692V8.3888H13.5745V9.00071H13.1587ZM12.2492 7.43785H10.5566V9.00071H12.2633V8.66635H10.9723V8.36281H12.0871V8.0405H10.9723V7.77233H12.2492V7.43785Z" fill="black"/>
<path fill-rule="evenodd" clip-rule="evenodd" d="M17.9877 23.7466C18.1132 23.6524 18.1759 23.5272 18.1759 23.3712V23.3575C18.1759 23.1997 18.1131 23.0733 17.9871 22.978C17.8612 22.8828 17.6947 22.8351 17.488 22.8351H17.4694C17.2624 22.8351 17.0961 22.8828 16.9701 22.978C16.8444 23.0733 16.7813 23.1997 16.7813 23.3575V23.3712C16.7813 23.5272 16.8442 23.6524 16.9694 23.7466C17.0951 23.8407 17.2616 23.8876 17.4694 23.8876H17.488C17.6955 23.8876 17.8622 23.8407 17.9877 23.7466ZM17.9409 22.5374C18.0789 22.5798 18.1966 22.6389 18.2941 22.7146C18.3914 22.7905 18.4672 22.8826 18.5216 22.9913C18.576 23.1 18.6032 23.2185 18.6032 23.3472V23.3804C18.6032 23.5511 18.5567 23.7024 18.463 23.8343C18.3696 23.9663 18.2383 24.0687 18.0693 24.1413C17.9002 24.214 17.7064 24.2505 17.488 24.2505H17.4694C17.2509 24.2505 17.0571 24.2138 16.8879 24.1407C16.7188 24.0676 16.5876 23.9647 16.4941 23.8314C16.4008 23.6983 16.354 23.5456 16.354 23.3736V23.3552C16.354 23.2259 16.3813 23.1063 16.4355 22.9965C16.4901 22.8867 16.5659 22.7935 16.6634 22.7169C16.7605 22.6405 16.8783 22.5809 17.0165 22.5379C17.1548 22.4952 17.3058 22.4736 17.4694 22.4736H17.488C17.6516 22.4736 17.8024 22.4949 17.9409 22.5374ZM3.90983 23.3788C3.79404 23.2934 3.61249 23.2345 3.36544 23.2016L2.98788 23.1522C2.77626 23.1238 2.67058 23.0644 2.67058 22.9743V22.965C2.67058 22.9077 2.70333 22.8657 2.76897 22.8394C2.8346 22.813 2.93926 22.7998 3.08294 22.7998H3.11646C3.24389 22.7998 3.36851 22.8172 3.49056 22.8521C3.61249 22.8868 3.72022 22.936 3.81362 22.9995L4.00591 22.708C3.87388 22.6238 3.73788 22.5637 3.59778 22.5277C3.45755 22.4918 3.29136 22.4737 3.09906 22.4737H3.06426C2.79405 22.4737 2.58844 22.5168 2.44758 22.6029C2.30671 22.689 2.23622 22.815 2.23622 22.9811V22.9904C2.23622 23.1349 2.29047 23.2485 2.39896 23.3312C2.50746 23.4139 2.67596 23.4706 2.90446 23.5011L3.28202 23.5504C3.41789 23.5681 3.51564 23.5914 3.575 23.6204C3.63463 23.6496 3.66431 23.6885 3.66431 23.7375V23.7478C3.66431 23.8067 3.62746 23.85 3.55377 23.8776C3.47994 23.9051 3.36505 23.9189 3.20909 23.9189H3.18018C3.02882 23.9189 2.87746 23.8991 2.72611 23.8597C2.57475 23.8202 2.44553 23.7666 2.33819 23.6984L2.1748 24.013C2.32002 24.0941 2.47406 24.154 2.63693 24.1926C2.79993 24.2313 2.98174 24.2506 3.18248 24.2506H3.2137C3.5086 24.2506 3.72738 24.2087 3.86991 24.1249C4.01231 24.0411 4.08358 23.9127 4.08358 23.7399V23.7306C4.08358 23.5815 4.02562 23.4641 3.90983 23.3788ZM6.13019 23.2863C6.13019 23.6873 5.93495 23.8876 5.54409 23.8876H5.52566C5.12188 23.8876 4.91999 23.6873 4.91999 23.2863V22.5149H4.49368V23.261C4.49368 23.9206 4.83772 24.2505 5.52566 24.2505H5.54409C6.21898 24.2505 6.55637 23.9206 6.55637 23.261V22.5149H6.13019V23.2863ZM8.37112 23.2583C8.42255 23.2263 8.44852 23.1765 8.44852 23.1083V23.0751C8.44852 23.0047 8.42562 22.9541 8.37969 22.9235C8.33376 22.893 8.25776 22.8776 8.15208 22.8776H7.52785V23.3058H8.12777C8.23818 23.3058 8.3193 23.29 8.37112 23.2583ZM7.10167 22.5149H8.21119C8.43509 22.5149 8.6018 22.5613 8.71093 22.6539C8.82019 22.7464 8.87495 22.8877 8.87495 23.0773V23.105C8.87495 23.2948 8.82019 23.4358 8.71093 23.5283C8.6018 23.621 8.43509 23.6673 8.21119 23.6673H7.52785V24.208H7.10167V22.5149ZM9.74129 23.5169H10.9748V23.1693H9.74129V22.8777H11.1508V22.515H9.31511V24.208H11.1646V23.8465H9.74129V23.5169ZM12.9687 23.2559C13.0238 23.2225 13.0515 23.1699 13.0515 23.098V23.0843C13.0515 23.0102 13.0267 22.9572 12.9768 22.9253C12.9269 22.8936 12.845 22.8777 12.7308 22.8777H12.0831V23.3058H12.7074C12.8263 23.3058 12.9133 23.2891 12.9687 23.2559ZM13.4777 23.0889V23.1026C13.4777 23.3483 13.3733 23.5163 13.165 23.6065L13.5563 24.208H13.0423L12.7236 23.6673H12.0831V24.208H11.6569V22.5149H12.7422C12.9815 22.5149 13.164 22.5647 13.2895 22.6641C13.4149 22.7637 13.4777 22.9052 13.4777 23.0889ZM15.0578 23.8877H15.0391C14.8167 23.8877 14.6387 23.8406 14.5047 23.7461C14.3706 23.6515 14.3038 23.5259 14.3038 23.369V23.3553C14.3038 23.1983 14.3708 23.0724 14.5053 22.9776C14.6396 22.8828 14.8175 22.8352 15.0391 22.8352H15.0578C15.2151 22.8352 15.3509 22.8552 15.465 22.8956C15.5787 22.9358 15.692 23.0032 15.8047 23.0981L16.0666 22.8262C15.9338 22.706 15.7854 22.6171 15.6212 22.5598C15.4572 22.5024 15.2691 22.4737 15.0578 22.4737H15.0391C14.8113 22.4737 14.6092 22.5105 14.4329 22.5839C14.2563 22.6574 14.1196 22.7609 14.0223 22.8944C13.9251 23.0279 13.8763 23.1808 13.8763 23.3529V23.3713C13.8763 23.5435 13.9251 23.6963 14.0223 23.8299C14.1196 23.9634 14.2563 24.0669 14.4329 24.1403C14.6092 24.2138 14.8113 24.2505 15.0391 24.2505H15.0578C15.4878 24.2505 15.8294 24.1274 16.0828 23.8809L15.8199 23.6065C15.6121 23.794 15.3582 23.8877 15.0578 23.8877ZM20.4254 23.1083C20.4254 23.1765 20.3994 23.2263 20.3478 23.2583C20.296 23.29 20.2149 23.3058 20.1045 23.3058H19.5046V22.8777H20.1289C20.2346 22.8777 20.3105 22.893 20.3565 22.9236C20.4023 22.9541 20.4254 23.0047 20.4254 23.0751V23.1083ZM20.188 22.5149H19.0785V24.208H19.5046V23.6673H20.188C20.4119 23.6673 20.5785 23.621 20.6876 23.5284C20.7969 23.4358 20.8517 23.2948 20.8517 23.105V23.0774C20.8517 22.8877 20.7969 22.7464 20.6876 22.6539C20.5785 22.5613 20.4119 22.5149 20.188 22.5149ZM21.9788 22.8262L21.6395 23.5848H22.4398L22.1028 22.8262L22.0576 22.6962H22.0239L21.9788 22.8262ZM21.7112 22.5149H22.3945L23.1753 24.208H22.7143L22.58 23.9049H21.4981L21.3627 24.208H20.9305L21.7112 22.5149Z" fill="black"/>
</g>
</g>
<defs>
<clipPath id="clip0_21079_292365">
<rect width="24" height="24" fill="white" transform="translate(0.678711 0.25)"/>
</clipPath>
<clipPath id="clip1_21079_292365">
<rect width="21" height="24" fill="white" transform="translate(2.17871 0.25)"/>
</clipPath>
</defs>
</svg>
