<svg width="25" height="25" viewBox="0 0 25 25" fill="none" xmlns="http://www.w3.org/2000/svg">
<g clip-path="url(#clip0_21079_292429)">
<path d="M10.7601 12.5289L9.86739 17.9745C10.4873 18.1293 12.093 18.4887 12.093 18.4887L12.9547 11.4386C13.0291 10.8191 12.8803 10.1934 12.5331 9.67917C12.1859 9.17117 11.7272 8.41536 11.2808 7.4799C9.87979 4.5372 9.99757 1.43963 9.99757 1.43963L7.47444 2.44944C7.46824 2.48661 7.47444 4.38233 8.40434 6.95331C8.7701 7.96312 9.26605 8.91717 10.1402 10.0509C10.6795 10.7571 10.9027 11.6554 10.7601 12.5289Z" fill="#9CB3B3"/>
<path d="M15.7993 10.0571C16.6734 8.91723 17.1693 7.96937 17.5351 6.95956C18.465 4.38858 18.4712 2.52384 18.465 2.48667L15.9481 1.47066C15.9481 1.47066 16.0658 4.53726 14.6648 7.47376C14.2184 8.40923 13.7535 9.16503 13.4063 9.67303C13.0592 10.1872 12.9042 10.8129 12.9848 11.4325L13.8465 18.4825C13.8465 18.4825 15.4521 18.1232 16.072 17.9683L15.1793 12.5228C15.0368 11.6555 15.2599 10.7572 15.7993 10.0571Z" fill="#3582F2"/>
<path d="M14.6049 0.925271C14.5368 4.51226 13.7866 7.04607 12.9249 7.04607C12.0632 7.04607 11.3999 4.49367 11.3379 0.894295L12.9249 0.25L14.6049 0.925271Z" fill="#9CB3B3"/>
<path fill-rule="evenodd" clip-rule="evenodd" d="M3.66462 24.2258C3.74521 24.2444 3.8258 24.2506 3.9064 24.2506C4.04278 24.2506 4.16057 24.232 4.27216 24.1824C4.37135 24.1453 4.46434 24.1019 4.53253 24.0399C4.60072 23.978 4.65032 23.9098 4.68751 23.8231C4.71851 23.7364 4.73711 23.6496 4.73711 23.5505C4.73711 23.3585 4.68131 23.216 4.56973 23.1107C4.45814 23.0115 4.29696 22.9434 4.07998 22.9124L3.96219 22.8938C3.81341 22.8691 3.70802 22.8319 3.64602 22.7823C3.58403 22.7266 3.55303 22.6646 3.55303 22.5903C3.55303 22.5035 3.57783 22.4354 3.63982 22.3796C3.70182 22.3239 3.78861 22.2991 3.9002 22.2991C3.99319 22.2991 4.07998 22.3115 4.16677 22.3425C4.25356 22.3672 4.34035 22.4168 4.43334 22.4726C4.44574 22.4788 4.46434 22.4788 4.47674 22.4602L4.63172 22.2186C4.64412 22.2062 4.63792 22.1876 4.62552 22.1752C4.53253 22.107 4.42714 22.0575 4.30315 22.0141C4.17917 21.9708 4.04278 21.9522 3.9064 21.9522C3.79481 21.9522 3.68942 21.9708 3.59643 22.0017C3.50344 22.0327 3.42905 22.0761 3.36085 22.138C3.29886 22.1938 3.24927 22.2681 3.21207 22.3487C3.18107 22.4292 3.16247 22.5221 3.16247 22.6212C3.16247 22.8071 3.21827 22.9496 3.33606 23.0549C3.45384 23.154 3.61503 23.2222 3.832 23.2532L3.94979 23.2717C4.10478 23.2965 4.21016 23.3337 4.26596 23.3832C4.32175 23.4328 4.35275 23.501 4.35275 23.5815C4.35275 23.6744 4.31555 23.7488 4.24116 23.8107C4.16677 23.8665 4.06138 23.8974 3.93119 23.8974C3.8692 23.8974 3.80721 23.8912 3.75141 23.8789L3.75139 23.8789C3.6956 23.8603 3.63982 23.8417 3.59023 23.8231C3.54064 23.8045 3.49104 23.7797 3.44764 23.7488L3.41887 23.7284C3.3873 23.7062 3.35858 23.6859 3.32986 23.662C3.31746 23.6496 3.29886 23.6496 3.28646 23.6682L3.08188 23.9036C3.06948 23.9222 3.06948 23.9346 3.08808 23.9532C3.13148 23.9966 3.18107 24.0337 3.24307 24.0709C3.30506 24.1081 3.37325 24.1391 3.44145 24.1638C3.50964 24.1886 3.58403 24.2134 3.66462 24.2258ZM6.30512 23.7799C6.21833 23.8605 6.11914 23.9038 5.98896 23.9038C5.86497 23.9038 5.75958 23.8605 5.66659 23.7861C5.5922 23.7056 5.5488 23.5879 5.5488 23.433V22.0329C5.5488 22.0143 5.53641 22.0019 5.51781 22.0019H5.19544C5.17684 22.0019 5.16444 22.0143 5.16444 22.0329V23.4392C5.16444 23.5631 5.18304 23.6808 5.22644 23.7799C5.26983 23.879 5.32563 23.9658 5.40002 24.0339C5.47441 24.1021 5.5612 24.1578 5.66039 24.195C5.75958 24.2322 5.86497 24.2508 5.98276 24.2508C6.10055 24.2508 6.21213 24.2322 6.31132 24.195C6.41051 24.1578 6.4973 24.1021 6.5717 24.0339C6.64609 23.9658 6.70188 23.879 6.74528 23.7799C6.78867 23.6808 6.80727 23.5693 6.80727 23.4392V22.0329C6.80727 22.0143 6.79487 22.0019 6.77627 22.0019H6.45391C6.43531 22.0019 6.42291 22.0143 6.42291 22.0329V23.4268C6.42291 23.5817 6.38572 23.6994 6.30512 23.7799ZM7.38039 24.2136C7.36179 24.2136 7.3494 24.2012 7.3494 24.1826V22.0329C7.3494 22.0143 7.36179 22.0019 7.38039 22.0019H8.2111C8.31649 22.0019 8.41568 22.0205 8.50867 22.0515C8.60166 22.0825 8.67606 22.132 8.73805 22.194C8.80004 22.2559 8.84964 22.3241 8.88683 22.4108C8.92403 22.4975 8.94263 22.5905 8.94263 22.6896C8.94263 22.7949 8.92403 22.8878 8.88683 22.9746C8.84964 23.0613 8.80004 23.1294 8.73805 23.1914C8.67606 23.2533 8.59546 23.2967 8.50867 23.3339C8.41568 23.3648 8.32269 23.3834 8.2111 23.3834H7.75235C7.73995 23.3834 7.73376 23.3896 7.73376 23.402V24.1888C7.73376 24.2074 7.72136 24.2198 7.70276 24.2198H7.38039V24.2136ZM8.45908 22.9374C8.52727 22.8754 8.55827 22.7949 8.55827 22.6896C8.55827 22.5905 8.52727 22.5037 8.45908 22.4418C8.39089 22.3798 8.3041 22.3488 8.18631 22.3488H7.75235C7.73995 22.3488 7.73376 22.355 7.73376 22.3674V23.0117C7.73376 23.0241 7.73995 23.0303 7.75235 23.0303H8.18631C8.3041 23.0303 8.39709 22.9993 8.45908 22.9374ZM9.38932 22.0019C9.37072 22.0019 9.35832 22.0143 9.35832 22.0329V24.164C9.35832 24.1826 9.37072 24.195 9.38932 24.195H10.778C10.7966 24.195 10.809 24.1826 10.809 24.164V23.8852C10.809 23.8667 10.7966 23.8543 10.778 23.8543H9.76128C9.74888 23.8543 9.74268 23.8481 9.74268 23.8357V23.2781C9.74268 23.2657 9.74888 23.2595 9.76128 23.2595H10.6168C10.6354 23.2595 10.6478 23.2533 10.6478 23.2286V22.9498C10.6478 22.9312 10.6354 22.9188 10.6168 22.9188H9.76128C9.74888 22.9188 9.74268 22.9126 9.74268 22.9002V22.3612C9.74268 22.3488 9.74888 22.3426 9.76128 22.3426H10.778C10.7966 22.3426 10.809 22.3365 10.809 22.3117V22.0329C10.809 22.0143 10.7966 22.0019 10.778 22.0019H9.38932ZM12.5415 24.2136C12.5167 24.2136 12.4981 24.2012 12.4919 24.1826L12.0704 23.3215H11.686C11.6736 23.3215 11.6674 23.3277 11.6674 23.3401V24.1826C11.6674 24.2012 11.655 24.2136 11.6364 24.2136H11.3141C11.2893 24.2136 11.2831 24.2012 11.2831 24.1826V22.0329C11.2831 22.0143 11.2955 22.0019 11.3141 22.0019H12.1696C12.2688 22.0019 12.368 22.0205 12.4485 22.0515C12.5353 22.0825 12.6097 22.132 12.6717 22.1878C12.7337 22.2435 12.7833 22.3117 12.8205 22.3984C12.8577 22.4789 12.8763 22.5719 12.8763 22.6648C12.8763 22.8073 12.8391 22.9374 12.7647 23.0427C12.6903 23.148 12.5849 23.2286 12.4609 23.2719L12.9259 24.1764C12.9321 24.1888 12.9321 24.195 12.9259 24.2074C12.9197 24.2136 12.9135 24.2198 12.9011 24.2198H12.5415V24.2136ZM12.4051 22.8878C12.4671 22.8321 12.4981 22.7577 12.4981 22.6586C12.4981 22.5595 12.4671 22.4851 12.4051 22.4294C12.3432 22.3736 12.2626 22.3426 12.1572 22.3426H11.686C11.6736 22.3426 11.6674 22.3488 11.6674 22.3612V22.9498C11.6674 22.9622 11.6736 22.9684 11.686 22.9684H12.1572C12.2626 22.9746 12.3432 22.9436 12.4051 22.8878ZM13.3273 23.6003C13.3335 23.6375 13.3397 23.6684 13.3521 23.7056C13.4079 23.8853 13.5009 24.0216 13.6372 24.1021C13.7674 24.195 13.9286 24.2384 14.1208 24.2384C14.2944 24.2384 14.4494 24.195 14.5795 24.1083C14.7097 24.0277 14.8089 23.91 14.8709 23.7614C14.8771 23.7428 14.8709 23.7304 14.8523 23.7242L14.5733 23.5879C14.5548 23.5817 14.5362 23.5817 14.53 23.6065C14.499 23.687 14.4432 23.7552 14.3812 23.8109C14.3192 23.8667 14.2324 23.8977 14.1208 23.8977C14.0154 23.8977 13.9286 23.8667 13.8666 23.8171C13.8046 23.7614 13.755 23.6932 13.724 23.6003C13.7178 23.5817 13.7116 23.5569 13.7054 23.5321C13.702 23.5185 13.7005 23.503 13.6988 23.4857L13.6988 23.4856C13.6974 23.4714 13.6958 23.4559 13.693 23.4392C13.693 23.4225 13.6918 23.4045 13.6904 23.3848C13.6887 23.3606 13.6868 23.3336 13.6868 23.3029V23.0985V22.894V22.894C13.6868 22.8445 13.6868 22.7949 13.693 22.7577C13.693 22.7206 13.6992 22.6896 13.7054 22.6648L13.724 22.5905C13.755 22.4975 13.8046 22.4232 13.8666 22.3736C13.9286 22.3179 14.0154 22.2931 14.1208 22.2931C14.2324 22.2931 14.3192 22.3241 14.3812 22.3798C14.4432 22.4418 14.4928 22.5037 14.53 22.5843C14.5424 22.6091 14.5548 22.6153 14.5733 22.6029L14.8523 22.4666C14.8709 22.4604 14.8771 22.448 14.8709 22.4294C14.8027 22.2807 14.7097 22.1692 14.5795 22.0825C14.4556 22.0019 14.3006 21.9586 14.1208 21.9586C13.9348 21.9586 13.7736 22.0019 13.6372 22.0949C13.5009 22.1816 13.4079 22.3241 13.3521 22.5037C13.3485 22.5251 13.3429 22.5465 13.3376 22.5667L13.3376 22.5667L13.3376 22.5667C13.3337 22.5817 13.3299 22.5959 13.3273 22.6091L13.3273 22.6091C13.3211 22.6463 13.3149 22.6834 13.3087 22.7268C13.3025 22.7701 13.2963 22.8197 13.2963 22.8816C13.2901 22.9436 13.2901 23.0179 13.2901 23.1047C13.2901 23.1517 13.2919 23.195 13.2936 23.2348C13.295 23.2683 13.2963 23.2993 13.2963 23.3277C13.2992 23.354 13.3008 23.3803 13.3022 23.4054V23.4054C13.3039 23.4334 13.3054 23.4597 13.3087 23.4826C13.3149 23.5259 13.3211 23.5693 13.3273 23.6003ZM16.0771 24.2505C15.8849 24.2505 15.7175 24.2071 15.5811 24.1142C15.4447 24.0212 15.3518 23.8911 15.2898 23.7177C15.2526 23.6 15.234 23.3955 15.234 23.1106C15.234 22.8194 15.2526 22.6211 15.2898 22.5034C15.3456 22.33 15.4447 22.1999 15.5811 22.1069C15.7175 22.014 15.8787 21.9706 16.0771 21.9706C16.2755 21.9706 16.4366 22.014 16.573 22.1069C16.7094 22.1999 16.8024 22.33 16.8644 22.5034C16.9016 22.6211 16.9202 22.8256 16.9202 23.1106C16.9202 23.4017 16.9016 23.6 16.8644 23.7177C16.8086 23.8911 16.7094 24.0212 16.573 24.1142C16.4366 24.2009 16.2693 24.2505 16.0771 24.2505ZM16.0771 23.9035C16.2879 23.9035 16.4242 23.8044 16.4924 23.6124C16.5172 23.5318 16.5296 23.3646 16.5296 23.1044C16.5296 22.8504 16.5172 22.6769 16.4924 22.5964C16.4242 22.4043 16.2879 22.3052 16.0771 22.3052C15.8725 22.3052 15.7361 22.4043 15.6679 22.5964C15.6431 22.6769 15.6307 22.8504 15.6307 23.1044C15.6307 23.3646 15.6431 23.5318 15.6679 23.6124C15.7299 23.8044 15.8663 23.9035 16.0771 23.9035ZM19.4148 24.2136H19.7372C19.762 24.2136 19.7744 24.2012 19.7682 24.1888V23.402C19.7682 23.3896 19.7744 23.3834 19.7868 23.3834H20.2455C20.4625 23.3834 20.6361 23.3215 20.7725 23.1914C20.9089 23.0613 20.9771 22.894 20.9771 22.6896C20.9771 22.4851 20.9089 22.3241 20.7725 22.194C20.6361 22.0639 20.4625 22.0019 20.2455 22.0019H19.4148C19.3962 22.0019 19.3838 22.0143 19.3838 22.0329V24.1826C19.3838 24.2012 19.39 24.2136 19.4148 24.2136ZM20.4935 22.9374C20.4315 22.9993 20.3385 23.0303 20.2269 23.0303H19.793C19.7806 23.0303 19.7744 23.0241 19.7744 23.0117V22.3674C19.7744 22.355 19.7806 22.3488 19.793 22.3488H20.2269C20.3385 22.3488 20.4253 22.3798 20.4935 22.4418C20.5617 22.5037 20.5927 22.5905 20.5927 22.6896C20.5927 22.7949 20.5617 22.8754 20.4935 22.9374ZM20.9984 24.1826L21.7609 22.0329C21.7671 22.0143 21.7795 22.0019 21.8043 22.0019H22.1019C22.1205 22.0019 22.1391 22.0143 22.1453 22.0329L22.8954 24.1826C22.9016 24.2074 22.8954 24.2136 22.8706 24.2136H22.5482C22.5234 24.2136 22.511 24.2012 22.5048 24.1826L22.3561 23.7551H21.5191L21.3704 24.1826C21.3642 24.2074 21.3518 24.2136 21.327 24.2136H21.0108C21.0046 24.2136 20.9922 24.2012 20.9984 24.1826ZM21.6493 23.4082H22.2507L21.9593 22.5471H21.9469L21.6493 23.4082ZM17.394 24.1826C17.394 24.2012 17.4064 24.2136 17.425 24.2136V24.2198H17.7474C17.766 24.2198 17.7784 24.2074 17.7784 24.1888V23.402C17.7784 23.3896 17.7846 23.3834 17.797 23.3834H18.2557C18.3673 23.3834 18.4603 23.3648 18.5533 23.3339C18.6401 23.2967 18.7207 23.2533 18.7827 23.1914C18.8447 23.1294 18.8943 23.0613 18.9315 22.9746C18.9687 22.8878 18.9873 22.7949 18.9873 22.6896C18.9873 22.5905 18.9687 22.4975 18.9315 22.4108C18.8943 22.3241 18.8447 22.2559 18.7827 22.194C18.7207 22.132 18.6463 22.0825 18.5533 22.0515C18.4603 22.0205 18.3611 22.0019 18.2557 22.0019H17.425C17.4064 22.0019 17.394 22.0143 17.394 22.0329V24.1826ZM18.6029 22.6896C18.6029 22.7949 18.5719 22.8754 18.5037 22.9374C18.4355 22.9993 18.3487 23.0303 18.2309 23.0303H17.797C17.7846 23.0303 17.7784 23.0241 17.7784 23.0117V22.3674C17.7784 22.355 17.7846 22.3488 17.797 22.3488H18.2309C18.3487 22.3488 18.4355 22.3798 18.5037 22.4418C18.5719 22.5037 18.6029 22.5905 18.6029 22.6896Z" fill="#13316E"/>
</g>
<defs>
<clipPath id="clip0_21079_292429">
<rect width="24" height="24" fill="white" transform="translate(0.963867 0.25)"/>
</clipPath>
</defs>
</svg>
