<svg width="25" height="25" viewBox="0 0 25 25" fill="none" xmlns="http://www.w3.org/2000/svg">
<path d="M2.61067 8.12519H5.46014C4.89409 10.1602 4.33119 12.1961 3.76572 14.2314C3.74162 14.3037 3.74091 14.3875 3.78536 14.4524C3.85721 14.5614 3.99374 14.6046 4.11837 14.6115C4.26637 14.6153 4.41437 14.6121 4.56252 14.6132C4.72314 14.6123 4.88993 14.6184 5.04252 14.56C5.14808 14.5187 5.21304 14.4146 5.24129 14.309C5.81437 12.2479 6.38487 10.186 6.95881 8.12519H9.79151C9.18917 10.2907 8.58899 12.4568 7.98737 14.6227C7.92255 14.8526 7.86145 15.0836 7.79405 15.3128C7.70728 15.5916 7.56401 15.8628 7.33627 16.0516C7.16791 16.1949 6.95709 16.2761 6.74455 16.3278C6.44396 16.4029 6.13361 16.4228 5.82556 16.4431H2.1559C1.79379 16.4205 1.42292 16.3375 1.12103 16.1274C0.92298 15.993 0.763648 15.7951 0.698826 15.5624C0.666844 15.4625 0.673155 15.3562 0.673728 15.2528C0.674302 15.1296 0.716609 15.0126 0.747586 14.8949C1.3733 12.6384 1.99958 10.3819 2.62501 8.12533L2.61067 8.12519Z" fill="#E11B22"/>
<path d="M11.1377 8.12519H17.2612C17.0911 8.73398 16.9231 9.34348 16.7538 9.95256C14.7124 9.95299 12.6712 9.95284 10.6299 9.9527C10.799 9.34348 10.967 8.73398 11.1377 8.12519Z" fill="#E11B22"/>
<path d="M20.0255 8.12519H24.6708C24.6039 8.40154 24.5201 8.67403 24.4465 8.94881C24.3536 9.28339 24.2607 9.61797 24.1679 9.95256C23.1629 9.95284 22.1577 9.95256 21.1526 9.9527C21.0055 9.95399 20.8525 9.9527 20.7141 10.0096C20.6014 10.0572 20.5427 10.1753 20.5142 10.2879C20.1475 11.6103 19.7803 12.9328 19.4139 14.2554C19.3872 14.3376 19.41 14.4315 19.4713 14.4923C19.5612 14.5842 19.6956 14.6131 19.8199 14.6131C20.9146 14.6133 22.0092 14.6131 23.1039 14.6133C22.935 15.2233 22.7656 15.8332 22.5964 16.4431H17.9438C17.5953 16.4211 17.2396 16.3441 16.9437 16.1506C16.7496 16.0264 16.5862 15.846 16.5081 15.627C16.4363 15.439 16.4424 15.2294 16.4966 15.0378C17.0225 13.1428 17.5485 11.2477 18.0747 9.35266C18.151 9.07386 18.2728 8.79894 18.4784 8.59085C18.6142 8.4516 18.7866 8.35178 18.9706 8.29097C19.3102 8.17653 19.6703 8.14871 20.0255 8.12519Z" fill="#E11B22"/>
<path d="M10.28 11.2142C12.3216 11.2139 14.3633 11.214 16.4049 11.2142C16.2355 11.8248 16.066 12.4353 15.8965 13.0458C14.7994 13.0463 13.7024 13.0458 12.6053 13.0461C12.291 14.1784 11.9773 15.3108 11.6629 16.443L11.6823 16.4431H8.8291C9.31369 14.7004 9.79628 12.9572 10.28 11.2142Z" fill="#E11B22"/>
</svg>
