<svg width="24" height="24" viewBox="0 0 24 24" fill="none" xmlns="http://www.w3.org/2000/svg">
<path d="M13.0008 10.7H6.00078V9.30005H13.0008V10.7Z" fill="#DBA742"/>
<path d="M10.5008 14.2001H6.00078V12.8001H10.5008V14.2001Z" fill="#DBA742"/>
<path fill-rule="evenodd" clip-rule="evenodd" d="M3.50078 4.80005C2.5619 4.80005 1.80078 5.56116 1.80078 6.50005V17.5C1.80078 18.4389 2.5619 19.2 3.50078 19.2H15.5008C16.4397 19.2 17.2008 18.4389 17.2008 17.5V15.2364L21.1406 17.6003C21.3569 17.73 21.6262 17.7334 21.8457 17.6092C22.0651 17.4849 22.2008 17.2522 22.2008 17V7.00005C22.2008 6.73904 22.0556 6.4997 21.824 6.37916C21.5925 6.25863 21.3132 6.27691 21.0994 6.42659L17.2008 9.15559V6.50005C17.2008 5.56116 16.4397 4.80005 15.5008 4.80005H3.50078ZM3.20078 6.50005C3.20078 6.33436 3.3351 6.20005 3.50078 6.20005H15.5008C15.6665 6.20005 15.8008 6.33436 15.8008 6.50005V10.5C15.8008 10.7611 15.946 11.0004 16.1775 11.1209C16.409 11.2415 16.6884 11.2232 16.9022 11.0735L20.8008 8.34451V15.7637L16.8609 13.3998C16.6447 13.2701 16.3753 13.2667 16.1559 13.3909C15.9364 13.5152 15.8008 13.7479 15.8008 14V17.5C15.8008 17.6657 15.6665 17.8 15.5008 17.8H3.50078C3.3351 17.8 3.20078 17.6657 3.20078 17.5V6.50005Z" fill="#DBA742"/>
</svg>
