<svg width="24" height="24" viewBox="0 0 24 24" fill="none" xmlns="http://www.w3.org/2000/svg">
<path d="M4.00039 4.59991L20.0004 4.5999C20.2213 4.5999 20.4004 4.77899 20.4004 4.9999V13.2H21.6004V4.9999C21.6004 4.11625 20.884 3.3999 20.0004 3.3999L4.00039 3.39991C3.57604 3.39991 3.16908 3.56849 2.86902 3.86854C2.56896 4.1686 2.40039 4.57557 2.40039 4.99991V14.9999C2.40039 15.4243 2.56896 15.8312 2.86902 16.1313C3.16908 16.4313 3.57604 16.5999 4.00039 16.5999H8.40039V19.4001H7.00029C6.66892 19.4001 6.40029 19.6687 6.40029 20.0001C6.40029 20.3315 6.66892 20.6001 7.00029 20.6001H10.8004V19.4001H9.60039V16.5999H10.8004V15.3999H9.00414L9.00039 15.3999L8.99665 15.3999H4.00039C3.8943 15.3999 3.79256 15.3578 3.71755 15.2828C3.64253 15.2077 3.60039 15.106 3.60039 14.9999V4.99991C3.60039 4.89383 3.64253 4.79209 3.71755 4.71707C3.79256 4.64206 3.8943 4.59991 4.00039 4.59991Z" fill="#DBA742"/>
<path fill-rule="evenodd" clip-rule="evenodd" d="M12.0004 15.4C12.0004 14.8477 12.4481 14.4 13.0004 14.4H22.0004C22.5527 14.4 23.0004 14.8477 23.0004 15.4V20.4C23.0004 20.9523 22.5527 21.4 22.0004 21.4H13.0004C12.4481 21.4 12.0004 20.9523 12.0004 20.4V15.4ZM17.5489 20.046V20.2H16.4779L15.9389 18.786L15.3929 20.2H14.3289V20.046L15.2809 17.869L14.3569 15.762V15.608H15.4279L15.9389 16.938L16.4429 15.608H17.5139V15.762L16.5969 17.869L17.5489 20.046ZM19.5025 17.197C19.8619 17.197 20.1442 17.2973 20.3495 17.498C20.5549 17.694 20.6575 17.967 20.6575 18.317V19.059C20.6575 19.4463 20.5339 19.7496 20.2865 19.969C20.0392 20.1836 19.6939 20.291 19.2505 20.291C18.3079 20.291 17.8365 19.8266 17.8365 18.898V18.828H18.8515V18.898C18.8515 19.1733 18.9822 19.311 19.2435 19.311C19.4955 19.311 19.6215 19.1733 19.6215 18.898V18.625C19.6215 18.4756 19.5865 18.3613 19.5165 18.282C19.4465 18.2026 19.3439 18.163 19.2085 18.163C19.1292 18.163 19.0592 18.1816 18.9985 18.219C18.9379 18.2516 18.8935 18.3006 18.8655 18.366H17.8435L17.9765 15.608H20.4545V16.581H18.8725L18.8305 17.358C19.0219 17.2506 19.2459 17.197 19.5025 17.197Z" fill="#DBA742"/>
</svg>
