<svg width="24" height="24" viewBox="0 0 24 24" fill="none" xmlns="http://www.w3.org/2000/svg">
<path fill-rule="evenodd" clip-rule="evenodd" d="M12.1072 15.5712C13.981 15.5712 15.5001 14.0522 15.5001 12.1784V5.39266C15.5001 3.51884 13.981 1.9998 12.1072 1.9998C10.2334 1.9998 8.71436 3.51884 8.71436 5.39266V12.1784C8.71436 14.0522 10.2334 15.5712 12.1072 15.5712ZM10.0715 5.3926C10.0715 4.2683 10.983 3.35688 12.1072 3.35688C13.2315 3.35688 14.143 4.2683 14.143 5.3926V12.1783C14.143 13.3026 13.2315 14.214 12.1072 14.214C10.983 14.214 10.0715 13.3026 10.0715 12.1783V5.3926Z" fill="#DBA742"/>
<path d="M16.8571 12.1783V10.1426H18.2143V12.1783C18.2128 15.2875 15.8756 17.8993 12.7857 18.2447V19.6426H15.5V20.9997H8.71429V19.6426H11.4286V18.2447C8.33864 17.8993 6.00148 15.2875 6 12.1783V10.1426H7.35714V12.1783C7.35714 14.8016 9.48379 16.9283 12.1071 16.9283C14.7305 16.9283 16.8571 14.8016 16.8571 12.1783Z" fill="#DBA742"/>
</svg>
