<svg width="24" height="24" viewBox="0 0 24 24" fill="none" xmlns="http://www.w3.org/2000/svg">
<path d="M1.49576 0.505074C1.22239 0.231707 0.779173 0.231707 0.505806 0.505074C0.232439 0.778442 0.23244 1.22166 0.505807 1.49502L22.5058 23.495C22.7792 23.7684 23.2224 23.7684 23.4958 23.495C23.7691 23.2217 23.7691 22.7784 23.4958 22.5051L1.49576 0.505074Z" fill="#DBA742"/>
<path fill-rule="evenodd" clip-rule="evenodd" d="M1.50576 11.7379C1.50576 9.73589 2.74402 8.02312 4.49643 7.32366L5.62005 8.44728C4.07384 8.7447 2.90576 10.1049 2.90576 11.7379C2.90576 13.5886 4.40606 15.0889 6.25678 15.0889H10.1024V12.9297L11.5031 14.3303V15.374L14.0429 16.8702L17.4138 20.241C17.1424 20.2328 16.8656 20.1578 16.6045 20.004L10.6374 16.4889H9.40459V19.6333C9.40459 20.6879 8.54974 21.5427 7.49522 21.5427C6.4407 21.5427 5.58584 20.6879 5.58584 19.6333V16.4419C3.27964 16.1159 1.50576 14.134 1.50576 11.7379ZM6.98584 16.4889V19.6333C6.98584 19.9147 7.2139 20.1427 7.49522 20.1427C7.77654 20.1427 8.00459 19.9147 8.00459 19.6333V16.4889H6.98584Z" fill="#DBA742"/>
<path fill-rule="evenodd" clip-rule="evenodd" d="M17.7673 4.91241V14.9377L19.1673 16.3377V15.2091C20.9197 15.0227 22.2847 13.5397 22.2847 11.7379C22.2847 9.93608 20.9197 8.45309 19.1673 8.26662V4.91241C19.1673 3.59521 17.734 2.77842 16.6008 3.44986L10.6311 6.98686H9.81649L11.5031 8.67343V8.09754L17.3144 4.65431C17.5144 4.53583 17.7673 4.67996 17.7673 4.91241ZM20.8847 11.7379C20.8847 12.7649 20.1443 13.6189 19.1682 13.7955V9.68029C20.1443 9.8568 20.8847 10.7109 20.8847 11.7379Z" fill="#DBA742"/>
</svg>
