<svg width="24" height="24" viewBox="0 0 24 24" fill="none" xmlns="http://www.w3.org/2000/svg">
<path d="M21.976 15.7502L21.8336 15.9999H20.0884L20.6784 15L18.6384 13.1475C18.7771 12.3712 18.7771 11.5764 18.6384 10.8L20.6784 9.00002L18.9084 6.00002L16.3284 6.84002C15.7241 6.33688 15.0396 5.93884 14.3034 5.66252L13.7709 3.00002H10.2309L9.69839 5.69252C8.95634 5.96121 8.26809 6.35994 7.66589 6.87002L5.09339 6.00002L3.32339 9.00002L5.36339 10.8525C5.22471 11.6289 5.22471 12.4237 5.36339 13.2L3.32339 15L5.09339 18L7.67339 17.16C8.27768 17.6632 8.9622 18.0612 9.69839 18.3375L10.2309 21H12.0008V22.4702H10.261C9.53452 22.4841 8.90254 21.9754 8.76099 21.2627L8.37849 19.3727C8.03887 19.2072 7.71064 19.0193 7.39599 18.8102L5.57349 19.4252C5.41862 19.4761 5.2565 19.5014 5.09349 19.5002C4.55814 19.4996 4.06366 19.2138 3.79599 18.7502L2.02599 15.7502C1.64795 15.1231 1.77792 14.3147 2.33349 13.8377L3.75099 12.5777V11.4302L2.33349 10.1327C1.79383 9.65955 1.66494 8.87045 2.02599 8.25019L3.79599 5.25019C4.06366 4.78656 4.55814 4.50074 5.09349 4.50019C5.25487 4.48921 5.41696 4.5044 5.57349 4.54519L7.35849 5.19019C7.67571 4.98105 8.00644 4.79314 8.34849 4.62769L8.73099 2.73769C8.87254 2.02501 9.50452 1.51626 10.231 1.53019H13.741C14.4674 1.51626 15.0994 2.02501 15.241 2.73769L15.6235 4.62769C15.9631 4.79318 16.2913 4.98109 16.606 5.19019L18.4285 4.57519C18.5833 4.52427 18.7455 4.49894 18.9085 4.50019C19.4438 4.50074 19.9383 4.78656 20.206 5.25019L21.976 8.25019C22.3594 8.87203 22.239 9.67964 21.691 10.1627L20.251 11.4227V12.5702L21.6685 13.8677C22.2081 14.3408 22.337 15.1299 21.976 15.7502Z" fill="#DBA742"/>
<path fill-rule="evenodd" clip-rule="evenodd" d="M7.50088 12C7.50088 14.4853 9.5156 16.5 12.0009 16.5C13.198 16.5122 14.3497 16.042 15.1963 15.1954C16.0428 14.3489 16.513 13.1972 16.5009 12C16.5009 9.51474 14.4862 7.50002 12.0009 7.50002C9.5156 7.50002 7.50088 9.51474 7.50088 12ZM9.85906 9.8582C10.4258 9.2915 11.1997 8.98142 12.0009 9.00009C12.8022 8.98142 13.5761 9.2915 14.1428 9.8582C14.7095 10.4249 15.0196 11.1989 15.0009 12.0001C15.0196 12.8013 14.7095 13.5753 14.1428 14.142C13.5761 14.7087 12.8022 15.0188 12.0009 15.0001C11.1997 15.0188 10.4258 14.7087 9.85906 14.142C9.29235 13.5753 8.98228 12.8013 9.00094 12.0001C8.98228 11.1989 9.29235 10.4249 9.85906 9.8582Z" fill="#DBA742"/>
<path d="M20.3807 21.8268C20.698 21.8268 20.8567 21.6518 20.8567 21.3018V19.7058C20.8567 19.3558 20.698 19.1808 20.3807 19.1808H19.9957V21.8268H20.3807Z" fill="#DBA742"/>
<path fill-rule="evenodd" clip-rule="evenodd" d="M13.0008 18.0001C13.0008 17.4478 13.4485 17.0001 14.0008 17.0001H23.0008C23.5531 17.0001 24.0008 17.4478 24.0008 18.0001V23.0001C24.0008 23.5524 23.5531 24.0001 23.0008 24.0001H14.0008C13.4485 24.0001 13.0008 23.5524 13.0008 23.0001V18.0001ZM16.5725 18.2078V20.0208H17.4195V18.2078H18.4905V22.7998H17.4195V20.9938H16.5725V22.7998H15.5015V18.2078H16.5725ZM20.3457 18.2078C20.845 18.2078 21.2323 18.3362 21.5077 18.5928C21.783 18.8448 21.9207 19.1995 21.9207 19.6568V21.3578C21.9207 21.8105 21.7807 22.1652 21.5007 22.4218C21.2253 22.6738 20.8403 22.7998 20.3457 22.7998H18.9247V18.2078H20.3457Z" fill="#DBA742"/>
</svg>
