<svg width="24" height="24" viewBox="0 0 24 24" fill="none" xmlns="http://www.w3.org/2000/svg">
<path fill-rule="evenodd" clip-rule="evenodd" d="M3 2.1999C3 1.53716 3.53726 0.999903 4.2 0.999903H19.8C20.4627 0.999903 21 1.53716 21 2.1999V21.7999C21 22.4626 20.4627 22.9999 19.8 22.9999H4.2C3.53726 22.9999 3 22.4626 3 21.7999V2.1999ZM16.6001 2.1999H19.8V11.4H15.9554C15.6659 9.47554 14.0053 8.0001 12.0001 8.0001C9.99492 8.0001 8.33434 9.47554 8.04481 11.4H4.2V2.1999H7.4001V5.0001C7.4001 5.33147 7.66873 5.6001 8.0001 5.6001H16.0001C16.3315 5.6001 16.6001 5.33147 16.6001 5.0001V2.1999ZM8.04478 12.6H4.2V21.7999H7.4001V18.9999C7.4001 18.6685 7.66873 18.3999 8.0001 18.3999H16.0001C16.3315 18.3999 16.6001 18.6685 16.6001 18.9999V21.7999H19.8V12.6H15.9554C15.666 14.5246 14.0053 16.0001 12.0001 16.0001C9.99485 16.0001 8.33423 14.5246 8.04478 12.6ZM15.4001 19.5999V21.7999L8.6001 21.7999V19.5999H15.4001ZM15.4001 2.1999H8.6001V4.4001H15.4001V2.1999ZM14.8001 12.0001C14.8001 13.5465 13.5465 14.8001 12.0001 14.8001C10.4537 14.8001 9.2001 13.5465 9.2001 12.0001C9.2001 10.4537 10.4537 9.2001 12.0001 9.2001C13.5465 9.2001 14.8001 10.4537 14.8001 12.0001Z" fill="#DBA742"/>
</svg>
