<svg width="24" height="24" viewBox="0 0 24 24" fill="none" xmlns="http://www.w3.org/2000/svg">
<path fill-rule="evenodd" clip-rule="evenodd" d="M16.0009 9.0001C16.0009 11.2092 14.21 13.0001 12.0009 13.0001C9.79174 13.0001 8.00088 11.2092 8.00088 9.0001C8.00088 6.79096 9.79174 5.0001 12.0009 5.0001C14.21 5.0001 16.0009 6.79096 16.0009 9.0001ZM14.6009 9.0001C14.6009 10.436 13.4368 11.6001 12.0009 11.6001C10.5649 11.6001 9.40088 10.436 9.40088 9.0001C9.40088 7.56416 10.5649 6.4001 12.0009 6.4001C13.4368 6.4001 14.6009 7.56416 14.6009 9.0001Z" fill="#DBA742"/>
<path fill-rule="evenodd" clip-rule="evenodd" d="M19.0008 0C20.1053 0 21.0008 0.89543 21.0008 2V14.0496C21.0008 14.7257 20.6593 15.3559 20.0929 15.7251L13.0929 20.2881C12.4291 20.7208 11.5724 20.7208 10.9086 20.2881L3.90862 15.7251C3.34229 15.3559 3.00078 14.7257 3.00078 14.0496V2C3.00078 0.89543 3.89621 0 5.00078 0H19.0008ZM19.0008 1.4H5.00078C4.66941 1.4 4.40078 1.66863 4.40078 2V14.0496C4.40078 14.2525 4.50323 14.4415 4.67313 14.5523L11.6731 19.1152C11.8723 19.2451 12.1293 19.2451 12.3284 19.1152L19.3284 14.5523C19.4983 14.4415 19.6008 14.2525 19.6008 14.0496V2C19.6008 1.66863 19.3322 1.4 19.0008 1.4Z" fill="#DBA742"/>
<path d="M0.300781 22.9999C0.300781 22.6133 0.614182 22.2999 1.00078 22.2999L23.0008 22.2999C23.3874 22.2999 23.7008 22.6133 23.7008 22.9999C23.7008 23.3865 23.3874 23.6999 23.0008 23.6999L1.00078 23.6999C0.614182 23.6999 0.300781 23.3865 0.300781 22.9999Z" fill="#DBA742"/>
</svg>
