<svg width="132" height="20" viewBox="0 0 132 20" fill="none" xmlns="http://www.w3.org/2000/svg">
<g clip-path="url(#clip0_21082_302935)">
<g clip-path="url(#clip1_21082_302935)">
<path d="M-6.10352e-05 20L65.4453 20V0L-6.10352e-05 0V20Z" fill="#0F0F0F"/>
<path d="M65.4454 20L132 20V0L65.4454 0V20Z" fill="#525252"/>
<path d="M4.4375 16.0211V4.20575H14.6669V16.0211H11.818V6.62555H7.2864V16.0211H4.4375Z" fill="url(#paint0_linear_21082_302935)"/>
<path d="M16.1667 16.0211L21.1148 4.20575H23.8804L28.7785 16.0211H25.6131L24.6967 13.7014H20.1318L19.2655 16.0211H16.1667ZM20.9482 11.4151H23.9137L22.4476 7.35984L20.9482 11.4151Z" fill="url(#paint1_linear_21082_302935)"/>
<path d="M30.2741 16.0211V4.20575H33.0731V9.01198H33.123L36.9148 4.20575H40.4801L35.822 9.64613L40.78 16.0211H37.0648L33.1064 10.5807H33.0731V16.0211H30.2741Z" fill="url(#paint2_linear_21082_302935)"/>
<path d="M42.6393 16.0211V4.20575H50.5696V6.62555H45.3882V8.84509H50.2863V11.1314H45.3882V13.5846H50.8695V16.0211H42.6393Z" fill="url(#paint3_linear_21082_302935)"/>
<path d="M55.479 16.0211V6.64224H52.147V4.20575H61.66V6.64224H58.3279V16.0211H55.479Z" fill="url(#paint4_linear_21082_302935)"/>
<path d="M75.1331 16.3381C73.3005 16.3381 71.7844 15.7596 70.5849 14.6026C69.3854 13.4344 68.7856 11.9324 68.7856 10.0967C68.7856 8.23875 69.3909 6.74237 70.6015 5.60757C71.8233 4.46164 73.3505 3.88867 75.1831 3.88867C76.0383 3.88867 76.8658 4.04443 77.6655 4.35594C78.4763 4.65633 79.1205 5.0791 79.5981 5.62425L77.6655 7.5601C77.41 7.20408 77.0657 6.93707 76.6326 6.75906C76.2105 6.56992 75.7607 6.47536 75.2831 6.47536C74.2946 6.47536 73.4782 6.82025 72.834 7.51003C72.2009 8.18869 71.8844 9.05092 71.8844 10.0967C71.8844 11.1648 72.1954 12.0381 72.8174 12.7168C73.4393 13.3843 74.2446 13.7181 75.2331 13.7181C76.3327 13.7181 77.1657 13.3176 77.7321 12.5165L79.7147 14.3856C78.5929 15.6873 77.0657 16.3381 75.1331 16.3381Z" fill="url(#paint5_linear_21082_302935)"/>
<path d="M81.6681 16.0211V4.20575H91.8975V16.0211H89.0486V6.62555H84.517V16.0211H81.6681Z" fill="url(#paint6_linear_21082_302935)"/>
<path d="M100.288 16.3381C98.433 16.3381 96.9003 15.7596 95.6897 14.6026C94.479 13.4344 93.8737 11.9213 93.8737 10.0633C93.8737 8.19425 94.4735 6.69787 95.673 5.57419C96.8837 4.45051 98.4219 3.88867 100.288 3.88867C102.165 3.88867 103.703 4.45051 104.903 5.57419C106.113 6.69787 106.719 8.19425 106.719 10.0633C106.719 11.9213 106.113 13.4344 104.903 14.6026C103.692 15.7596 102.154 16.3381 100.288 16.3381ZM97.8555 12.7001C98.4886 13.3899 99.2994 13.7348 100.288 13.7348C101.276 13.7348 102.087 13.3899 102.72 12.7001C103.353 12.0103 103.67 11.1314 103.67 10.0633C103.67 9.01754 103.353 8.15531 102.72 7.47665C102.087 6.798 101.276 6.45867 100.288 6.45867C99.2994 6.45867 98.4886 6.798 97.8555 7.47665C97.2335 8.15531 96.9225 9.01754 96.9225 10.0633C96.9225 11.1314 97.2335 12.0103 97.8555 12.7001Z" fill="url(#paint7_linear_21082_302935)"/>
<path d="M108.692 16.0211V4.20575H113.024C114.423 4.20575 115.539 4.49501 116.372 5.07354C117.216 5.64094 117.639 6.56436 117.639 7.8438C117.639 8.71159 117.411 9.43475 116.955 10.0133C116.511 10.5918 115.95 10.9979 115.273 11.2315C114.606 11.454 113.834 11.5653 112.957 11.5653H111.541V16.0211H108.692ZM111.541 9.29568H112.74C114.107 9.29568 114.79 8.81728 114.79 7.86049C114.79 6.95932 114.123 6.50873 112.79 6.50873H111.541V9.29568Z" fill="url(#paint8_linear_21082_302935)"/>
<path d="M122.492 16.0211V6.64224H119.16V4.20575H128.673V6.64224H125.341V16.0211H122.492Z" fill="url(#paint9_linear_21082_302935)"/>
</g>
</g>
<defs>
<linearGradient id="paint0_linear_21082_302935" x1="59.4605" y1="3.88867" x2="59.4605" y2="16.3957" gradientUnits="userSpaceOnUse">
<stop offset="0.197151" stop-color="#FBE466"/>
<stop offset="1" stop-color="#D49E31"/>
</linearGradient>
<linearGradient id="paint1_linear_21082_302935" x1="59.4605" y1="3.88867" x2="59.4605" y2="16.3957" gradientUnits="userSpaceOnUse">
<stop offset="0.197151" stop-color="#FBE466"/>
<stop offset="1" stop-color="#D49E31"/>
</linearGradient>
<linearGradient id="paint2_linear_21082_302935" x1="59.4605" y1="3.88867" x2="59.4605" y2="16.3957" gradientUnits="userSpaceOnUse">
<stop offset="0.197151" stop-color="#FBE466"/>
<stop offset="1" stop-color="#D49E31"/>
</linearGradient>
<linearGradient id="paint3_linear_21082_302935" x1="59.4605" y1="3.88867" x2="59.4605" y2="16.3957" gradientUnits="userSpaceOnUse">
<stop offset="0.197151" stop-color="#FBE466"/>
<stop offset="1" stop-color="#D49E31"/>
</linearGradient>
<linearGradient id="paint4_linear_21082_302935" x1="59.4605" y1="3.88867" x2="59.4605" y2="16.3957" gradientUnits="userSpaceOnUse">
<stop offset="0.197151" stop-color="#FBE466"/>
<stop offset="1" stop-color="#D49E31"/>
</linearGradient>
<linearGradient id="paint5_linear_21082_302935" x1="59.4605" y1="3.88867" x2="59.4605" y2="16.3957" gradientUnits="userSpaceOnUse">
<stop offset="0.197151" stop-color="#FBE466"/>
<stop offset="1" stop-color="#D49E31"/>
</linearGradient>
<linearGradient id="paint6_linear_21082_302935" x1="59.4605" y1="3.88867" x2="59.4605" y2="16.3957" gradientUnits="userSpaceOnUse">
<stop offset="0.197151" stop-color="#FBE466"/>
<stop offset="1" stop-color="#D49E31"/>
</linearGradient>
<linearGradient id="paint7_linear_21082_302935" x1="59.4605" y1="3.88867" x2="59.4605" y2="16.3957" gradientUnits="userSpaceOnUse">
<stop offset="0.197151" stop-color="#FBE466"/>
<stop offset="1" stop-color="#D49E31"/>
</linearGradient>
<linearGradient id="paint8_linear_21082_302935" x1="59.4605" y1="3.88867" x2="59.4605" y2="16.3957" gradientUnits="userSpaceOnUse">
<stop offset="0.197151" stop-color="#FBE466"/>
<stop offset="1" stop-color="#D49E31"/>
</linearGradient>
<linearGradient id="paint9_linear_21082_302935" x1="59.4605" y1="3.88867" x2="59.4605" y2="16.3957" gradientUnits="userSpaceOnUse">
<stop offset="0.197151" stop-color="#FBE466"/>
<stop offset="1" stop-color="#D49E31"/>
</linearGradient>
<clipPath id="clip0_21082_302935">
<rect width="132" height="20" fill="white"/>
</clipPath>
<clipPath id="clip1_21082_302935">
<rect width="132" height="20" fill="white"/>
</clipPath>
</defs>
</svg>
